<?xml version="1.0" standalone="no"?>
<!DOCTYPE svg PUBLIC "-//W3C//DTD SVG 1.1//EN" "http://www.w3.org/Graphics/SVG/1.1/DTD/svg11.dtd" >
<svg xmlns="http://www.w3.org/2000/svg" xmlns:xlink="http://www.w3.org/1999/xlink" version="1.1">
<metadata></metadata>
<defs>
<font id="miamaregular" horiz-adv-x="444" >
<font-face units-per-em="2048" ascent="1638" descent="-410" />
<missing-glyph horiz-adv-x="716" />
<glyph horiz-adv-x="0" />
<glyph horiz-adv-x="682" />
<glyph unicode=" "  horiz-adv-x="716" />
<glyph unicode="&#x09;" horiz-adv-x="716" />
<glyph unicode="&#xa0;" horiz-adv-x="716" />
<glyph unicode="!" d="M164 29q0 33 29 64.5t63 31.5q39 0 39 -41q0 -33 -28 -64.5t-62 -31.5q-19 0 -30 11t-11 30zM250 217q0 9 39.5 105.5t68.5 152.5q41 82 107 183t117 157q7 7 27.5 13t37.5 6q15 0 38.5 -6.5t23.5 -18.5q0 -8 -4 -8l-4 1q-4 1 -9 1q-24 0 -59.5 -29t-68 -68t-70 -92.5 t-59.5 -88t-42 -68.5q-75 -131 -104 -240q-5 -14 -23 -14q-16 0 -16 14z" />
<glyph unicode="&#x22;" horiz-adv-x="1705" d="M365 528q0 9 20 29q71 85 143 213q17 30 35 70.5t29.5 66.5t19.5 33q32 27 66 27q27 0 27 -19q0 -4 -3 -9.5t-10.5 -16.5t-13.5 -21q-133 -217 -277 -358q-23 -23 -28 -23q-8 0 -8 8zM520 528q0 8 21 29q71 85 143 213q17 30 35 70.5t29.5 66.5t19.5 33q32 27 66 27 q26 0 26 -19q0 -5 -2.5 -10t-10.5 -16.5t-13 -20.5q-133 -217 -277 -358q-23 -23 -29 -23q-8 0 -8 8z" />
<glyph unicode="#" horiz-adv-x="677" d="M106 -59q0 4 31 50t68 99.5t45 65.5q13 18 31 47q-6 -1 -40.5 -10t-47.5 -9q-7 0 -7 6l3 6q3 7 9 17t13.5 20t18.5 18.5t24 10.5q47 8 68 10l129 224q-52 -4 -89 -11q-10 0 -10 7q0 24 21 39t44 20t64 11q5 1 8 1q9 14 27.5 44.5t34 56t33 52t31 41.5t20.5 15 q10 0 10 -14q0 -11 -22 -46.5t-53.5 -82t-41.5 -62.5q18 2 38.5 3t45.5 1.5t39 1.5q11 18 29.5 52t33.5 60.5t32 53t31.5 41.5t25.5 15q8 0 8 -9q0 -4 -4 -12q-52 -68 -127 -199q8 1 39 4t47 3q8 0 8 -4q0 -14 -21.5 -45t-33.5 -31q-6 0 -30.5 2t-47.5 2q-19 -37 -135 -221 q78 4 90 4q20 0 20 -8q0 -3 -5.5 -11.5t-6.5 -13.5q-8 -29 -27.5 -38t-50.5 -9q-12 0 -31.5 1t-29.5 1q-17 -26 -59.5 -97t-72.5 -116t-42 -45t-12 16q0 14 8 25q53 73 147 219q-90 0 -119 -4q-4 -7 -66.5 -102t-101.5 -170q-1 -3 -9 -7t-11 -4q-6 0 -13.5 5.5t-7.5 9.5z M356 276q18 0 121 7q101 163 135 223q-17 -1 -59.5 -4.5t-65.5 -3.5z" />
<glyph unicode="$" horiz-adv-x="737" d="M98 -330l4 8q87 130 156 256q-139 40 -139 170q0 46 19.5 94t49.5 81q7 9 20.5 19.5t20.5 10.5q11 0 11 -24q0 -32 -9 -35q-69 -43 -69 -113q0 -64 59 -114q22 -18 66 -37q25 47 51 100l184 369q-4 2 -13 7q-36 19 -55.5 31.5t-47 35t-40 50t-12.5 60.5q0 104 92.5 178 t202.5 74q43 0 90 -12q3 6 64 116q3 6 6 6q1 0 6 -1t8 -1q6 0 2 -8q-11 -19 -63 -119q41 -15 66.5 -48.5t25.5 -73.5q0 -33 -14 -58q-3 -6 -25 -11t-41 -5q-26 0 -26 12l4 12q3 11 6.5 27.5t3.5 28.5q0 38 -27 59l-90 -178l-57 -107q69 -31 109 -85.5t40 -129.5 q0 -92 -63.5 -183t-163 -147.5t-197.5 -56.5q-5 0 -14 1t-10 1q-77 -143 -121 -219q-6 -11 -31 -28t-35 -17q-4 0 -4 4zM313 -23q24 -6 47 -6q107 0 199.5 90t95.5 197q0 116 -110 184l-183 -366q-29 -61 -49 -99zM403 688q0 -47 46.5 -86t115.5 -61q77 135 150 288 q-52 27 -101 27q-69 0 -140 -50t-71 -118z" />
<glyph unicode="%" horiz-adv-x="1300" d="M244 -109q0 8 10 15l911 991q15 18 33 18q14 0 14 -10q0 -4 -2 -4l-911 -995q-6 -6 -22.5 -12.5t-26.5 -6.5q-6 0 -6 4zM377 614q0 62 39 131t88 117q65 65 149 68q47 0 79 -32.5t32 -82.5q0 -62 -46 -135t-117 -123.5t-136 -50.5q-41 0 -64.5 31t-23.5 77zM451 614 q0 -79 47 -79q45 0 93.5 48t78 111t30.5 111q0 100 -65 100q-48 0 -96 -61q-34 -42 -61 -107t-27 -123zM815 78q0 62 39 131t88 117q64 64 150 67q47 0 78.5 -32t31.5 -82q0 -62 -46 -135.5t-117 -124t-136 -50.5q-41 0 -64.5 31.5t-23.5 77.5zM889 78q0 -80 47 -80 q45 0 93.5 48t78.5 111t31 111q0 101 -66 101q-47 0 -96 -62q-34 -42 -61 -106.5t-27 -122.5z" />
<glyph unicode="&#x26;" horiz-adv-x="1290" d="M100 162q0 199 179 332q37 27 91 55t97 35q-8 27 -8 63q0 63 25 114t63.5 81.5t81.5 46.5t84 16q65 0 113 -31t48 -90q0 -49 -69 -49q-8 0 -8 8q0 4 6 19.5t6 30.5q0 37 -30 61.5t-77 24.5q-89 0 -148.5 -71t-59.5 -161q0 -33 8 -57q40 6 78 6q62 0 104.5 -17t42.5 -55 q0 -29 -30.5 -52t-71.5 -23t-85.5 25t-66.5 87q-133 -38 -218 -148t-85 -241q0 -134 95.5 -208.5t240.5 -74.5q181 0 319 197q22 30 40.5 74t23.5 71q-24 13 -60.5 36.5t-74 43.5t-90.5 43q-24 8 -35 8q-27 0 -50.5 -20t-23.5 -47q0 -34 55 -76l2 -4q0 -6 -32 -6 q-44 0 -54 7.5t-22 47.5q-4 12 -4 19q0 38 42.5 66t100.5 28q22 0 41 -1.5t38 -7t30.5 -8.5t32 -14t28 -15t33 -19.5t33.5 -20.5q52 -32 122.5 -61t122.5 -29q68 0 76 57q0 4 4.5 8t9.5 4q11 0 11 -12q0 -36 -42 -60t-81 -24q-80 0 -187 45q-46 -158 -179.5 -269.5 t-299.5 -111.5q-136 0 -236 90.5t-100 233.5zM508 569q11 -45 48.5 -76.5t70.5 -31.5q21 0 38 14.5t17 36.5q0 32 -29.5 47.5t-70.5 15.5q-5 0 -74 -6z" />
<glyph unicode="'" horiz-adv-x="450" d="M365 528q0 9 20 29q71 85 143 213q17 30 35 70.5t29.5 66.5t19.5 33q32 27 66 27q27 0 27 -19q0 -4 -3 -9.5t-10.5 -16.5t-13.5 -21q-133 -217 -277 -358q-23 -23 -28 -23q-8 0 -8 8z" />
<glyph unicode="(" horiz-adv-x="727" d="M205 104q0 107 69 252q54 110 142 237t182 220q151 151 383 266q4 1 14.5 6t18.5 9t10 4q6 0 6 -6t-14 -13q-103 -53 -174.5 -102t-102 -77.5t-80.5 -82.5q-90 -97 -169 -215.5t-125 -216.5q-91 -190 -91 -317q0 -150 95 -199l4 -4q0 -2 -8 -2q-16 0 -31 6 q-64 26 -96.5 90.5t-32.5 144.5z" />
<glyph unicode=")" horiz-adv-x="776" d="M100 -127q0 5 15 10q121 54 190 105.5t166 156.5q140 151 295 441q90 173 90 311q0 149 -94 197l-4 4q0 2 8 2q16 0 31 -6q64 -28 96.5 -92t32.5 -144q0 -105 -70 -252q-54 -110 -142 -236.5t-182 -219.5q-163 -163 -382 -267q-36 -16 -44 -16q-6 0 -6 6z" />
<glyph unicode="*" horiz-adv-x="522" d="M276 676q0 12 15.5 23.5t40.5 11.5t55 -6q1 22 2 56t2 52.5t4 39t11 29.5t22 9q8 0 18 -19t34.5 -69.5t51.5 -97.5q22 36 49 87t40.5 73t21.5 22q5 0 10.5 -15t5.5 -24q0 -4 -2 -6q-65 -85 -108 -152q39 0 106 3t90 3q17 0 17 -8t-10 -18.5t-19 -10.5q-4 0 -18 1.5 t-23 1.5q-18 0 -63 -1.5t-70 -1.5q52 -88 100 -157q3 -6 3 -8q0 -10 -8.5 -19.5t-17.5 -13.5l-9 -4q-44 0 -170 75q-4 -7 -13 -25.5t-16 -29t-12 -10.5q-7 0 -14.5 4t-15 22t-7.5 48q0 5 1 21.5t1 21.5q-42 28 -73.5 55t-31.5 37zM328 657q0 -16 55 -57q2 16 2 68 q-5 0 -15 1t-14 1q-28 0 -28 -13zM393 575q0 -49 8 -49q4 0 13 9.5t14 17.5q-4 3 -17.5 11t-17.5 11zM393 594q2 -2 43 -31q43 58 66 96q-30 0 -65.5 4.5t-41.5 4.5q-2 -27 -2 -74zM397 702q44 -10 107 -10q-10 16 -25 42t-23.5 40.5t-18.5 30.5t-16 23.5t-9 7.5 q-9 0 -15 -134zM463 545q37 -27 78.5 -47.5t50.5 -20.5q6 0 6 8q0 7 -2.5 17.5t-8 23.5t-10.5 24.5t-13.5 28t-13.5 26.5t-14 26.5t-12 21.5q-43 -70 -61 -108z" />
<glyph unicode="+" horiz-adv-x="862" d="M170 102q0 46 53.5 112.5t138.5 109.5q96 48 273 88q7 16 21.5 44.5t21.5 44.5t13.5 36t6.5 34q0 62 -88 62q-95 0 -170 -72q-10 -10 -22 -10q-15 0 -15 6q0 5 39 31.5t106.5 54t127.5 27.5q46 0 75 -18.5t29 -57.5q0 -42 -65 -166q120 22 246 29q6 0 6 -13 q0 -9 -7.5 -27.5t-15.5 -33t-10 -14.5l-10 5q-11 5 -23 5q-80 0 -227 -21q-94 -148 -200 -232.5t-216 -84.5q-17 0 -35 4t-35.5 19t-17.5 38zM201 98q0 -39 63 -39q95 0 172.5 71t161.5 216q-171 -32 -270 -88q-58 -33 -92.5 -80t-34.5 -80z" />
<glyph unicode="," horiz-adv-x="425" d="M-59 -250q0 8 2 10q60 70 152.5 187.5t146.5 179.5q18 22 57 38.5t63 16.5q13 0 13 -4q0 -7 -17 -24q-333 -354 -401 -416q-4 -4 -6 -4q-10 0 -10 16z" />
<glyph unicode="-" horiz-adv-x="606" d="M231 330q0 11 9 24t14 13h57q21 0 74 -2.5t84 -2.5q18 0 62.5 1.5t60.5 1.5q18 0 18 -23q0 -13 -5.5 -21t-19.5 -11.5t-25.5 -4t-35.5 -0.5q-12 0 -70 2t-104 2h-88q-31 0 -31 21z" />
<glyph unicode="." horiz-adv-x="446" d="M164 29q0 33 29 64.5t63 31.5q39 0 39 -41q0 -33 -28 -64.5t-62 -31.5q-19 0 -30 11t-11 30z" />
<glyph unicode="/" horiz-adv-x="749" d="M195 -328q0 4 1.5 7.5t5.5 10t7 13.5l637 1403q12 24 37 24q16 0 16 -8q0 -4 -4 -12l-653 -1419q-12 -25 -37 -25q-10 0 -10 6z" />
<glyph unicode="0" horiz-adv-x="712" d="M184 184q0 64 36.5 156.5t96 186.5t147.5 177.5t179 122.5q63 23 98 23q79 0 126.5 -65t47.5 -177q0 -92 -60 -219t-158 -236.5t-195 -146.5q-62 -24 -117 -24q-83 0 -142 58t-59 144zM266 193q0 -67 43 -125t111 -58q92 0 191.5 108t161 248.5t61.5 241.5q0 39 -3.5 69 t-14.5 66.5t-37.5 57t-67.5 20.5q-86 0 -211 -129q-37 -40 -88 -117.5t-98.5 -189t-47.5 -192.5z" />
<glyph unicode="1" horiz-adv-x="579" d="M231 432q0 4 9 4q61 6 147.5 56.5t138 91.5t150.5 127l9 7.5t8 7t9 7.5q8 8 33.5 61.5t50.5 67.5q68 35 80 35q15 0 15 -18t-24.5 -52t-65.5 -69q-24 -38 -62.5 -108t-66.5 -125.5t-67.5 -133.5t-45.5 -90q-88 -178 -123 -258q-16 -38 -42 -56t-73 -18q-16 0 -16 13 q0 11 10 30.5t31.5 55.5t30.5 51l313 567q-59 -55 -96.5 -88t-96.5 -80t-108 -70.5t-88 -23.5q-12 0 -26.5 1.5t-24 3.5t-9.5 3z" />
<glyph unicode="2" horiz-adv-x="825" d="M86 33q0 15 9.5 20.5t38 14t54.5 22.5q76 39 147 85t149 107t144 136.5t107 154.5q25 52 25 93q0 55 -33.5 91t-89.5 36q-55 0 -128 -42.5t-106 -86.5q-6 -9 -12 -9t-6 4q0 14 18 37q49 67 128 112.5t163 45.5q64 0 113 -43.5t49 -110.5q0 -58 -30.5 -117.5t-94 -124 t-126.5 -117t-163 -128.5q-51 -39 -129 -85t-123 -67q196 41 412 41q277 0 277 -73q0 -18 -45 -40t-62 -22q-10 0 -16 6q-73 76 -205 76q-61 0 -136 -11.5t-178 -34t-106 -23.5q-9 -3 -14 -3q-31 0 -31 56z" />
<glyph unicode="3" horiz-adv-x="718" d="M117 117q0 10 23 18t46 8q29 0 29 -10q0 -5 -1 -16t-1 -15q0 -66 49.5 -107.5t122.5 -41.5q61 0 128.5 41t116 115t48.5 155q0 102 -90 152q-23 12 -50.5 17.5t-42 6.5t-14.5 6q0 12 5.5 34.5t13.5 25.5l33 11t38 12.5t36 14t39 18.5t35.5 22.5t36 30t30.5 36.5t28 45 q10 18 10 43q0 32 -22 53t-62 21q-34 0 -86.5 -32.5t-60.5 -55.5q-3 -6 -8 -6q-8 0 -8 8q0 38 76.5 81.5t144.5 43.5q48 0 83.5 -20t35.5 -68q0 -148 -330 -264q92 0 152.5 -61.5t60.5 -143.5q0 -100 -65 -187t-163.5 -135.5t-201.5 -48.5q-86 0 -150.5 53.5t-64.5 139.5z " />
<glyph unicode="4" horiz-adv-x="917" d="M217 346q0 23 29 49l364 312q23 20 41 45t25.5 42t13 33t6.5 17q7 10 28.5 18t39.5 8q22 0 22 -12q0 -21 -46 -75.5t-66 -69.5q-29 -24 -129 -98t-193 -162q-30 -30 -30 -54q0 -44 82 -72t210 -38q33 63 61.5 114.5t49 91t59.5 121.5q25 51 25 119q0 11 -2 19t-2 10 q0 6 4 6q28 0 49 -37t21 -55q0 -38 -35 -92q-33 -53 -89 -157.5t-77 -141.5q215 0 389 41q6 0 6 -2q0 -9 -30.5 -40t-43.5 -34q-88 -16 -223 -16q-84 0 -129 2q-19 -34 -60.5 -125t-76.5 -146q-12 -20 -48.5 -39.5t-49.5 -19.5q-2 0 -2 2t23.5 41t68.5 121t86 168 q-162 8 -266.5 35t-104.5 71z" />
<glyph unicode="5" horiz-adv-x="628" d="M100 119q0 115 95 306t223 329q21 23 34.5 36t39 33t54 29.5t60.5 9.5q34 0 116 -30.5t132 -30.5q60 0 103 30t53 95q1 5 1.5 14t1 13.5t1.5 4.5t3 -4.5t3.5 -13.5t1.5 -18q0 -73 -69.5 -123.5t-153.5 -50.5q-48 0 -132 26.5t-120 26.5q-60 0 -107 -47 q-141 -142 -229 -314.5t-88 -283.5q0 -83 46 -148t136 -65q85 0 152 48.5t102 123.5t35 159q0 32 -10 70q-12 36 -43.5 69.5t-62.5 54t-55 41t-24 34.5q0 9 29 55.5t64.5 100.5t42.5 67q6 6 20 6q10 0 10 -4q0 -11 -26.5 -43t-53 -71t-26.5 -66q0 -16 17.5 -32.5t43 -31 t56 -36.5t56 -46t43 -62.5t17.5 -84.5q0 -89 -53 -176.5t-140.5 -143t-179.5 -55.5q-86 0 -152.5 54.5t-66.5 144.5z" />
<glyph unicode="6" horiz-adv-x="749" d="M78 41q0 57 127 174q47 187 332 483q48 50 80.5 80.5t86.5 72t109.5 62.5t112.5 21q78 0 129 -39.5t51 -83.5q0 -14 -12.5 -29.5t-22.5 -15.5q-6 0 -6 6q-16 148 -143 148q-94 0 -183 -65.5t-184 -174.5q-164 -187 -236 -377q136 88 263 88q80 0 132 -33t52 -102 q0 -50 -40 -105.5t-97 -103.5q-109 -90 -230 -90q-39 0 -73 9t-64 28.5t-47.5 56t-17.5 86.5q0 15 4 47q-30 -26 -66.5 -69.5t-44.5 -73.5q-2 -10 -6 -10q-6 0 -6 10zM276 102q0 -127 130 -127q47 0 100.5 21.5t99 58.5t75.5 92t30 115q0 52 -41.5 79.5t-110.5 27.5 q-107 0 -252 -97q-2 -9 -8 -30t-9 -33t-7 -30.5t-5.5 -37t-1.5 -39.5z" />
<glyph unicode="7" horiz-adv-x="604" d="M215 -31q0 92 172 279q38 44 111 121q-14 0 -50 1t-57 1q-13 0 -22 -3.5t-13 -7t-14 -15t-16 -17.5q-4 -4 -7 -4q-2 0 -2 4q0 3 13 16q1 1 13.5 15t22 23.5t24.5 18.5t26 9q84 0 125 4q25 27 82 87t79 83.5t64 70.5t86 99q-37 -9 -125.5 -22t-128.5 -13q-266 0 -266 47 q0 15 7.5 38t16 39.5t11.5 16.5q4 0 4 -14q0 -9 36 -22.5t95.5 -24.5t115.5 -11q63 0 169 11.5t122 29.5q21 21 31 21q6 0 6 -6t-10 -19q-36 -46 -67.5 -84t-73.5 -85.5t-60 -67t-79 -85.5t-78 -85q20 0 46 4.5t50 11t45 12.5t34 10l13 5q4 0 4 -2q0 -7 -18.5 -27t-32.5 -26 q-93 -34 -187 -37q-36 -38 -51.5 -54.5t-56.5 -67.5t-62.5 -87t-41 -86.5t-19.5 -93.5q0 -14 -23.5 -22.5t-44.5 -8.5q-18 0 -18 20z" />
<glyph unicode="8" horiz-adv-x="675" d="M188 117q0 40 17.5 79t50 74t61 59.5t68.5 53.5q13 10 41.5 27t67.5 38.5t51 28.5q-29 53 -29 101t29 104q32 57 119.5 115.5t148.5 58.5q42 0 64 -20.5t22 -53.5q0 -51 -39 -100.5t-94 -73.5q-9 -6 -33 -6q-12 0 -12 8t12 8q5 0 10 -2l5 -2q23 0 54.5 49.5t31.5 92.5 q0 29 -17 48t-51 19q-60 0 -125.5 -64t-65.5 -118q0 -48 52 -115q13 5 38.5 15.5t32.5 13.5q8 3 26.5 13t34 18t19.5 8q2 0 2 -2q0 -3 -141 -82q74 -98 74 -188q0 -68 -51 -149.5t-137.5 -141.5t-174.5 -60q-69 0 -115.5 40.5t-46.5 105.5zM260 141q0 -44 32 -81t101 -37 q59 0 110.5 25.5t82 63.5t48 78t17.5 72q0 33 -12.5 63.5t-44.5 77t-39 58.5q-58 -33 -92 -54.5t-78 -54.5t-67.5 -62t-40.5 -68t-17 -81z" />
<glyph unicode="9" horiz-adv-x="649" d="M63 74q0 49 27.5 95.5t73 82.5t94.5 62.5t100 43.5q12 4 17 4q10 0 10 -2t-15 -7t-39.5 -14.5t-53.5 -23t-58 -36t-53.5 -50t-39.5 -68t-15 -87.5q0 -41 23 -70t69 -29q215 0 444 512q-82 -43 -164 -43q-71 0 -124.5 33.5t-53.5 102.5q0 42 30.5 91t80 91t121 70 t145.5 28q51 0 92 -26.5t41 -79.5q0 -51 -27.5 -130t-54.5 -132q-10 -20 -38.5 -77.5t-42.5 -84.5t-44 -77t-55 -82.5t-62.5 -72.5t-78.5 -73q-94 -74 -203 -74q-59 0 -102.5 32t-43.5 91zM381 598q0 -59 40 -95t87 -36q34 0 78.5 17t72.5 40q93 145 93 252q0 58 -82 58 q-104 0 -196.5 -71.5t-92.5 -164.5z" />
<glyph unicode=":" horiz-adv-x="487" d="M115 29q0 33 29 64.5t63 31.5q39 0 39 -41q0 -33 -28 -64.5t-62 -31.5q-19 0 -30 11t-11 30zM293 369q0 33 29 64.5t63 31.5q39 0 39 -41q0 -33 -28 -64.5t-62 -31.5q-19 0 -30 11t-11 30z" />
<glyph unicode=";" horiz-adv-x="464" d="M-104 -250q0 8 2 10q60 70 152.5 187.5t146.5 179.5q18 22 57 38.5t63 16.5q13 0 13 -4q0 -7 -17 -24q-333 -354 -401 -416q-4 -4 -6 -4q-10 0 -10 16zM293 369q0 33 29 64.5t63 31.5q39 0 39 -41q0 -33 -28 -64.5t-62 -31.5q-19 0 -30 11t-11 30z" />
<glyph unicode="&#x3c;" horiz-adv-x="614" d="M303 313q0 30 21 47q37 25 157.5 122t159.5 126q31 23 35 23t4 -6q0 -14 -6 -17q-40 -30 -89 -68t-114 -90t-92 -73q-25 -25 -25 -39t103 -178q35 -58 35 -64q0 -2 -19 -8q-3 -1 -11 -6.5t-16 -9.5t-16 -4q-3 0 -9 8.5t-14 22t-10 16.5q-33 59 -88 172q-6 12 -6 26z" />
<glyph unicode="=" horiz-adv-x="778" d="M248 291q0 24 8 24q110 -8 258 -8q11 0 94.5 2t114.5 2q22 0 29.5 -3t7.5 -13q0 -22 -20.5 -27.5t-88.5 -5.5h-65q-96 0 -326 4q-12 0 -12 25zM258 399q0 12 8.5 28.5t14.5 16.5q85 5 381 5h36q80 0 80 -25q0 -9 -5.5 -17t-12.5 -8h-29q-10 0 -49.5 -1t-69.5 -1 q-12 0 -39 1t-43 1q-35 0 -139.5 -4t-126.5 -4q-6 0 -6 8z" />
<glyph unicode="&#x3e;" horiz-adv-x="614" d="M184 76q0 11 6 14q40 29 90 68.5t112.5 89.5l92.5 74q21 15 21 32q0 9 -7 25.5t-19.5 39.5t-25 44t-30 50t-27.5 46q-3 7 -9.5 17t-10.5 16.5t-4 7.5q0 7 25 15t34 8q10 0 17 -9.5t24 -40.5q27 -47 92 -180q4 -6 4 -16q0 -17 -28 -39q-39 -26 -167.5 -129t-168.5 -133 q-16 -8 -17 -8q-4 0 -4 8z" />
<glyph unicode="?" horiz-adv-x="743" d="M205 29q0 33 29 64.5t63 31.5q39 0 39 -41q0 -33 -28 -64.5t-62 -31.5q-19 0 -30 11t-11 30zM276 272q0 38 28 76t56.5 59t73.5 50q143 93 192 132q118 98 119 171q0 47 -32.5 68.5t-69.5 21.5q-68 0 -123 -41.5t-88 -97.5q-10 -17 -20 -17q-6 0 -6 6q0 7 4 11 q10 11 38 44.5t39.5 46t38 36.5t47 34t51.5 18.5t66 8.5q51 0 93 -27t42 -77q0 -20 -7 -41t-17 -39t-29.5 -40t-34.5 -38t-43.5 -38t-44.5 -34.5t-49 -35t-46.5 -31t-47.5 -30t-41 -26.5q-39 -26 -57.5 -40t-37 -40t-18.5 -55q0 -40 33 -70t86 -30q57 0 111 45q4 4 10 4 t6 -8q0 -5 -8 -10q-90 -62 -174 -62q-51 0 -95.5 23.5t-44.5 72.5z" />
<glyph unicode="@" horiz-adv-x="1189" d="M172 195q0 134 71 275t182 250t257.5 179t288.5 70q66 0 128 -16t116.5 -48.5t87 -88.5t32.5 -128q0 -125 -84 -233q-84 -111 -195.5 -186.5t-195.5 -75.5q-37 0 -58.5 16.5t-21.5 48.5q0 12 2 18q-110 -69 -188 -69q-42 0 -66 25t-24 73q0 69 45 154q42 83 140.5 151 t172.5 68q32 0 57.5 -11.5t40.5 -30.5t22.5 -34t12.5 -31h6q19 0 19 -14q0 -20 -7.5 -41t-17 -37t-26.5 -36.5t-27.5 -31t-29 -28.5t-21.5 -21q-33 -64 -33 -88q0 -45 49 -45q31 0 76.5 20t95.5 59.5t93 91t71.5 122.5t28.5 146q0 141 -83.5 208.5t-234.5 67.5 q-120 0 -235.5 -50t-206.5 -133.5t-159.5 -193t-100.5 -229.5q-14 -58 -14 -107q0 -133 88.5 -220t265.5 -87q211 0 389 160q26 24 51 72q3 5 17.5 11.5t23.5 6.5q8 0 8 -4t-2 -8q-19 -39 -73 -82q-112 -98 -243.5 -152.5t-252.5 -54.5q-146 0 -242 87t-96 235zM586 307 q0 -67 57 -67q54 0 143 57q11 39 37.5 88t48.5 78q62 87 113 104q-33 86 -119 86q-62 0 -135 -66t-108 -136q-37 -75 -37 -144zM905 391l7 7q28 28 44 45.5t34 48.5t18 57q0 12 -2 12q-3 0 -7 -4l5 -25l-3 -4q-4 0 -8 21q-31 -44 -46.5 -71t-25 -50t-16.5 -37z" />
<glyph unicode="A" horiz-adv-x="1318" d="M-18 -166q0 6 2 8q51 31 98.5 63t99 72.5t87.5 69.5t94.5 82t86.5 78.5t99 92t98 91.5q105 98 251.5 268.5t213.5 268.5q55 81 74.5 101t62.5 40q16 8 23 8q6 0 6 -10q0 -8 -5 -24t-12 -33t-8 -21q-44 -108 -90 -263t-71 -290q31 5 69 16.5t62 20t26 8.5q4 0 4 -6 q0 -2 -22 -14t-63 -29.5t-83 -30.5q-30 -180 -30 -245q0 -142 86 -142q40 0 106.5 29.5t132.5 87.5q33 29 67 68.5t44 54.5q4 6 8 6t4 -4q0 -2 -2 -6q-92 -120 -209.5 -206.5t-222.5 -86.5q-54 0 -73 33.5t-19 107.5q0 33 4.5 76.5t9 69.5t14 79t11.5 62q-139 -27 -279 -27 q-40 0 -63 2q-33 -30 -120 -111t-136.5 -126t-125.5 -111t-145 -120t-137 -101q-4 -4 -10 -4q-18 0 -18 47zM711 408q53 -2 127 -2q88 0 188 18q48 213 145 475q29 85 29 94q0 6 -2 6q-12 0 -29 -26q-85 -133 -218.5 -296t-239.5 -269z" />
<glyph unicode="B" horiz-adv-x="1157" d="M-14 -575q0 21 8 34q231 485 476 929t353 556q59 61 126.5 97t123.5 36q54 0 84.5 -40t30.5 -99q0 -86 -66 -187t-159 -190q88 0 151.5 -45t63.5 -135q0 -97 -94.5 -216.5t-233 -203.5t-254.5 -84q-76 0 -122 42t-46 110q0 20 6 42t13.5 35t11.5 13q7 0 17.5 -13.5 t10.5 -21.5q0 -2 -3 -12.5t-3 -20.5q0 -35 18 -61.5t44.5 -40t50 -19.5t41.5 -6q74 0 157 42.5t149 108.5t109.5 151.5t43.5 164.5q0 70 -54.5 103.5t-148.5 33.5q-41 0 -41 9q0 4 20 24q51 51 83 86t71 84.5t58.5 95.5t19.5 88q0 115 -78 115q-42 0 -96.5 -33.5 t-106.5 -91.5q-169 -187 -805 -1472q-20 -39 -22 -39q-8 0 -8 31z" />
<glyph unicode="C" horiz-adv-x="1161" d="M279 182q0 168 110 369q34 62 82.5 130.5t132.5 153.5t170 134q172 96 309 96q65 0 140 -20t75 -56q0 -14 -23 -33.5t-32 -19.5q-2 0 -4 7.5t-6.5 19t-9.5 18.5q-42 53 -156 53q-164 0 -311 -114q-146 -113 -270 -321t-124 -382q0 -132 74 -215t191 -86q140 0 260 96 t237 269q5 8 11 8q8 0 8 -39q0 -62 -10 -72q-103 -131 -239 -218t-284 -87q-138 0 -234.5 84t-96.5 225z" />
<glyph unicode="D" horiz-adv-x="1402" d="M135 -10q0 69 63.5 162t153 160t156.5 67q40 0 69 -29.5t56 -87.5q52 90 166.5 332.5t208.5 468.5q-7 0 -22 1t-23 1q-163 0 -332 -84q-82 -40 -170 -127.5t-141.5 -171.5t-53.5 -125q0 -5 6.5 -15t6.5 -14t-4 -8t-9 -4q-12 0 -36.5 26.5t-24.5 39.5q0 25 55 101.5 t144 164.5t167 129q191 98 410 98h33q18 52 18 72q0 43 -24.5 63.5t-77.5 20.5q-59 0 -129 -41q-20 -10 -25 -10q-4 0 -4 2q0 4 14 12q105 57 179 57q139 0 139 -102q0 -33 -21 -80q367 -62 367 -471q0 -95 -17 -191.5t-55.5 -190.5t-93.5 -166.5t-139 -117.5t-184 -45 q-68 0 -122.5 17t-101 55.5t-79 77t-78.5 102.5q-89 -119 -173.5 -180t-154.5 -61q-50 0 -83.5 22.5t-33.5 69.5zM203 37q0 -86 100 -86q53 0 121 48t143 157q-9 13 -30.5 44.5t-30.5 43t-25.5 29.5t-31 24t-31.5 6q-47 0 -99 -48t-84 -110.5t-32 -107.5zM645 233 q21 -54 34 -84t41 -79.5t54.5 -77t67 -49t86.5 -21.5q90 0 167 47.5t129 122.5t89 169t54 186t17 174q0 169 -73 277.5t-236 152.5q-37 -73 -125.5 -256t-158.5 -314t-146 -248z" />
<glyph unicode="E" horiz-adv-x="1099" d="M272 145q0 68 28.5 132t77.5 115t107 90.5t125 70.5q40 18 98.5 37t93 30.5t34.5 16.5q0 3 -23 22q-76 57 -76 138q0 34 23 75q56 93 156 141t210 48q31 0 75 -6t89 -25.5t45 -48.5q0 -19 -24.5 -48.5t-34.5 -29.5q-6 0 -6 4q0 1 5 11.5t5 17.5q0 31 -53 65.5t-140 34.5 q-55 0 -113 -18.5t-104.5 -63t-46.5 -104.5q0 -47 21.5 -93.5t58.5 -68.5l12 -8t10 -6t8 -4.5t6 -4.5t4 -3.5t2.5 -3t0.5 -3.5q0 -21 -10 -34t-41 -17q-235 -30 -387 -135q-75 -52 -113.5 -133t-38.5 -162q0 -56 20.5 -100.5t51.5 -70t72 -42.5t76.5 -23t70.5 -6 q89 0 191 53t167.5 121.5t65.5 116.5q0 7 -3 15t-3 10q0 8 8 8q11 0 34 -15.5t23 -25.5q0 -2 -2 -4q-18 -19 -54.5 -62t-67.5 -73t-72 -60q-191 -137 -342 -137q-56 0 -111.5 16.5t-102.5 48.5t-76.5 84t-29.5 117z" />
<glyph unicode="F" horiz-adv-x="841" d="M162 -86q0 2 6 6.5t19 14t24 20.5q190 190 371 541q-101 0 -222.5 -12.5t-130.5 -12.5q-4 0 -4 2q0 8 37.5 37t50.5 29q23 2 82 2q29 0 99.5 -1t109.5 -1q109 222 152 346q-351 0 -531 -8q-6 0 -6 2q0 7 25.5 21t50.5 18q137 20 481 20q21 61 21 117q0 88 -43 141 t-136 53q-81 0 -151 -37q-1 -1 -10 -7t-31 -17q-20 -10 -25 -10q-6 0 -13 4t-7 8q0 2 4 6q45 33 114 53.5t132 20.5q116 0 182 -60t66 -161q0 -49 -19 -111q215 7 305 20q189 29 308 117q2 2 6 2q8 0 8 -14q0 -29 -15 -53.5t-43.5 -41t-62.5 -29t-81 -20.5t-89.5 -13 t-96.5 -7.5t-93 -3.5t-89.5 -2t-76.5 -2l-199 -352q176 0 271.5 14t177.5 65q1 0 2 1.5t2 1.5q2 -3 2 -5q0 -13 -21 -42.5t-47 -41.5q-76 -36 -291 -36h-121l-215 -359q-16 -27 -49 -84.5t-57.5 -98.5t-40.5 -63q-13 -18 -25 -18q-8 0 -27 15.5t-36 21.5q-4 2 -4 4z" />
<glyph unicode="G" horiz-adv-x="1384" d="M27 -637q0 72 30.5 140.5t79.5 121.5t114.5 99.5t133 78.5t137.5 54q47 15 103 26t152 25.5t114 17.5q129 230 283 469q-68 -54 -242.5 -157t-269.5 -129q-63 -17 -119 -17q-100 0 -168 47t-68 148q0 83 50.5 183.5t131.5 195.5q89 104 217.5 196.5t284.5 154.5t291 62 q127 0 127 -92q0 -30 -8 -39.5t-37 -9.5q-8 0 -8 16q0 53 -27.5 79t-75.5 26q-97 0 -257 -89.5t-296 -211.5q-121 -107 -215 -245t-94 -245q0 -74 47.5 -114.5t112.5 -40.5q62 0 152.5 35t150 68t164.5 95q33 20 84 57t74 58q38 34 134.5 184.5t188.5 309.5q20 34 33 34 q11 0 32 -15.5t21 -33.5q0 -37 -50.5 -112.5t-115.5 -141.5q-13 -14 -27.5 -31t-25 -30t-26 -36t-22.5 -33.5t-24 -37.5t-20.5 -33t-21.5 -36.5t-19 -32.5l-256 -442q291 44 479 206q67 59 100 109q4 6 9 6q4 0 4 -4q0 -2 -2 -6q-56 -73 -111 -122t-127 -91 q-133 -78 -366 -123q-31 -47 -105.5 -177.5t-144.5 -232.5q-97 -138 -141 -190q-161 -183 -322 -184q-96 0 -159.5 65t-63.5 168zM115 -682q0 -172 137 -172q161 0 297 205q99 146 334 553q-151 -20 -233 -35.5t-154 -42.5q-102 -38 -177.5 -96t-119 -126.5t-64 -139.5 t-20.5 -146z" />
<glyph unicode="H" horiz-adv-x="1171" d="M96 -86q0 3 3.5 7t9 10.5t8.5 11.5q223 382 278 491q8 16 42 82t53.5 107t45.5 101t39 108.5t13 85.5q0 120 -90 120q-49 0 -81.5 -14t-62.5 -45q-8 -8 -16 -8q-6 0 -6 6q0 12 24 29q48 33 76 45t68 12q65 0 115.5 -40.5t50.5 -107.5q0 -76 -66 -217q-47 -104 -86 -176 q23 -20 35.5 -29t49 -21.5t81.5 -12.5q68 0 161 26.5t175 75.5q24 44 50 94.5t60 117t58 112.5q95 184 127 184q16 0 16 -31q0 -37 -22.5 -105t-40.5 -108q-72 -153 -156 -241q-29 -42 -72 -125q-7 -12 -53 -98t-68.5 -130.5t-46.5 -111t-24 -107.5q0 -86 71 -86 q30 0 61.5 11t55 23.5t60 42.5t54.5 46.5t60 56.5q35 34 82.5 85.5t54.5 62.5q4 6 9 6q4 0 4 -4q0 -2 -2 -6q-130 -170 -267 -281q-116 -96 -213 -96q-47 0 -80.5 28t-33.5 72q0 36 18.5 90.5t36.5 93t53.5 108t44.5 87.5q17 37 44.5 89t37.5 73q-229 -94 -368 -94 q-73 0 -150 35q-13 -23 -86 -160l-155 -291q0 -1 -7.5 -17.5t-19 -37t-19.5 -29.5q-13 -16 -53 -16q-41 0 -41 10z" />
<glyph unicode="I" horiz-adv-x="804" d="M123 23q0 23 10.5 37t30.5 14q14 0 14 -27q0 -9 -4 -23.5t-4 -21.5q0 -13 10 -25q50 -61 127 -61q165 0 293 266q191 403 307 586l131 213q-45 -14 -157.5 -29.5t-157.5 -15.5q-11 -15 -26 -32.5t-31 -33.5l-28.5 -28.5t-24 -23.5t-13.5 -13q-8 -7 -66 -59.5t-90 -77.5 q-23 -17 -24 -17q-2 0 -2 6q0 12 20 29q49 39 138 125t112 121q-39 1 -58 1.5t-57 3t-59 8t-45.5 13.5t-35.5 22t-11 32q0 46 55 85.5t119 58t109 18.5q100 0 100 -66q0 -45 -66 -150q21 2 73.5 6t75 6.5t59.5 10.5t69 20q108 31 121 31q8 0 8 -2q0 -8 -25 -33 q-62 -74 -123.5 -175.5t-99.5 -178.5t-107.5 -224.5t-107.5 -223.5q-29 -58 -63 -107.5t-80 -95t-105 -72t-123 -26.5q-39 0 -80 12.5t-74.5 43t-33.5 73.5zM485 1024q0 -42 36.5 -56t103.5 -14q13 0 41 1t41 1q2 3 7 11t7 11t6.5 10.5t6.5 11t5.5 10.5t5 11t3.5 10t3 11 t2 10.5t1 10.5q0 39 -29.5 63.5t-71.5 24.5q-61 0 -114.5 -33t-53.5 -94z" />
<glyph unicode="J" horiz-adv-x="821" d="M-291 -823q0 84 28.5 175.5t85 185t155.5 180.5t227 147q39 19 132 52.5t161 53.5q38 79 113.5 252.5t141 305.5t140.5 249l131 213q-67 -37 -178.5 -63.5t-190.5 -26.5q-36 0 -57 6q-151 -213 -203 -213q-2 0 -2 4q0 1 2.5 2t6 2.5t6.5 4.5q37 35 87 99t78 109 q-67 36 -67 99q0 21 10 41q38 69 48 80t50 26q7 2 23.5 8.5t28 9.5t20.5 3q31 0 31 -37q0 -22 -14 -55.5t-26 -54.5t-39 -63.5t-30 -47.5q30 -9 66 -9q86 0 188 35.5t162 75.5q8 6 23 6l69 -12q0 -2 -2 -4q-61 -71 -119 -161.5t-114.5 -205.5t-96.5 -204t-102 -233t-94 -216 q110 38 223 102q41 23 84.5 60t67.5 62t30 34q4 6 8 6q5 0 5 -4q0 -2 -2 -6q-92 -122 -242 -199q-90 -48 -189 -88q-8 -20 -53.5 -127t-58.5 -136t-51.5 -116.5t-58.5 -128t-53 -106.5t-62 -115.5t-60 -95.5q-147 -219 -309 -219q-158 0 -158 258zM-209 -829 q0 -104 28.5 -164t84.5 -60q122 0 225 172q72 123 132.5 264.5t120.5 300.5t105 257q-364 -110 -530 -300t-166 -470zM535 999q0 -31 51 -65q78 118 78 196q0 35 -17 35q-32 0 -72 -70t-40 -96z" />
<glyph unicode="K" horiz-adv-x="962" d="M168 -84q0 4 2 6q102 151 165 256t146 273q-4 9 -10.5 24t-10.5 24.5t-9.5 19.5t-10.5 15t-10 5q-3 0 -9 -1t-9 -1q-9 0 -9 4t35.5 21t78.5 36.5t44 19.5q2 4 27.5 59t35.5 80t22.5 70.5t12.5 79.5q0 125 -141 125q-73 0 -155.5 -43.5t-155.5 -136.5q-23 -29 -31 -29 q-2 0 -2 4q0 9 14 29q19 26 42 50.5t60.5 55t78.5 53t98 37.5t117 15q145 0 145 -117q0 -34 -14.5 -81t-30 -80.5t-41 -84.5t-31.5 -65q547 274 650 362q75 60 98 60q4 0 4 -4q0 -9 -37 -46.5t-105.5 -89t-136.5 -85.5l-487 -234q-13 -26 -29 -61t-28 -60q15 -24 45 -74.5 t55 -92t62 -97.5t70.5 -99.5t76.5 -89t83 -75.5t87.5 -49t93.5 -19q105 0 197 68l6 4q4 0 4 -2q0 -30 -84 -64t-160 -34q-65 0 -124.5 20.5t-109 59.5t-92.5 85.5t-83 108t-72.5 117t-68.5 121.5l-21 39q-188 -380 -266 -490q-11 -14 -41 -14q-31 0 -31 12zM498 561 q3 -7 8.5 -21t11.5 -24q3 7 7.5 18t11 25.5t10.5 22.5q-4 -2 -16 -6.5t-20.5 -8t-12.5 -6.5z" />
<glyph unicode="L" horiz-adv-x="956" d="M135 -72q0 57 75 153t185 181q74 57 125 57q67 0 90 -116q140 196 226 338q2 4 17 29t23 38.5t24 42t25.5 48.5t22 49t20 51.5t12.5 47.5t5 46q0 62 -48.5 95.5t-115.5 33.5q-72 0 -165.5 -55t-163.5 -123q-23 -23 -35 -23q-6 0 -6 4q0 11 22 33q84 87 198.5 147 t227.5 60q83 0 129.5 -43t46.5 -98q0 -31 -15.5 -72t-28 -62.5t-38.5 -64.5q-156 -262 -375 -555q28 -78 88.5 -155.5t138.5 -138t173.5 -98.5t185.5 -38q120 0 197 74q8 8 15.5 19t12.5 16.5t9 5.5t4 -7q0 -17 -29 -51q-88 -104 -266 -104q-83 0 -174 26.5t-148 67.5 q-56 40 -94.5 79t-76.5 110.5t-60 166.5q-50 -63 -109 -119t-138 -101.5t-146 -45.5q-66 0 -66 51zM197 -20q0 -22 14.5 -36t40.5 -14q73 0 162 66q66 49 174 180q-6 39 -30 61.5t-62 22.5q-57 0 -125 -51q-64 -46 -119 -114.5t-55 -114.5z" />
<glyph unicode="M" horiz-adv-x="1482" d="M119 786q0 6 18 41q51 90 152 159t225 69q112 0 165.5 -53t53.5 -138q0 -46 -16 -96q69 98 159.5 175t170.5 77q58 0 99.5 -32.5t41.5 -94.5q0 -26 -8 -53q62 77 172.5 153t185.5 76q67 0 104 -31.5t37 -83.5q0 -83 -86 -186q-88 -103 -154.5 -214t-102 -207.5 t-53 -175.5t-17.5 -140q0 -118 67 -189t156 -71q43 0 82 15t65.5 36t46.5 42.5t31 36.5l10 15q2 0 2 -4q0 -20 -25.5 -55.5t-51.5 -59.5q-95 -82 -195 -82q-118 0 -192 71.5t-74 193.5q0 52 11 110t35.5 123t46.5 117.5t61 125.5t60.5 112.5t64.5 113t55 94.5q55 93 55 156 q0 33 -20.5 58.5t-57.5 25.5q-75 0 -192 -95t-152 -171q-10 -24 -37 -63.5t-39 -39.5q-16 0 -31 6.5t-22.5 13.5t-7.5 11q0 6 8 11t21 5q6 0 22.5 28t31.5 71t15 75q-2 39 -27 73t-73 34q-70 0 -162 -89t-147 -181q-211 -416 -406 -740q-12 -19 -12 -33q0 -7 10 -14.5 t10 -13.5q0 -4 -7.5 -9.5t-12.5 -5.5q-3 0 -9.5 4.5t-16.5 12t-19 12.5q-43 17 -43 43q0 7 6 16q24 37 76.5 112t89.5 134t82 142q10 19 45 79.5t56 100.5t47.5 97t40 108t13.5 94q0 81 -52 133.5t-132 52.5q-84 0 -175.5 -63.5t-147.5 -153.5q-21 -31 -29 -31q-2 0 -2 4z " />
<glyph unicode="N" horiz-adv-x="954" d="M41 -41q0 66 29 174t67 203q7 19 46 44.5t57 25.5q6 0 6 -7q0 -4 -2 -8q-40 -83 -93 -226.5t-53 -209.5q0 -39 23 -39q25 0 64.5 51t70.5 111q44 84 88.5 185.5t77.5 168.5q27 56 86 178.5t100 206.5t60 119q15 27 44 49.5t50 22.5q24 0 24 -37q-8 -127 -37.5 -435.5 t-33.5 -453.5q72 179 219 493q96 209 160 305q127 188 252 189q73 0 133.5 -53.5t60.5 -124.5q0 -17 -20 -28t-41 -11q-25 0 -25 12q0 68 -34 123t-89 55q-47 0 -96 -38q-24 -19 -53 -57.5t-52 -75.5t-56.5 -100.5t-49 -95.5t-47.5 -99.5t-37 -77.5q-45 -94 -107.5 -247.5 t-96.5 -219.5t-60 -66q-35 0 -35 82q0 128 36 402.5t36 433.5q0 47 -13 47q-4 0 -20 -25q-60 -107 -219 -453t-195 -413q-90 -164 -168 -164q-57 0 -57 84z" />
<glyph unicode="O" horiz-adv-x="909" d="M160 176q0 137 84 322q118 257 296 415t355 158q65 0 116.5 -53.5t51.5 -151.5q0 -37 -41 -37q-18 0 -34.5 9t-16.5 18q0 4 3 21.5t3 25.5q0 61 -35 96t-94 35q-151 0 -292 -134t-243 -355q-73 -158 -73 -318q0 -119 48.5 -192.5t141.5 -73.5q163 0 327.5 141t262.5 373 q74 173 74 328q0 97 -33 198q0 12 10 43t25 31q19 0 31 -86.5t12 -140.5q0 -182 -82 -363q-120 -264 -300.5 -434t-355.5 -170q-115 0 -178 79t-63 216z" />
<glyph unicode="P" horiz-adv-x="864" d="M254 -102q0 1 7 13t18 29.5t20 28.5q17 22 49 82.5t69.5 139t41.5 85.5q4 8 110 208.5t140 291.5q18 47 32 59.5t56 12.5q4 0 4 -2q0 -5 -11 -26.5t-30 -59t-33 -70.5q30 61 82.5 127t116 122.5t136 93t134.5 36.5q63 0 102 -33.5t39 -95.5q0 -47 -26.5 -93.5t-66 -82 t-93 -69.5t-99.5 -56t-94 -41q-85 -33 -309 -100q-21 -39 -73 -130.5t-90.5 -162.5t-75.5 -142q-69 -132 -123 -153q-7 -2 -14 -6t-11 -6t-6 -2zM672 535q154 40 286 90q109 41 201 120.5t92 153.5q0 45 -29.5 79t-82.5 34q-209 0 -467 -477z" />
<glyph unicode="Q" horiz-adv-x="1040" d="M158 166q0 144 86 332q119 259 294.5 416t356.5 157q51 0 92 -17.5t68.5 -48.5t46 -73.5t27 -90.5t8.5 -102q0 -110 -60 -110q-18 0 -18 12l8 41q8 41 8 63q0 127 -59.5 208t-171.5 81q-148 0 -288 -134.5t-243 -354.5q-73 -155 -73 -305q0 -285 264 -285q92 0 190 55 q-33 70 -55.5 144t-31 134t-11 91t-2.5 51q0 8 30 35t44 27q6 0 6 -9q0 -2 -2 -31t-2 -53q0 -213 67 -358q115 86 185.5 201.5t121.5 287.5q3 10 22.5 45t25.5 35q4 0 4 -18q-17 -168 -113 -331t-227 -259q60 -110 131.5 -179t140.5 -69q36 0 69.5 8t58.5 20.5t46 27.5 t35.5 30t24.5 27.5t15 20.5l5 8q2 0 2 -5q0 -41 -48 -80.5t-112 -62t-116 -22.5q-159 0 -295 245q-40 -25 -72 -41t-87.5 -30.5t-113.5 -14.5q-125 0 -203.5 74.5t-78.5 206.5z" />
<glyph unicode="R" horiz-adv-x="1105" d="M311 -59q0 45 101 247l155 295q-35 49 -35 68q0 5 5.5 8.5t17 7t20.5 5.5t23.5 4.5t19.5 3.5q89 163 127 221q73 117 208 192.5t245 75.5q63 0 101 -33t38 -94q0 -188 -362 -305q-62 -20 -157 -43.5t-138 -36.5q-21 -42 -51 -96l221 -369q61 -108 116.5 -158.5 t129.5 -50.5q98 0 159 80q9 12 29 12q14 0 14 -6q0 -2 -2 -4q-100 -100 -231 -100q-136 0 -201 98q-42 63 -133.5 235.5t-124.5 225.5q-82 -140 -166 -303q-24 -45 -52 -110.5t-36 -100.5q-6 -21 -16 -21q-9 0 -12 19q-1 6 -7 16t-6 17zM580 535q2 -3 3.5 -7t4.5 -10 q1 4 14 25q-4 -2 -11 -4t-11 -4zM700 592q31 8 78 20t71 18t57.5 16t64.5 22q57 21 99 40.5t87 48t69.5 64.5t24.5 76q0 50 -34 88.5t-97 38.5q-67 0 -121.5 -26.5t-107 -94t-80 -112t-84.5 -150.5q-18 -32 -27 -49z" />
<glyph unicode="S" horiz-adv-x="1071" d="M303 74q0 124 117 270q2 2 4 2q9 0 29 -27t20 -40q0 -9 -4 -9q-68 -25 -94.5 -67t-26.5 -84q0 -70 69.5 -129.5t178.5 -59.5q61 0 129.5 27.5t127 74t96.5 116.5t38 147q0 55 -21 100t-55 76t-75.5 58t-82.5 53t-75 54.5t-55 69t-21 89.5q0 105 110.5 194.5t266.5 89.5 q56 0 108 -17t91 -59.5t39 -103.5q0 -17 -2 -29.5t-9 -28t-24.5 -24t-44.5 -8.5q-21 0 -21 12q0 6 2 10q15 35 15 66q0 38 -18 66t-48.5 43.5t-64 22.5t-70.5 7q-60 0 -127.5 -24t-119.5 -75t-52 -114q0 -39 23.5 -70t61 -53.5t82.5 -44.5t90 -48.5t82.5 -59t61 -84 t23.5 -115.5q0 -101 -51 -192t-128 -150.5t-164.5 -94t-164.5 -34.5q-92 0 -169 53t-77 144z" />
<glyph unicode="T" horiz-adv-x="692" d="M211 -74q0 19 18 43q220 289 336 514q5 11 39.5 78t44 86t36.5 76t39.5 90t30 82t29.5 94q-5 0 -98 -8t-141 -13t-125.5 -16t-128.5 -24l-10.5 -3.5t-14 -4.5t-8.5 -2q-6 0 -6 8q0 11 11.5 24t31.5 17q63 12 233 35.5t263 31.5q4 28 4 43q0 71 -48 122.5t-124 51.5 q-83 0 -156 -39q-4 -2 -10.5 -9t-28.5 -15q-20 -8 -27 -8q-20 0 -20 10q0 2 4 6q45 33 111.5 53.5t128.5 20.5q239 0 239 -213v-15q245 27 348 27q37 0 75 -5.5t59.5 -12.5t21.5 -11t-12 -4q-11 -1 -19.5 -2t-12.5 -1.5t-5 -0.5t-4.5 1t-16.5 2t-38 1q-63 0 -196.5 -14 t-209.5 -25q-50 -168 -231 -512q-71 -135 -213 -364q-19 -32 -46 -75t-44.5 -72t-26.5 -46q-1 -1 -3 -5.5t-3 -6.5t-3 -5.5t-4 -5.5l-4.5 -4.5t-5 -3.5t-6.5 -2t-8 -1q-17 0 -31 7.5t-14 24.5z" />
<glyph unicode="U" horiz-adv-x="1419" d="M485 -2q0 30 7 63.5t23.5 74.5t26.5 63.5t34 69.5t28 55q12 24 43.5 88.5t50 103.5t47.5 101t47 104.5t36.5 89.5t27 81.5t8.5 55.5q0 42 -21 66t-55 24q-21 0 -40 -8q-34 -14 -55.5 -27.5t-30.5 -22.5t-13 -11q-7 -2 -12.5 -7.5t-7.5 -5.5q-4 0 -4 5q0 3 6 12 q29 37 90 68.5t117 31.5q52 0 81 -32.5t29 -82.5q0 -22 -6 -43q-19 -82 -163 -359t-165 -329q-2 -6 -14.5 -36.5t-18.5 -46.5t-12 -43t-6 -48q0 -56 38 -90.5t97 -34.5q60 0 135 39t144 98t127 122t96 118l168 350q20 39 42.5 85t32.5 66.5t23 43t25 39.5q16 21 21.5 28 t21.5 14.5t39 8.5q8 0 8 -10q-1 -44 -107.5 -228t-152.5 -249q-12 -24 -44.5 -87t-44 -87t-30 -71t-31.5 -95q-20 -72 -20 -129q0 -44 20 -73.5t66 -29.5q92 0 154 82q9 12 28 12q15 0 15 -6q0 -2 -2 -4q-43 -43 -102.5 -71.5t-121.5 -28.5q-108 0 -108 112q0 84 63 232 q-49 -54 -85 -91.5t-94.5 -88t-109.5 -82t-116 -54t-127 -22.5t-104 32.5t-42 94.5z" />
<glyph unicode="V" horiz-adv-x="808" d="M215 -98q0 22 19.5 67t47 100t37.5 81q127 327 127 585q0 166 -51 246q-34 53 -65 53q-16 0 -27 -8l-16 -8q-11 0 -11 2q0 3 5 8q35 35 79 35q55 0 97 -47q61 -70 61 -262q0 -291 -153 -654q64 115 232.5 320.5t283.5 320.5q114 114 245.5 220t178.5 106q8 0 8 -4 q0 -6 -9 -14t-18 -11q-43 -12 -168 -114.5t-219 -202.5q-117 -126 -266.5 -314t-251.5 -346q-27 -41 -39 -60.5t-15 -24.5t-7 -14.5t-11 -22.5q-18 -25 -39.5 -42.5t-36.5 -17.5q-18 0 -18 23z" />
<glyph unicode="W" horiz-adv-x="1259" d="M100 -45q0 7 3 15t11.5 20.5t8.5 13.5q140 269 237 432q15 26 47 80.5t49.5 85t44.5 78t42 78.5t31 66t23 60.5t7 43.5q0 37 -26 37q-28 0 -70.5 -29.5t-65.5 -61.5q-11 -14 -18 -14q-10 0 -10 10q0 5 4 9q34 48 84.5 84t101.5 36q80 0 80 -67q0 -50 -84.5 -215 t-165.5 -299l-248 -404q42 42 98.5 91.5t130.5 107t147 95.5t122 38q48 0 61 -45q14 -53 23.5 -118t15 -105.5t16.5 -78.5t33 -55.5t60 -17.5q71 0 140 45t112 146q86 207 86 426q0 58 -9 121t-32 132t-56.5 123t-89 89.5t-124.5 35.5q-72 0 -125 -34q-15 -9 -27 -9 q-16 0 -16 11q0 13 20 24q62 31 152 31q117 0 201.5 -66.5t123.5 -166.5t39 -218q0 -53 -5.5 -112t-19 -129t-33.5 -135t-52.5 -127t-72.5 -107.5t-96 -74t-122 -29.5q-53 0 -91 17t-59 37.5t-35.5 68.5t-19 77.5t-11.5 96.5q-2 17 -3 26q-5 60 -39 60q-22 0 -58 -16.5 t-70 -37.5t-80 -55.5t-73 -56.5t-66.5 -54.5t-43.5 -35.5q-14 -11 -42 -36.5t-42 -35.5q-24 -16 -39 -16t-15 14z" />
<glyph unicode="X" horiz-adv-x="864" d="M41 -100q0 18 29 39q33 24 56.5 39.5t29 18.5t22 16t38.5 33.5t75 70.5q172 160 278 268q11 204 11 313q0 81 -5.5 136t-20 102.5t-43.5 70.5t-73 23q-54 0 -118.5 -51.5t-75.5 -120.5q0 -4 -4 -4q-7 0 -7 16q0 60 74 125.5t150 65.5q59 0 102.5 -26t67 -71.5t34.5 -98 t11 -113.5q0 -106 -13 -275q39 42 74.5 86.5t76.5 105t62 92.5t70 112t62 100l38 61q27 8 50 8q18 0 18 -6q0 -4 -12 -20q-58 -77 -143 -196t-156 -214t-144 -180q-4 -46 -4 -70q0 -134 37 -280q20 -83 67.5 -124.5t145.5 -41.5q35 0 66.5 15t51 30.5t25.5 15.5q5 0 5 -4 q0 -12 -26 -31.5t-70.5 -36t-88.5 -16.5q-69 0 -121 19.5t-93 64t-62 125t-21 195.5q0 33 2 49q-42 -44 -141 -135q-10 -9 -55 -52t-57 -54.5t-47.5 -44t-53.5 -48.5t-45.5 -39.5t-52.5 -42.5q-47 -35 -60 -37q-6 0 -11 5t-5 12z" />
<glyph unicode="Y" horiz-adv-x="1144" d="M-92 -850q0 56 22.5 111t66.5 104.5t89.5 90.5t111 84.5t109 69.5t105.5 62q11 6 16 9l346 202l66 129q9 19 54.5 103.5t49.5 93.5q-49 -54 -85 -91.5t-94.5 -88t-109.5 -82t-116 -54t-127 -22.5t-104 32.5t-42 94.5q0 30 7 63.5t23.5 74.5t26.5 63.5t34 69.5t28 55 q12 24 43.5 88.5t50 103.5t47.5 101t47 104.5t36.5 89.5t27 81.5t8.5 55.5q0 42 -21 66t-55 24q-22 0 -41 -8q-34 -14 -55 -27.5t-30 -22.5t-13 -11q-7 -2 -12.5 -7.5t-7.5 -5.5q-4 0 -4 5q0 3 6 12q29 37 89.5 68.5t116.5 31.5q52 0 81.5 -33t29.5 -82q0 -22 -6 -43 q-19 -82 -163 -359t-165 -329q-2 -6 -14.5 -36.5t-18.5 -46.5t-12 -43t-6 -48q0 -56 38 -90.5t97 -34.5q60 0 135 39t144 98t127 122t96 118l168 350q20 39 42.5 85t32.5 66.5t23 43t25 39.5q16 21 21.5 28t21.5 14.5t39 8.5q8 0 8 -10q-1 -44 -107.5 -228t-152.5 -249 q-14 -27 -81.5 -167t-107.5 -208l-86 -164q99 58 170 94q150 77 220 137q67 59 100 109q4 6 8 6t4 -4q0 -2 -2 -6q-58 -76 -122 -130t-165 -110l-227 -129q-130 -255 -270 -493q-37 -61 -82 -119t-106.5 -120t-135 -100t-145.5 -38q-83 0 -124.5 37.5t-41.5 101.5zM4 -858 q0 -100 94 -100q208 0 391 337q72 128 148.5 260.5t120.5 213.5l-303 -183q-55 -34 -108.5 -72t-118 -94t-112 -111.5t-80 -122.5t-32.5 -128z" />
<glyph unicode="Z" horiz-adv-x="919" d="M-485 -748q0 105 44.5 201t112.5 166.5t162.5 132t181.5 101t181 71.5q62 21 139 34.5t130 18t152 11.5q109 218 109 288q0 44 -21.5 76t-57.5 47.5t-70.5 22t-71.5 6.5h-14q-39 -34 -64.5 -55t-68 -44.5t-72.5 -23.5q-21 0 -21 12q0 31 75 75.5t122 51.5 q53 37 188.5 169t245 245t109.5 115q0 6 -13 6q-8 0 -86 -14.5t-133 -14.5q-64 0 -140 20t-129.5 40t-64.5 20q-18 0 -40 -15t-48 -46t-46 -57t-47.5 -69.5t-38.5 -61.5t-32 -54q-7 -12 -14 -12q-8 0 -8 12q0 6 2 8q9 13 39 60t57.5 86t61.5 82t66 68.5t57 25.5 q38 0 136.5 -29t159.5 -29q73 0 155.5 19.5t145 39t87.5 19.5q8 0 8 -6q0 -38 -72.5 -117.5t-164 -157.5t-210.5 -181t-178 -162h41q128 0 189 -32.5t61 -107.5q0 -56 -25.5 -123.5t-95.5 -191.5q181 39 305 147q69 61 101 109q4 6 8 6t4 -4q0 -2 -2 -6 q-80 -107 -178.5 -172.5t-247.5 -97.5q-152 -269 -371 -592q-32 -48 -52.5 -77t-57.5 -77.5t-66.5 -79t-72.5 -68t-82 -59t-87.5 -36.5t-97.5 -15q-123 0 -198.5 75t-75.5 201zM-406 -739q0 -101 65 -178.5t173 -77.5q28 0 57 8.5t52.5 18.5t52.5 34t47.5 39.5t47.5 50.5 t43 51.5t43 58.5t38.5 55.5t38.5 57.5q11 16 47.5 71t46 70.5t39.5 61.5t41.5 64t36 58t38.5 64.5t34.5 61t38 70.5t36.5 71q-15 -1 -62 -4.5t-62 -5t-52.5 -5t-56.5 -7t-49.5 -8.5t-56 -11.5t-52.5 -15.5q-117 -37 -225.5 -99.5t-199.5 -145t-145.5 -189t-54.5 -219.5z" />
<glyph unicode="[" horiz-adv-x="694" d="M20 -127q0 1 9 15t21.5 32.5t17.5 26.5q59 97 171 311.5t154 290.5l221 403q5 10 17 36.5t19 37t12 10.5q1 0 11 -1t27.5 -2.5t40.5 -3t56 -2.5t69 -1q10 0 35 1t45 1q12 0 12 -2q0 -16 -28 -16q-48 0 -86 -2t-86 -2q-11 0 -26.5 -13.5t-29.5 -40.5l-217 -387 q-42 -76 -152 -286.5t-169 -307.5q-19 -30 -19 -43q0 -26 56 -26q17 0 46 -1t44 -1q13 0 39 1t39 1q39 0 39 -11q0 -3 -5.5 -7.5t-11.5 -4.5q-38 0 -104 1t-94 1q-59 0 -84 -2q-64 -8 -76 -8q-13 0 -13 2z" />
<glyph unicode="\" horiz-adv-x="755" d="M356 1120q0 10 19 10q24 0 33 -24l444 -1415q4 -12 4 -17q0 -8 -10 -8q-25 0 -33 25l-448 1401q-9 27 -9 28z" />
<glyph unicode="]" horiz-adv-x="722" d="M152 -117q0 6 8.5 10.5t19.5 4.5q48 0 86 2t86 2q11 0 26.5 13t29.5 40l217 387q42 76 152 286.5t169 307.5q19 30 19 43q0 27 -56 27q-19 0 -53 1t-53 1q-11 0 -40 -1t-40 -1q-18 0 -18 14q0 8 14 8q40 0 107 -1t94 -1q56 0 81 2q64 8 78 8q11 0 11 -4q0 -1 -9.5 -14 t-21.5 -31t-17 -26q-59 -97 -170.5 -311.5t-154.5 -291.5l-221 -403q-6 -12 -17.5 -37t-18 -36t-11.5 -11q-1 0 -49.5 2t-114 4t-107.5 2q-26 0 -26 4z" />
<glyph unicode="^" horiz-adv-x="792" d="M346 545q0 4 12 22q35 59 84 170q55 116 78 181q2 4 15 13t20 9q3 0 10 -10q15 -22 95.5 -150t123.5 -190q11 -14 11 -23q0 -7 -10.5 -15t-12.5 -13q-6 -11 -10 -11q-12 0 -35 37q-29 49 -74 123.5t-79 129t-35 54.5q-6 0 -19 -20q-77 -146 -127 -301q-3 -10 -33 -10 q-14 0 -14 4z" />
<glyph unicode="_" horiz-adv-x="927" d="M2 -43q0 11 20 24t37 13q230 4 392 4q22 0 139 -2t246 -2q12 0 12 -14q0 -16 -9.5 -26t-28 -14t-32.5 -5t-37 -1q-8 0 -43.5 3.5t-137.5 7.5t-269 4q-40 0 -126.5 -1t-141.5 -1q-21 0 -21 10z" />
<glyph unicode="`" horiz-adv-x="471" d="M147 764q0 13 6.5 26t14.5 13q9 0 14 -10l88 -213q1 -3 3.5 -8t5 -9.5t2.5 -5.5q0 -2 -2 -2q-11 0 -15 8q-22 36 -45 75t-38 64t-31 50q-3 3 -3 12z" />
<glyph unicode="a" horiz-adv-x="659" d="M94 104q0 76 54.5 162.5t139.5 146.5t165 60q96 0 133 -106q24 0 24 -15q0 -10 -2 -20t-4 -18.5t-7 -18.5l-8 -16t-10.5 -16.5t-11 -15t-13 -15t-12 -13.5t-13 -14t-11.5 -12q-6 -5 -17 -15.5t-20 -19.5q-32 -62 -32 -88q0 -43 65 -43q80 0 217 118q67 59 100 109 q4 6 9 6q4 0 4 -4q0 -2 -2 -6q-56 -73 -111 -122t-127 -91q-85 -49 -151 -49q-82 0 -82 65q0 13 2 19q-109 -72 -191 -72q-45 0 -66.5 29t-21.5 75zM178 106q0 -71 55 -71q57 0 144 57q23 81 86 166q65 91 112 107q-14 37 -45 60.5t-73 23.5q-64 0 -130.5 -57.5t-107.5 -138 t-41 -147.5zM496 186l18 19q26 28 40 43.5t29 43.5t15 52q0 12 -2 12t-6 -4q4 -12 4 -22q0 -2 -2 -2l-8 16q-11 -16 -32 -50l-20 -34q-30 -63 -36 -74z" />
<glyph unicode="b" horiz-adv-x="602" d="M123 406q0 3 37 28q43 27 194 137q219 372 221 375q132 235 229.5 347.5t229.5 160.5q19 8 39 8q47 0 47 -63q0 -227 -409 -574q-36 -31 -74 -60t-100.5 -75t-83.5 -61l-134 -240q38 40 112.5 80.5t154.5 40.5q92 0 92 -84q0 -106 -63 -203t-162 -176q-86 -67 -174 -67 q-59 0 -96.5 44t-39.5 111q0 60 29 117q25 51 168 295q-200 -141 -205 -144q-4 -2 -8 -2t-4 5zM231 172q0 -62 30.5 -101.5t76.5 -39.5q66 0 135.5 58t112.5 136.5t43 141.5q0 57 -19.5 80.5t-58.5 23.5q-49 0 -130 -35.5t-118 -75.5q-6 -11 -20.5 -37t-20.5 -38.5 t-15 -33.5t-12.5 -40t-3.5 -39zM469 657q94 71 223 183q50 45 107 109t113.5 140.5t93 158.5t36.5 145q0 32 -20 32q-30 0 -87 -60t-124 -156t-116 -172t-95 -152q-20 -30 -131 -228z" />
<glyph unicode="c" d="M61 82q0 100 81 205.5t182 165.5q48 26 86 26q30 0 47.5 -15t17.5 -44q0 -25 -6 -35q-10 -16 -31 -28.5t-43 -12.5q-18 0 -18 10q0 1 17.5 30.5t17.5 49.5q0 8 -6.5 13.5t-16.5 5.5q-57 0 -111.5 -63.5t-91.5 -139.5q-32 -66 -32 -137q0 -103 102 -103q106 0 260 135 q67 59 100 109q4 6 9 6q4 0 4 -4q0 -2 -2 -6q-115 -148 -275 -230q-74 -36 -151 -36q-56 0 -98 22.5t-42 75.5z" />
<glyph unicode="d" horiz-adv-x="698" d="M74 104q0 72 51.5 159t133.5 149.5t157 62.5q76 0 127 -67l200 403q98 194 142 265q115 185 248 265q37 21 57 21q33 0 33 -51q0 -116 -60.5 -240.5t-165.5 -275.5q-72 -104 -243 -312t-258 -295q-21 -55 -21 -96q0 -65 72 -65q87 0 223 118q67 59 100 109q4 6 9 6 q4 0 4 -4q0 -2 -2 -6q-56 -73 -111 -122t-127 -91q-77 -45 -139 -45q-44 0 -70 24t-26 64q0 11 4 31q-64 -51 -103 -68q-88 -43 -143 -43q-42 0 -67 29t-25 75zM162 92q0 -27 10 -42t41 -15t90.5 27t112.5 69q13 50 49 119l72 145q-40 56 -107 56q-62 0 -127.5 -71 t-99.5 -140q-41 -81 -41 -148zM508 219q108 118 255.5 305t215.5 301q62 105 132.5 261.5t70.5 218.5q0 28 -19 28q-36 0 -88.5 -56.5t-105.5 -143.5t-91.5 -158.5t-68.5 -132.5l-238 -492l2 -8q2 -8 2 -12t-2 -4q-1 0 -2 3t-2 7t-2 6q-55 -112 -59 -123z" />
<glyph unicode="e" d="M27 102q0 5 2 7q9 9 45 36q62 196 250 308q44 24 73 24q24 0 39 -13t15 -28q0 -8 -3.5 -16.5t-12.5 -17.5l-14.5 -14.5t-18.5 -16t-17 -13.5q-7 -7 -219 -159q-12 -41 -12 -84q0 -105 94 -105q109 0 268 135q67 59 100 109q4 6 9 6q4 0 4 -4q0 -2 -2 -6 q-115 -148 -275 -230q-77 -36 -155 -36q-55 0 -95.5 22t-40.5 74q0 10 9 51q-6 -4 -16 -12.5t-17 -14.5t-8 -6q-2 0 -2 4zM174 221q132 94 182 144q58 58 58 86q0 12 -13 12q-12 0 -28 -8q-62 -26 -117 -94t-82 -140z" />
<glyph unicode="f" horiz-adv-x="413" d="M-905 -913q0 64 38 142t93 148.5t145 157.5t164 150t182.5 146t167.5 125.5t150 106.5q9 6 31.5 23t33.5 25l72 143q111 226 256 490.5t256 435.5q3 5 25.5 39.5t30.5 46.5t31.5 46t36.5 50t38 45.5t42.5 44.5t43.5 36t48 31t48.5 17.5t52.5 7.5q46 0 68 -37t22 -84 q0 -42 -33 -110t-75 -92q-4 -2 -6 -2t-2 4l6 7q6 8 18 27.5t23 45.5q14 38 14 81q0 91 -84 91q-149 0 -332 -345l-479 -935q282 197 352 239q4 2 9 2q4 0 4 -4t-37 -29q-84 -51 -344 -241q-218 -404 -420.5 -766t-245.5 -414q-74 -89 -174.5 -148t-140.5 -59q-37 0 -64 32 t-40 83t-19 100t-6 97zM-840 -918q0 -26 5 -64t16.5 -83.5t35 -77t54.5 -31.5q44 0 128.5 64.5t123.5 126.5q85 131 276.5 514t278.5 537q-249 -182 -328 -254q-18 -17 -82 -71t-122.5 -105t-132 -125.5t-126.5 -142t-90 -145t-37 -143.5z" />
<glyph unicode="g" horiz-adv-x="561" d="M-764 -764q0 75 28.5 147.5t75.5 132t115 117t138.5 102.5t155 88t155 73t147.5 59q15 6 29 6q16 0 16 -6q0 -1 -6 -4q-71 -23 -150 -58t-168 -83.5t-168.5 -109.5t-144 -128t-103 -147.5t-38.5 -161.5q0 -105 66 -181.5t172 -76.5q64 0 131 36.5t123 95.5t100 119.5 t78 122.5q233 422 481 807q-40 -43 -95 -85t-89 -58q-88 -43 -148 -43q-43 0 -64.5 29t-21.5 77q0 63 45 148t133.5 153t159.5 68q104 0 166 -135l6 12q7 15 14 19.5t15 6t14 5.5q2 2 6 2q2 0 2 -4q0 -8 -6 -14q-5 -5 -37 -62q6 -12 6 -20q0 -6 -4 -6l-8 16q-3 -6 -7 -14.5 t-6.5 -14t-4.5 -8.5q-35 -65 -69.5 -126.5t-59 -106.5t-62 -109t-54.5 -93.5t-61 -104t-58 -97t-69 -115t-71 -118.5q-44 -74 -99 -142t-123.5 -131t-150.5 -101t-162 -38q-111 0 -190.5 73.5t-79.5 186.5zM139 84q0 -21 12.5 -35t36.5 -14q29 0 76 20q43 18 83 45.5t63 49 t67 65.5q27 27 72 115q-15 26 -27 43.5t-30.5 38t-41.5 31t-49 10.5q-59 0 -122.5 -71.5t-98.5 -141.5q-41 -81 -41 -156z" />
<glyph unicode="h" horiz-adv-x="657" d="M49 6q0 6 2 10q86 175 121 238q63 121 162 289q-196 -138 -199 -140q-4 -2 -8 -2t-4 5q0 3 37 28q48 30 192 135q217 368 223 379q128 232 226.5 344.5t232.5 161.5q19 8 39 8q47 0 47 -63q0 -227 -409 -574q-36 -31 -74 -60t-100.5 -75t-83.5 -61l-150 -262 q-8 -16 -8 -17q0 -2 2 -2q4 0 18 14q68 67 142.5 112.5t126.5 45.5q32 0 52.5 -23.5t20.5 -60.5q0 -35 -26.5 -85.5t-57.5 -94t-57.5 -98t-26.5 -97.5q0 -34 31 -34q34 0 96 37t113 81q67 59 100 109q4 6 9 6q4 0 4 -4q0 -2 -2 -6q-56 -73 -111 -122t-127 -91 q-77 -45 -127 -45q-69 0 -69 76q0 37 19.5 79t61.5 107q4 6 25 37t34.5 52.5t26.5 48t13 40.5q0 19 -12 33t-33 14q-54 0 -147.5 -81.5t-129.5 -135.5q-115 -171 -131 -256q-2 -8 -16 -8q-25 0 -39 -4q-4 -2 -10 -2q-19 0 -19 14zM469 657q94 71 223 183q94 84 156.5 164 t124.5 190q30 52 49.5 108t19.5 91q0 32 -20 32q-95 0 -422 -540q-20 -30 -131 -228z" />
<glyph unicode="i" horiz-adv-x="382" d="M90 68q0 37 20 78.5t62 107.5q78 115 78 152q0 13 -12.5 22.5t-26.5 9.5q-11 0 -22.5 -4t-17 -7t-19 -12.5t-17.5 -11.5t-8 -2t-4 5q0 3 37 28t86 25q33 0 49 -13t16 -45q0 -24 -21.5 -67.5t-48 -84.5t-48 -89t-21.5 -80q0 -53 72 -53q38 0 98 36.5t113 81.5 q67 59 100 109q4 6 8 6t4 -4q0 -2 -2 -6q-56 -74 -110.5 -122.5t-126.5 -90.5q-77 -45 -144 -45q-43 0 -68.5 20.5t-25.5 55.5zM358 684q0 23 20 47.5t44 24.5q12 0 21.5 -11t9.5 -26q0 -24 -18.5 -48t-43.5 -24q-15 0 -24 10t-9 27z" />
<glyph unicode="j" horiz-adv-x="356" d="M-1051 -762q0 109 43 209.5t111.5 176.5t161 141t183 108t185.5 74q80 26 162 33.5t242 7.5q25 47 73.5 144t61.5 122q66 129 66 162q0 14 -31 14q-42 0 -72 -27l-4 -2q-2 0 -2 2t2.5 7t10 12t18.5 12q18 9 71 16t74 7q25 0 25 -21q0 -12 -25 -69q-58 -123 -88 -179 l-106 -192q56 10 106 29q125 46 211 120q67 59 100 109q4 6 9 6q4 0 4 -4q0 -2 -2 -6q-113 -149 -279 -223q-64 -29 -158 -47l-348 -592q-36 -60 -74 -113t-91 -110t-108 -97t-123 -66t-138 -26q-112 0 -191.5 74.5t-79.5 187.5zM-969 -735q0 -106 66 -183t176 -77 q62 0 128.5 37t122.5 96.5t99.5 119.5t77.5 121l326 590h-62q-68 0 -111 -2t-103 -11t-111 -26q-109 -36 -215 -101t-195 -150t-144 -194t-55 -220zM340 684q0 23 19.5 47.5t43.5 24.5q12 0 21.5 -11t9.5 -26q0 -24 -18 -48t-43 -24q-15 0 -24 10t-9 27z" />
<glyph unicode="k" horiz-adv-x="638" d="M41 12q0 4 10 21q9 20 26.5 52t46 81.5t48.5 87.5q-22 34 -37 53q-10 10 -10 15q0 2 6 2q8 0 27 -3.5t32 -3.5q3 0 9.5 1t9.5 1l131 228q-187 -132 -199 -139q-4 -2 -8 -2t-4 4q0 3 37 28q40 25 188 133q219 372 221 375q132 235 229.5 347.5t229.5 160.5q19 8 39 8 q47 0 47 -63q0 -227 -409 -574q-36 -31 -74 -60t-100.5 -75t-83.5 -61l-134 -240q-14 -22 -32 -57q56 13 115.5 37.5t131.5 59.5t91 44q40 18 50 32.5t19 18.5q10 5 25 14t25.5 15t13.5 6l2 -2q0 -25 -41 -59t-74 -47q-9 -4 -97 -41t-153 -60.5t-119 -36.5q-20 -37 -43 -80 q56 -60 97 -122q65 -99 141 -99q30 1 62.5 13t69 37t55 39t53.5 44q67 59 100 109q4 6 8 6t4 -4q0 -2 -2 -6q-54 -71 -108.5 -118.5t-128.5 -94.5q-91 -57 -148 -57q-53 0 -91.5 30t-70.5 86q-42 71 -61 99q-77 -141 -90 -175q-8 -16 -31 -16q-4 0 -17 -4t-20 -4 q-14 0 -14 16zM164 301q0 -2 22 -20q2 3 6.5 10t6.5 10q-6 0 -19 1l-14 1q-2 0 -2 -2zM469 657q94 71 223 183q94 84 156.5 164t124.5 190q30 52 49.5 108t19.5 91q0 32 -20 32q-4 0 -16 -4q-32 -14 -86 -75t-115 -148.5t-109.5 -162t-95.5 -150.5q-20 -30 -131 -228z" />
<glyph unicode="l" horiz-adv-x="399" d="M68 76q0 12 2 24.5t7.5 27.5t8.5 23.5t13.5 27t13 23.5t16 27.5t14.5 24.5l174 276q-170 -120 -182 -127q-4 -2 -8 -2t-4 5q0 3 37 28q61 38 172 119q24 41 118.5 191.5t124.5 201.5q58 98 96 158t84.5 123.5t86.5 102.5t88.5 71.5t103.5 52.5q19 8 39 8q47 0 47 -63 q0 -227 -409 -574q-28 -24 -66.5 -54t-65.5 -50t-77.5 -57.5t-69.5 -51.5l-160 -258q-127 -219 -127 -284q0 -26 16.5 -45t43.5 -19q102 0 266 139q67 59 100 109q4 6 9 6q4 0 4 -4q0 -2 -2 -6q-56 -73 -111 -122t-127 -91q-105 -60 -182 -60q-45 0 -69.5 25t-24.5 74z M446 639q112 85 246 201q51 46 107.5 110t113 141t93 158.5t36.5 143.5q0 32 -20 32q-95 0 -422 -540z" />
<glyph unicode="m" horiz-adv-x="657" d="M41 10q0 13 6 19q11 12 32 50.5t49 92.5t44 82q7 13 23.5 41t23.5 41t17 32t14 32t4 22q0 11 -8.5 20t-20.5 9q-21 0 -90 -48q-4 -2 -8 -2t-4 5q0 3 37 28q64 41 90 41q61 0 61 -51q0 -32 -39 -96q-4 -6 -4 -11q3 0 8 5q112 112 177 112q30 0 30 -53q0 -45 -22 -82 q-4 -4 0 -4q2 0 6 4q38 35 94.5 74t95.5 55q35 12 60 12q53 0 53 -47q0 -41 -43 -98q-48 -62 -90 -142.5t-64 -144.5q-28 -82 -28 -153q0 -80 40.5 -142.5t119.5 -62.5q47 0 112 33.5t115 76.5q67 59 100 109q4 6 8 6t4 -4q0 -2 -2 -6q-55 -73 -109 -118.5t-128 -84.5 q-64 -35 -129 -35q-86 0 -142.5 60.5t-56.5 154.5q0 85 25 162q8 23 17 46.5t20.5 48t19.5 41t23 42.5t20.5 35.5t21.5 36.5t17 29q35 61 35 82q0 22 -25 22q-4 0 -24 -4q-35 -9 -89 -50t-87 -81q-41 -53 -89 -53q-6 0 -6 6q0 2 1 6.5t1 7.5q0 5 7.5 6t11.5 6q1 2 3.5 9 t4.5 12q1 2 8 16.5t12 26t10 28.5t5 29q0 27 -17 27q-43 0 -145 -109q-19 -21 -53 -84.5t-62 -120t-30 -59.5q-11 -14 -43 -14q-29 0 -29 18z" />
<glyph unicode="n" horiz-adv-x="593" d="M37 18q0 9 29 54q55 88 106 182l27 49q27 49 41 80.5t14 48.5q0 8 -7 14.5t-16 6.5q-24 0 -96 -50q-4 -2 -8 -2t-4 5q0 3 37 28q64 41 104 41q49 0 49 -43q0 -37 -41 -113q103 74 168 109q73 35 103 35q35 0 35 -39q0 -14 -3 -30t-11 -35.5t-13.5 -34t-18 -37.5 t-18 -32.5t-19.5 -33.5t-16 -28q-69 -127 -69 -166q0 -21 22 -21q39 0 103 40.5t120 90.5q92 88 111 117q4 6 8 6t4 -4q0 -2 -2 -6q-106 -140 -252 -232q-85 -53 -133 -53q-51 0 -51 47q0 19 9 47.5t18.5 49t24.5 50t18 36.5q8 15 32 58t40 78t22 68q0 25 -15 25 q-21 0 -77 -29q-25 -12 -85.5 -53.5t-66.5 -50.5q-1 -3 -14.5 -27.5t-26 -47t-12.5 -23.5l-72 -134q-31 -51 -41 -77q-6 -11 -12 -11q-13 0 -29 17.5t-16 29.5z" />
<glyph unicode="o" horiz-adv-x="536" d="M63 86q0 85 46 169.5t125 140t165 57.5q2 25 15.5 50t38.5 25q18 0 32 -26q25 -55 25 -109q0 -26 -6 -47q4 -2 20 -2q31 0 90 35q10 6 44.5 29.5t37.5 25.5q4 2 9 2q4 0 4 -4t-37 -29q-71 -45 -74 -47q-49 -23 -98 -26q-27 -104 -117 -221q-98 -127 -207 -127 q-49 0 -81 26.5t-32 77.5zM139 80q0 -28 14.5 -51t45.5 -23q38 0 88 34.5t98 98.5q70 95 96 193q-54 10 -75 57q-7 18 -7 39q-79 0 -139 -65t-90 -148q-31 -91 -31 -135zM455 412q0 -38 32 -58q7 31 7 52q0 14 -7.5 47.5t-15.5 33.5t-12 -16t-4 -29q6 -2 12 -8t6 -12 q0 -4 -5 -8t-7 -4q-1 0 -3 1t-3 1z" />
<glyph unicode="p" horiz-adv-x="536" d="M-686 -1090q0 11 34.5 66.5t59.5 83.5q5 6 28 22.5t55 51.5t69 96l321 537l256 444q33 61 33 123q-3 37 -41 61q-8 3 -8 8q0 1 4 5q12 7 28 20.5t23 15.5h4q17 0 27 -30t10 -60q0 -48 -35 -116q92 102 188 173.5t152 71.5q35 0 53.5 -26.5t18.5 -63.5q0 -31 -14 -59 q-22 -38 -81 -91.5t-104 -86.5q-166 -118 -329 -133q42 -33 127 -33q97 0 206 37q121 43 209 118q69 61 101 109q4 6 8 6t4 -4q0 -2 -2 -6q-59 -78 -111.5 -125.5t-126.5 -87.5q-153 -84 -291 -84q-95 0 -149 37q-7 -13 -23 -40.5t-24 -43.5q-216 -392 -459 -791 q-37 -59 -114 -136.5t-101 -78.5q-6 0 -6 10zM72 41q79 3 178.5 57t181.5 142q74 85 74 145q0 18 -9 36.5t-26 18.5q-38 0 -137 -82q-59 -48 -174 -163q-36 -66 -88 -154z" />
<glyph unicode="q" horiz-adv-x="708" d="M-276 -952q0 41 69 126.5t131 147.5q115 115 162 189q28 43 135 199t200 297t128 208q-29 -43 -91 -97t-98 -75q-78 -45 -135 -45q-42 0 -71 28.5t-29 73.5q0 65 47 154q45 86 134.5 153.5t160.5 67.5q45 0 67.5 -24.5t22.5 -65.5q0 -29 -12 -63q-1 -4 -7.5 -8.5 t-11.5 -4.5q-10 0 -10 10q0 6 12.5 35.5t12.5 48.5q0 22 -19.5 36t-44.5 14q-32 0 -67.5 -23.5t-66 -59t-53 -69t-36.5 -61.5q-43 -82 -43 -146q0 -25 14.5 -42t40.5 -17q27 0 74 20q50 22 112.5 83t100.5 141q4 8 9.5 24t9.5 27t6 12q16 8 45 8q21 0 36 -6t15 -16 q0 -9 -4 -13q-69 -88 -123 -170l-338 -514q168 155 303 277t189.5 171t76.5 71q101 101 103 104q4 6 8 6t4 -4q0 -2 -2 -6q-27 -36 -69.5 -79.5t-75 -73t-109 -98t-115.5 -103.5q-103 -94 -150.5 -138t-121.5 -116.5t-107 -114.5q-52 -64 -141 -193.5t-117 -164.5 q-123 -164 -131 -164q-10 0 -20 16.5t-10 26.5z" />
<glyph unicode="r" horiz-adv-x="415" d="M43 2q0 6 4.5 17t16 32.5t18.5 34.5q44 86 90 168q55 106 72 123q24 28 75 49q82 35 160 35q31 0 60.5 -9.5t29.5 -29.5q0 -7 -18 -19l-45 -30q-9 -6 -12 -6q-2 0 -2 2q0 5 12 20q8 8 8 25q0 14 -12.5 22t-30.5 8q-44 0 -92 -24q-31 -14 -88 -103q-22 -33 -81 -134.5 t-87 -153.5q-3 -6 -7.5 -13.5t-6.5 -11t-4.5 -8t-4 -6.5t-3.5 -4t-4 -2.5t-4.5 -1t-6.5 -0.5q-37 0 -37 20z" />
<glyph unicode="s" horiz-adv-x="471" d="M18 31q0 13 27.5 49.5t36.5 36.5q2 0 2 -4q0 -2 -1 -10.5t-1 -16.5q0 -40 22 -69t64 -29q85 0 201 133q100 114 100 223q0 96 -53 96q-67 0 -170 -112q-30 -32 -64 -78q-4 -6 -8 -6t-4 4q0 2 2 6q36 47 66 80q68 74 114 102q54 31 90 31q48 0 76.5 -36.5t28.5 -88.5 q0 -120 -146 -250q-139 -121 -243 -121q-41 0 -90 17t-50 43z" />
<glyph unicode="t" horiz-adv-x="382" d="M113 88q0 63 59 166q94 168 104 184q-19 -4 -42 -9t-40 -8.5t-20 -4.5q-27 -6 -39 -6q-6 0 -6 2q0 3 5.5 7t14 8.5t11.5 6.5q22 16 135 31l178 297q39 63 84 63q14 0 14 -8q0 -7 -36 -63q-115 -177 -170 -279q31 4 71.5 11.5t72 13.5t32.5 6h8q6 0 6 -2q0 -6 -15 -15.5 t-22 -9.5q-32 0 -164 -26q-48 -77 -108 -205q-56 -122 -56 -164q0 -24 17 -38.5t47 -14.5q69 0 201 114q67 59 100 109q4 6 8 6t4 -4q0 -2 -2 -6q-56 -74 -110.5 -122.5t-126.5 -90.5q-80 -45 -129 -45q-38 0 -62 27t-24 69z" />
<glyph unicode="u" horiz-adv-x="589" d="M102 70q0 55 70 184q4 8 26.5 41t37 61.5t14.5 46.5q0 17 -13 26t-24 9q-27 0 -78 -35q-4 -2 -8 -2t-4 5q0 3 37 28q39 25 86 25q29 0 50 -12t21 -39q0 -21 -10 -48t-19.5 -43.5t-30.5 -50t-26 -41.5q-63 -107 -63 -166q0 -18 12 -28.5t33 -10.5q40 0 92.5 35t93.5 80 q19 50 78 164q17 31 27 47.5t29 41.5t38 40q15 10 35 10q19 0 19 -12q0 -38 -107 -162q-25 -46 -39.5 -77t-28.5 -77.5t-14 -86.5q0 -25 17 -25q9 0 25 8t40.5 26t37.5 28t42 34l29 23q60 49 82 73q25 27 53 64q4 6 8 6t4 -4q0 -2 -2 -6q-12 -18 -45 -55q-34 -37 -101 -95.5 t-116 -93.5q-54 -41 -88 -41q-47 0 -47 58q0 27 14 81q-43 -37 -64.5 -54t-65 -38.5t-81.5 -21.5q-34 0 -55 22.5t-21 57.5zM539 307q3 3 11 12.5t12 14t11 14t11 16t8 15.5t6 17.5t2 17.5q-5 0 -31.5 -49t-29.5 -58z" />
<glyph unicode="v" horiz-adv-x="403" d="M94 10q0 16 5 38.5t14.5 51.5t18 50.5t22 55.5t18.5 48q3 7 15.5 37t19.5 47.5t13.5 40.5t6.5 37q0 10 -6 16t-14 6q-7 0 -13.5 -1.5t-11.5 -3.5t-12.5 -6.5t-11.5 -7t-12 -8.5t-11 -8q-4 -2 -8 -2t-4 5q0 3 37 28q45 29 90 29q25 0 37 -17t12 -40q0 -44 -55 -164 q-53 -116 -66 -150q197 254 275 322q124 110 202 151q38 19 43 19q4 0 4 -6q0 -3 -40 -27q-69 -40 -179 -137q-70 -62 -176 -197l-117 -158q-69 -84 -81 -84q-6 0 -10.5 12.5t-4.5 22.5z" />
<glyph unicode="w" horiz-adv-x="649" d="M57 20q0 13 6 32.5t13 36.5t21 44.5t22 41.5t25 43.5t20 35.5q9 16 38 59.5t50.5 79.5t21.5 51q0 17 -16 17q-42 0 -123 -58q-4 -2 -8 -2t-4 5q0 3 37 28q26 18 62.5 33.5t56.5 15.5q27 0 43 -15.5t16 -45.5q0 -19 -12 -42t-40 -63t-42 -63q-70 -113 -101 -166 q-8 -16 -8 -18l6 6q49 51 138.5 124.5t130.5 73.5q53 0 53 -165v-21q0 -86 47 -86q33 0 69 37t46 88q6 41 6 78q0 64 -21 145q-9 31 -35 60.5t-30 52.5q0 31 51 31q22 0 27 -5q1 -1 3 -16.5t9.5 -37.5t21.5 -38q16 -22 43 -22q14 0 47.5 19t61.5 40q4 2 8 2t4 -4t-37 -29 q-4 -3 -29.5 -19.5t-42.5 -25t-28 -8.5q-10 0 -22 6q16 -47 16 -118q0 -44 -6 -78q-15 -77 -71 -131t-120 -54q-37 0 -56.5 18t-23.5 40t-4 59q0 135 -26 135q-19 0 -94 -60t-115 -97q-8 -8 -20.5 -20t-21 -20.5t-17.5 -17t-16.5 -12.5t-12.5 -4q-6 0 -8 2q-9 6 -9 22z" />
<glyph unicode="x" horiz-adv-x="438" d="M-354 -412q0 2 4 6q34 25 83.5 59t93 66.5t97.5 77.5q46 39 131 122t121 126l43 55q-77 144 -113 285q-4 16 -4 23q0 10 9 22q10 12 31 26.5t32 14.5q9 0 11.5 -9.5t2.5 -35.5q0 -77 29 -166q30 -99 35 -113q28 41 57 87t56 90.5t36 58.5q28 45 31 47q24 6 35 6q6 0 6 -4 t-4 -8q-15 -18 -59.5 -88.5t-59.5 -91.5q-80 -112 -86 -121q37 -86 82 -86q19 0 69.5 33t96.5 75q67 59 100 109q4 6 9 6q4 0 4 -4q0 -2 -2 -6q-50 -66 -91 -107q-37 -37 -89.5 -78t-84.5 -59q-24 -12 -43 -12q-36 0 -61 45l-23 41q-13 -17 -47 -55q-104 -122 -225 -236 q-23 -22 -63 -60t-63 -59.5t-55.5 -50t-60.5 -49.5q-4 -3 -13 -11t-17 -13t-13 -5q-10 0 -12 10q-1 3 -5.5 11t-7.5 15t-3 11z" />
<glyph unicode="y" horiz-adv-x="641" d="M-532 -1014q0 50 26.5 107t62 103t90 100t90 83.5t84 68.5t52.5 42l369 303q83 152 139 244q-57 -41 -139 -41q-52 0 -83.5 28t-31.5 80q0 65 45 150q10 18 34.5 53.5t41 62t16.5 36.5q0 12 -11 20t-20.5 10t-17.5 2q-9 0 -17 -1.5t-18.5 -7t-13.5 -7t-17 -10.5l-14 -9 q-4 -2 -8 -2t-4 5q0 3 37 28t88 25q27 0 52.5 -18.5t25.5 -45.5q0 -15 -15 -42.5t-36.5 -60t-28.5 -48.5q-45 -88 -45 -148q0 -76 61 -76q38 0 79 18t65 48q23 29 68 104t67 121q9 19 17.5 43t12.5 33.5t13.5 17.5t25.5 9q40 4 45 4q7 0 7 -2q0 -3 -3 -6l-86 -134 q-43 -71 -159 -247q-39 -58 -119 -193q58 46 174 128.5t158 113.5q98 73 135 112q22 25 51 64q4 6 8 6t4 -4q0 -2 -2 -6q-33 -46 -53 -66q-4 -4 -13.5 -14t-16.5 -16.5t-22 -19.5t-40.5 -32.5t-61.5 -46.5q-22 -16 -93.5 -68.5t-134 -100t-118.5 -93.5l-336 -569 q-32 -55 -56 -94t-63.5 -96t-72 -92.5t-71 -62t-70.5 -26.5q-58 0 -95.5 35.5t-37.5 97.5zM-467 -1014q0 -41 24.5 -69.5t63.5 -28.5q27 0 70 41t89 105t82 120t66 109l291 487l-278 -237q-5 -4 -52 -42.5t-84 -70t-91.5 -86.5t-90.5 -104t-63 -109.5t-27 -114.5z" />
<glyph unicode="z" horiz-adv-x="610" d="M-403 -655q0 56 38 120q162 288 474 426q19 9 311 105q22 51 22 88q0 36 -19.5 47.5t-55.5 11.5h-33q-56 -50 -80 -57q-10 -4 -23 -4q-10 0 -10 6t8 14q18 18 44 32.5t46 17.5q6 6 39.5 35.5t60 54t59.5 56t56.5 57.5t32.5 42q4 8 4 11q0 4 -8 4q-5 0 -36.5 -6.5 t-53.5 -6.5q-20 0 -62.5 7.5t-66.5 7.5q-31 0 -55 -21q-22 -18 -63 -78.5t-44 -64.5q-6 -6 -8 -6q-4 0 -4 4q0 2 2 6q73 121 102 147q19 17 36.5 24t47.5 7q13 0 45.5 -4t53.5 -4q37 0 107.5 21.5t90.5 21.5q4 0 4 -4q0 -6 -18 -33q-26 -41 -150 -147t-145 -127 q100 0 127 -25q21 -21 21 -53q0 -25 -13 -62q51 18 103 52q66 48 98 79q86 86 100 107q4 6 9 6q4 0 4 -4q0 -2 -2 -6q-98 -130 -205 -199q-68 -41 -113 -55q-31 -97 -135 -279q-86 -154 -167.5 -238t-188.5 -155q-60 -40 -131 -64t-129 -24q-53 0 -90 27t-37 82zM-389 -670 q0 -36 32 -59t72 -23q70 0 162 41q81 37 163 117t155 188q150 220 217 379q-259 -82 -265 -84q-154 -64 -259 -152t-193 -220q-84 -125 -84 -187z" />
<glyph unicode="{" horiz-adv-x="544" d="M104 -90q0 30 6.5 57.5t25.5 62.5t34.5 60t52.5 80t62 94q73 116 73 162q0 20 -12.5 34.5t-34.5 14.5q-19 0 -43.5 -6t-29.5 -6q-23 0 -23 12q0 6 13 20.5t20 14.5q1 0 8 -1t14 -1q26 0 61 12.5t58 34.5q54 50 99 117.5t93.5 152.5t82.5 133q26 36 74 57t100 21 q23 0 58.5 -9t35.5 -17q0 -6 -12 -6l-6 2q-7 1 -17 3.5t-21 5t-23.5 4t-21.5 1.5q-69 0 -114 -62q-29 -42 -58.5 -102.5t-49.5 -104.5t-63 -98.5t-104 -97.5q-52 -35 -94 -53q-8 -3 -8 -8q0 -4 12 -9q26 -9 43 -36t17 -64q0 -63 -45 -127q-16 -24 -59 -76t-76.5 -93.5 t-61 -96t-27.5 -96.5q0 -39 22 -64t60 -25q21 0 45 9q4 1 11 4t11.5 4.5t6.5 1.5t2 -2q0 -4 -8 -17q-9 -16 -64 -16q-59 0 -92 34.5t-33 84.5z" />
<glyph unicode="|" horiz-adv-x="466" d="M305 -496q0 71 8.5 406t8.5 510q0 139 -3.5 450t-3.5 500v148q0 25 13.5 40t31.5 15q11 0 11 -23q0 -111 -2 -395.5t-2 -492.5q0 -129 2 -392.5t2 -394.5q0 -59 -1 -175t-1 -175q0 -12 -25.5 -31.5t-30.5 -19.5q-8 0 -8 30z" />
<glyph unicode="}" horiz-adv-x="544" d="M-84 -209q0 6 12 6q1 0 10 -2.5t21.5 -5t22.5 -2.5q34 0 59 16.5t37 38.5q23 37 67 125t79 154.5t93 142.5t119 119q52 35 94 53q7 4 7 8q0 5 -11 9q-24 8 -38.5 32t-14.5 58q0 62 51 139q19 28 50 70t47.5 66t30.5 54t14 54q0 30 -18 49.5t-52 19.5q-13 0 -32.5 -5.5 t-33.5 -11.5l-14 -5q-2 0 -2 2q0 5 8 18q5 8 36.5 14.5t53.5 6.5q48 0 77.5 -27t29.5 -82q0 -34 -15.5 -66.5t-54.5 -86t-55 -78.5q-74 -112 -74 -162q0 -23 10 -33q13 -16 37 -16q14 0 42 6t32 6q23 0 23 -12q0 -8 -14 -21.5t-19 -13.5q-1 0 -8.5 1t-14.5 1 q-25 0 -61 -13.5t-58 -33.5q-53 -50 -119.5 -151t-137 -222.5t-101.5 -167.5q-17 -25 -57.5 -50t-85.5 -25q-21 0 -46.5 8.5t-25.5 15.5z" />
<glyph unicode="~" horiz-adv-x="819" d="M319 219q0 1 9 19q37 53 78.5 84.5t97.5 31.5q34 0 61.5 -20t42.5 -43.5t38.5 -43.5t49.5 -20q34 0 68.5 31.5t34.5 67.5q0 1 -2 6t-2 12q0 5 4 8.5t8 3.5q10 0 10 -26q0 -48 -43 -91.5t-96 -43.5q-41 0 -74 21t-50.5 46.5t-38 46.5t-38.5 21q-41 0 -72 -29t-63 -78 q-5 -10 -16 -10q-7 0 -7 6z" />
<glyph unicode="&#xa1;" horiz-adv-x="456" d="M-47 -322q0 9 4 9l3 -1q4 -1 9 -1q24 0 59.5 29t68 68t70 92.5t59.5 88t42 68.5q78 135 105 239q5 15 22 15t17 -15q0 -9 -40 -105.5t-69 -152.5q-41 -82 -106.5 -183.5t-116.5 -156.5q-18 -18 -66 -18q-16 0 -38.5 6t-22.5 18zM367 403q0 34 28 65.5t62 31.5 q19 0 30 -11t11 -30q0 -33 -29 -65t-63 -32q-39 0 -39 41z" />
<glyph unicode="&#xa2;" d="M66 -336q0 13 6 25q90 179 207 381q-62 5 -103 34.5t-41 90.5q0 82 45 175t115.5 170t165 128t186.5 51l74 127q75 127 133 127q4 0 4 -2q0 -5 -15.5 -22.5t-40 -46t-40.5 -52.5q-73 -112 -86 -135q47 -6 75.5 -29.5t28.5 -58.5q0 -38 -33.5 -63t-72.5 -25q-27 0 -27 12 q0 2 5.5 10t10.5 20.5t5 26.5q0 31 -25 56q-125 -206 -317 -555q28 -7 51 -7q57 0 117.5 26t109.5 67q52 43 88 106q16 27 19 27q6 0 6 -4q0 -7 -10 -27q-24 -46 -60.5 -83.5t-66 -56.5t-68.5 -40q-92 -47 -209 -47l-211 -387q-3 -8 -11.5 -16.5t-12.5 -8.5q-2 0 -2 6z M240 219q0 -83 65 -104l207 360l113 201q-21 12 -47 12q-58 0 -121.5 -51.5t-109.5 -125t-76.5 -154t-30.5 -138.5z" />
<glyph unicode="&#xa3;" horiz-adv-x="757" d="M0 -8q0 46 54.5 120t119.5 119q27 21 55 21q55 0 93 -78q102 143 155 270h-203q-8 0 -8 5q0 4 8.5 10t14.5 6h88q73 0 108 2q22 58 44.5 169t31.5 140q15 52 64 83.5t110 31.5q83 0 129.5 -43.5t46.5 -106.5q0 -9 -33 -16.5t-49 -7.5q-6 0 -6 4q0 1 3 8.5t3 13.5 q0 49 -32.5 89t-83.5 40q-33 0 -64.5 -25.5t-44.5 -70.5q-13 -44 -38 -148.5t-44 -160.5q25 0 78 1t80 1q14 0 41 -1t39 -1q8 0 8 -4q0 -12 -24.5 -20.5t-43.5 -8.5q-48 0 -188 8q-44 -118 -178 -292q22 -44 48.5 -72.5t55 -40.5t49.5 -15.5t50 -3.5q70 0 154.5 40.5 t137.5 86.5q69 61 101 109q4 6 8 6t4 -4q0 -2 -2 -6q-56 -73 -111 -122t-127 -91q-46 -27 -111.5 -49.5t-115.5 -22.5q-69 0 -110 25t-84 102q-143 -143 -238 -143q-43 0 -43 43zM27 10q0 -30 51 -30q32 0 70.5 23.5t62.5 47t59 62.5q-13 25 -20.5 37.5t-21.5 24t-29 11.5 q-27 0 -54 -22q-37 -29 -77.5 -76.5t-40.5 -77.5z" />
<glyph unicode="&#xa4;" horiz-adv-x="798" d="M283 477q0 117 73 209q-5 5 -31 35.5t-36 38.5q-4 4 -4 6q0 6 18 18q2 1 10 7t14.5 9t12.5 3t11.5 -4.5t13 -15.5t12.5 -17q1 -1 11.5 -13t17.5 -18q90 74 212 74q134 0 222 -88l57 55q10 10 23 10q2 0 6 -1t6 -1l2 -2q0 -6 -27 -24q-20 -16 -53 -49q84 -90 84 -232 q0 -119 -68 -203q8 -7 29 -30.5t31 -34.5q2 -2 2 -8q0 -10 -12 -17q-27 -16 -35 -16q-3 0 -6 1t-5.5 2t-5.5 4l-5 5t-6 7t-7 8q-2 2 -7 8t-11 12t-11 10q-86 -70 -207 -73h-16q-124 0 -209 79q-9 -9 -28.5 -26.5t-28.5 -26.5q-14 -14 -21 -14q-8 0 -8 10q0 9 19 23 q7 5 24 21t31 26q-94 94 -94 233zM330 504q0 -122 95.5 -224t221.5 -102q97 0 163.5 80.5t66.5 183.5q0 79 -30 156.5t-94.5 133.5t-148.5 56q-114 0 -194 -83t-80 -201z" />
<glyph unicode="&#xa5;" horiz-adv-x="583" d="M281 844q0 22 16 35q34 30 43 30q1 0 2 -0.5t2 -2t1.5 -3.5l1.5 -6t2.5 -8t3 -10.5t3.5 -12.5q33 -109 107.5 -235.5t122.5 -169.5q185 301 317 409q11 11 45 11q23 0 23 -4q0 -2 -4.5 -4.5t-8.5 -2.5q-16 0 -81.5 -71t-148 -181.5t-134.5 -203.5l84 2h125q16 -3 16 -13 q0 -5 -7.5 -9.5t-12.5 -4.5q-3 0 -14 1t-19 1q-12 0 -57.5 -1t-79.5 -1h-49l-35 -67q25 0 72 2t71 2q37 0 57 -2q17 -3 17 -13q0 -5 -4 -9.5t-8 -4.5q-11 0 -92.5 -2t-127.5 -2q-18 -38 -31 -72.5t-34.5 -95.5t-32.5 -92q-11 -32 -31 -47q-14 -11 -22 -11q-2 0 -10 1t-15 1 q-10 0 -30.5 -4t-24.5 -4q-8 0 -8 4t16.5 12.5t35.5 20.5t24 23q23 43 67.5 136.5t61.5 127.5h-33q-31 0 -79 -2t-69 -2q-12 0 -12 18q0 17 6 17q10 0 34 -2.5t42 -2.5q17 0 59 1.5t66 1.5q4 10 10 21t13.5 24.5t11.5 21.5q-30 -1 -103 -4.5t-94 -3.5q-6 0 -6 6t8.5 17.5 t14.5 11.5h194q4 4 8 12q-62 56 -141 161.5t-121 186.5q-24 48 -24 68z" />
<glyph unicode="&#xa6;" horiz-adv-x="466" d="M424 -334q8 290 8 447q0 31 -1 103t-1 114q0 22 8 29.5t23 7.5q28 0 28 -21q-6 -228 -6 -385q0 -185 2 -291q0 -14 -14.5 -21t-34.5 -7q-8 0 -10 4.5t-2 19.5zM424 678q0 97 5 269.5t5 285.5v102q0 25 13.5 40.5t31.5 15.5q10 0 10 -23q-6 -184 -6 -319q0 -93 4 -351 q0 -15 -20 -33t-35 -18q-8 0 -8 31z" />
<glyph unicode="&#xa7;" horiz-adv-x="614" d="M-55 0q0 40 12 76q6 17 19 34t20 17q6 0 6 -10q0 -1 -3.5 -11.5t-7 -26.5t-3.5 -30q0 -79 62.5 -135.5t146.5 -56.5q79 0 132.5 46.5t53.5 127.5q0 40 -19 79.5t-46.5 71l-55 63t-46.5 69t-19 75.5q0 54 32.5 104t81.5 85q0 78 56 143q85 96 206 96q43 0 84 -21.5 t41 -66.5q0 -15 -14 -39t-22 -24q-3 0 -3 6q0 43 -41 76.5t-88 33.5q-52 0 -87.5 -16.5t-65.5 -58.5q-23 -35 -23 -78q0 -12 2 -23.5t7.5 -24t10 -22.5t14.5 -23.5t15.5 -21t18 -22t17.5 -19.5t19 -20.5t17 -18.5q78 -85 78 -170q0 -71 -53 -141q-21 -30 -60 -57 q-6 -101 -87 -172.5t-187 -71.5q-80 0 -150.5 50t-70.5 128zM252 453q0 -31 13.5 -60.5t29 -48.5t42 -48.5t40.5 -47.5q33 -45 44.5 -77.5t16.5 -80.5q33 24 51.5 62t18.5 79q0 18 -3 35.5t-12 36t-15 30.5t-21.5 33t-22 29t-26.5 31t-25 29q-56 66 -68 108 q-63 -45 -63 -110z" />
<glyph unicode="&#xa8;" horiz-adv-x="442" d="M106 688q0 23 20 47.5t44 24.5q12 0 21.5 -11t9.5 -26q0 -24 -18.5 -48t-43.5 -24q-15 0 -24 10t-9 27zM236 676q0 23 19.5 47.5t43.5 24.5q12 0 21.5 -11t9.5 -26q0 -24 -18.5 -48t-43.5 -24q-32 0 -32 37z" />
<glyph unicode="&#xa9;" horiz-adv-x="1159" d="M229 309q0 112 53.5 223.5t140 196.5t203.5 138t236 53q167 0 270 -102t103 -261q0 -150 -89 -291.5t-236.5 -230t-307.5 -88.5q-167 0 -270 102t-103 260zM319 328q0 -68 21.5 -131.5t60.5 -114.5t101 -82t137 -31h4q132 0 249 82.5t184.5 212.5t68.5 268q0 68 -21 133 t-59.5 118t-101 85.5t-138.5 32.5q-133 0 -251 -84.5t-186 -216.5t-69 -272zM449 266q0 96 65 209q29 53 83 116.5t118 100.5q94 56 162 56q45 0 78.5 -22t33.5 -40q0 -7 -15.5 -19t-23.5 -12q-4 0 -4 4q0 29 -25 48.5t-59 19.5q-70 0 -155 -63q-74 -59 -133.5 -159.5 t-59.5 -191.5q0 -62 38.5 -113.5t100.5 -52.5q72 0 130.5 54.5t88.5 132.5q2 4 7 4q7 0 14.5 -19.5t7.5 -31.5q0 -19 -45.5 -59.5t-75.5 -57.5q-81 -51 -162 -51q-70 0 -119.5 38t-49.5 109z" />
<glyph unicode="&#xaa;" horiz-adv-x="536" d="M168 461q3 59 48.5 127.5t113.5 116t129 47.5q31 0 56.5 -14t35.5 -42q20 20 29 23q20 10 41 10h10l2 -2q0 -2 -4 -5.5t-9.5 -8t-7.5 -6.5q-45 -45 -90 -119q-53 -93 -53 -150q0 -39 39 -39q35 0 69.5 21.5t55.5 58.5q0 1 4.5 3.5t7.5 2.5q4 0 4 -2q0 -4 -2 -6 q-25 -48 -65 -74q-67 -43 -119 -43q-32 0 -51 16t-19 42q0 2 1 7t1 7q-82 -57 -147 -57q-35 0 -57.5 24.5t-22.5 61.5zM242 469q0 -22 10.5 -42.5t32.5 -20.5q38 0 116 51q32 104 134 225q-7 23 -28.5 37t-47.5 14q-49 0 -100.5 -44.5t-84 -106.5t-32.5 -113z" />
<glyph unicode="&#xab;" horiz-adv-x="641" d="M213 199q0 12 6 18q39 26 167.5 129t168.5 133q1 1 4.5 3.5t7 4.5t6.5 2q2 0 2 -8q0 -13 -6 -16q-40 -29 -90 -68.5t-112.5 -89.5l-92.5 -74q-4 -2 -4 -16q0 -12 4 -24q5 -18 26 -74.5t37.5 -103.5t16.5 -52q0 -2 -3.5 -2.5t-9 -0.5t-7.5 -1q-33 -14 -39 -14q-10 0 -12 4 q-9 18 -18.5 51t-22 79.5t-21.5 76.5q-8 24 -8 43zM373 186q0 24 16 37q117 85 289 226q13 10 27 10q6 0 6 -8q0 -12 -6 -15l-261 -198q-16 -13 -16 -29q0 -8 4 -16q28 -89 94 -205v-4q0 -4 -10 -9q-19 -8 -49 -8q-10 0 -12 4q-25 51 -76 185q-6 12 -6 30z" />
<glyph unicode="&#xac;" horiz-adv-x="1415" d="M20 516q0 14 32 30.5t59 16.5q90 2 278 2q90 0 315 -1t365 -1h223q27 0 39 -13t12 -56q0 -100 7.5 -238.5t7.5 -228.5q0 -22 -15.5 -37t-39.5 -15q-29 0 -29 29q0 30 -1 74.5t-1 60.5q0 38 1 96.5t1 88.5q0 82 -1 93t-1 85q-96 -8 -154 -8q-30 0 -79.5 1t-161 4t-222.5 5 q-76 2 -204 2q-58 0 -185 -1t-213 -1q-33 0 -33 12z" />
<glyph unicode="&#xad;" horiz-adv-x="606" d="M231 330q0 11 9 24t14 13h57q21 0 74 -2.5t84 -2.5q18 0 62.5 1.5t60.5 1.5q18 0 18 -23q0 -13 -5.5 -21t-19.5 -11.5t-25.5 -4t-35.5 -0.5q-12 0 -70 2t-104 2h-88q-31 0 -31 21z" />
<glyph unicode="&#xae;" horiz-adv-x="1159" d="M229 309q0 112 53.5 223.5t140 196.5t203.5 138t236 53q167 0 270 -102t103 -261q0 -150 -89 -291.5t-236.5 -230t-307.5 -88.5q-167 0 -270 102t-103 260zM319 328q0 -68 21.5 -131.5t60.5 -114.5t101 -82t137 -31h4q132 0 249 82.5t184.5 212.5t68.5 268q0 68 -21 133 t-59.5 118t-101 85.5t-138.5 32.5q-133 0 -251 -84.5t-186 -216.5t-69 -272zM418 176q0 13 65 131q6 11 78 148q-18 24 -18 32q0 7 18.5 15t30.5 10q40 73 57 100q49 76 139 115q46 18 86 18q37 0 56.5 -18.5t19.5 -52.5q-4 -42 -56.5 -80.5t-119.5 -61.5q-35 -12 -143 -40 q-2 -5 -12.5 -25t-12.5 -25q15 -26 53 -101t43 -83q54 -98 117 -98q54 0 74 45q2 4 8 4q7 0 16 -4.5t9 -7.5q0 -5 -39 -31q-54 -33 -94 -33q-62 0 -88 43q-21 30 -60.5 120t-56.5 118q-11 -19 -76 -142q-4 -7 -24 -47t-29 -57q-5 -8 -15 -8t-16 6q-10 7 -10 10zM647 518 q85 23 117 35q123 43 123 113q0 53 -47 53q-30 0 -54 -12q-32 -14 -60 -49t-38.5 -56.5t-40.5 -83.5z" />
<glyph unicode="&#xaf;" horiz-adv-x="471" d="M57 674q0 12 9 12q60 0 182.5 -1t154.5 -1q17 0 17 -10q0 -19 -60 -19q-25 0 -88.5 1t-111.5 1h-88q-15 0 -15 17z" />
<glyph unicode="&#xb0;" horiz-adv-x="464" d="M383 723q0 51 38 87t91 36q52 0 86.5 -35.5t34.5 -87.5q0 -47 -39.5 -85t-91.5 -38q-53 0 -86 34t-33 89zM408 719q0 -38 26 -70.5t68 -32.5q41 0 72.5 33t31.5 76q0 40 -28.5 72t-69.5 32t-70.5 -33.5t-29.5 -76.5z" />
<glyph unicode="&#xb1;" horiz-adv-x="862" d="M170 102q0 46 53.5 112.5t138.5 109.5q96 48 273 88q7 16 21.5 44.5t21.5 44.5t13.5 36t6.5 34q0 62 -88 62q-95 0 -170 -72q-10 -10 -22 -10q-15 0 -15 6q0 5 39 31.5t106.5 54t127.5 27.5q46 0 75 -18.5t29 -57.5q0 -42 -65 -166q120 22 246 29q6 0 6 -13 q0 -9 -7.5 -27.5t-15.5 -33t-10 -14.5l-10 5q-11 5 -23 5q-80 0 -227 -21q-94 -148 -200 -232.5t-216 -84.5q-17 0 -35 4t-35.5 19t-17.5 38zM201 98q0 -39 63 -39q95 0 172.5 71t161.5 216q-171 -32 -270 -88q-58 -33 -92.5 -80t-34.5 -80zM238 -18q0 11 20 23.5t37 12.5 q36 1 83 2t83 2t71 1q22 0 137 -2.5t244 -2.5q13 0 13 -16q0 -41 -142 -41q-12 0 -39.5 1.5t-77 4t-104.5 4.5q-49 2 -110 2q-21 0 -79 -1t-116 -1q-20 0 -20 11z" />
<glyph unicode="&#xb2;" horiz-adv-x="636" d="M362 481q0 5 5 8t18.5 7.5t24.5 9.5q35 18 74 45.5t79.5 64t67 80t26.5 82.5q0 58 -43 58q-6 0 -12 -1t-12.5 -4t-11 -5.5t-12 -8t-11 -8.5t-13 -10.5t-12.5 -10.5q-6 -6 -10 -6q-2 0 -7 5.5t-5 9.5q0 2 10 12q26 22 39 31.5t41 21.5t55 12q31 0 53.5 -19.5t22.5 -51.5 q0 -43 -37 -90q-61 -81 -153 -150q-36 -30 -64 -47q48 10 94 10q71 0 127 -26q31 -17 31 -27q0 -5 -26.5 -16t-36.5 -11q-16 0 -19 3q-34 34 -82 34q-13 0 -45 -4q-30 -5 -79 -15t-56 -11q-18 0 -18 10q0 5 -1.5 11t-1.5 7z" />
<glyph unicode="&#xb3;" horiz-adv-x="636" d="M367 539q0 6 16.5 12t30.5 6q12 0 12 -6q0 -2 -1 -10t-1 -15q0 -57 57 -57q30 0 62 18q69 41 69 109q0 53 -32 70q-10 5 -22.5 8.5t-20 4.5t-7.5 3q0 6 4.5 23t8.5 18q42 12 77 37t35 61q0 9 -7 19t-19 10q-15 0 -29.5 -10t-23.5 -20.5t-11 -10.5q-6 0 -6 6t4 10 q16 20 42.5 34.5t51.5 14.5q58 0 58 -40q0 -64 -129 -117q31 -6 52 -36.5t21 -66.5q0 -41 -28 -78.5t-70 -60.5q-50 -24 -98 -24q-37 0 -66.5 24t-29.5 64z" />
<glyph unicode="&#xb4;" horiz-adv-x="471" d="M57 561q0 1 11 6l256 150q9 6 16 6q4 0 4 -8t-6.5 -21t-13.5 -16q-34 -16 -111.5 -51t-136.5 -64q-8 -4 -13 -4q-6 0 -6 2z" />
<glyph unicode="&#xb5;" horiz-adv-x="598" d="M-231 -391q0 6 4 10q116 135 331 449q11 84 68 186q7 13 22 43t24 46.5t23 39.5t29.5 40.5t32.5 31.5q15 10 33 10q20 0 20 -12v-4q-7 -22 -15.5 -43t-21.5 -43t-22 -36t-27 -40.5t-26 -38.5l-54 -82q-22 -77 -22 -111q0 -32 33 -32q49 0 101 33t95 85q21 25 38 47 t25.5 35t27 40.5t30.5 45.5q50 97 90 129q11 11 31 11q14 0 14 -9q0 -1 -1 -3t-1 -3q-12 -25 -42 -74t-54 -96q-2 -5 -20 -40t-23.5 -48.5t-17 -42.5t-15.5 -53t-4 -49q0 -39 25 -39q8 0 28 10q37 20 78 54t61.5 55t71.5 75q45 49 60 68q4 6 8 6t4 -4q0 -2 -2 -6 q-12 -18 -45 -55q-111 -128 -209 -197q-47 -33 -90 -33q-53 0 -53 55q0 33 14 84q16 53 37 97q-22 -36 -66 -86q-45 -52 -106.5 -89.5t-122.5 -37.5q-45 0 -64 47q-196 -292 -311 -426q-6 -8 -16 -8q-8 0 -8 8zM219 238q13 22 37 55q76 110 76 145q-5 0 -42 -64.5t-40 -72.5 q-30 -60 -31 -63z" />
<glyph unicode="&#xb6;" horiz-adv-x="1024" d="M344 -463q0 2 4 6q151 191 311 445q-44 3 -85.5 16t-78.5 36t-59 61.5t-22 86.5q0 99 64 183t158 131.5t195 56.5q49 4 154 4l90 176q3 6 22 13.5t27 7.5q15 0 15 -10q0 -5 -4 -13l-103 -174h47q115 0 115 -6q0 -4 -18 -9t-27 -5q-89 -3 -133 -8l-316 -523q6 -2 17 -2 t47 4q13 2 59 27t54 25q2 0 2 -3q0 -12 -41 -53q-23 -26 -113 -26q-27 0 -41 2q-172 -294 -246 -443q-8 -14 -39 -14q-2 0 -12.5 2t-17.5 2h-15q-10 0 -10 4zM606 143q0 -88 72 -125q141 228 289 512q-142 -26 -251.5 -135.5t-109.5 -251.5z" />
<glyph unicode="&#xb7;" horiz-adv-x="448" d="M283 358q0 33 29 65t63 32q39 0 39 -41q0 -34 -28 -65.5t-62 -31.5q-19 0 -30 11t-11 30z" />
<glyph unicode="&#xb8;" horiz-adv-x="471" d="M131 -197q0 3 6.5 7t12.5 4t6 -4q6 -27 24.5 -44.5t46.5 -17.5q38 0 63 19.5t25 52.5q0 71 -114 71q-2 0 -6.5 -3t-6.5 -3q-14 0 -14 2q0 1 11 14t32 41t41 58q3 6 16 6q7 0 7 -4q0 -7 -45 -70q108 0 108 -88q0 -43 -36 -75.5t-81 -32.5q-25 0 -51.5 12.5t-38.5 38.5 q-6 12 -6 16z" />
<glyph unicode="&#xb9;" horiz-adv-x="659" d="M403 727q0 2 3 2q2 0 7.5 -1t8.5 -1q105 0 211 86q31 36 49 47q28 17 37 17q8 0 8 -11q0 -30 -49 -73q-16 -24 -36 -61t-41.5 -80t-27.5 -54q-18 -35 -55 -121l-5 -12.5t-5 -5t-6.5 -2.5t-13 -1t-21.5 -3q-20 -4 -29 -4q-12 0 -12 6q0 7 18 28q21 22 44.5 61t61 111 t58.5 109q-105 -55 -166 -55q-9 0 -24 7t-15 11z" />
<glyph unicode="&#xba;" horiz-adv-x="483" d="M205 426q0 108 86 203q47 55 116.5 107t122.5 52q22 0 33.5 -17t11.5 -42q0 -62 -26.5 -131t-73.5 -129q-48 -59 -100 -91t-94 -32q-33 0 -54.5 22t-21.5 58zM266 461q0 -29 15.5 -49.5t48.5 -20.5q65 0 127 103q55 90 55 178q0 82 -35 82q-64 0 -151 -127 q-60 -87 -60 -166z" />
<glyph unicode="&#xbb;" horiz-adv-x="638" d="M96 -53q0 9 13 18q130 87 288 225q6 3 6 21q0 10 -4 22q-17 37 -50 91t-57 90.5t-24 38.5q0 7 21 14q30 12 41 12q4 0 7 -3.5t8 -12.5t7 -12q17 -26 52 -92.5t47 -88.5q12 -20 12 -39q0 -17 -14 -28q-33 -24 -158 -123t-172 -133q-16 -8 -19 -8q-4 0 -4 8zM326 -10 q0 11 12 14q17 5 52 34.5t98 87t90 81.5q4 4 4 10q0 3 -9 25q-18 36 -46 85.5t-47 81.5t-19 33q0 4 6.5 9.5t11.5 7.5q2 2 17 7t22 5q5 0 26.5 -38.5t49.5 -93.5t31 -60q12 -20 12 -39q0 -18 -14 -29q-39 -29 -142 -117t-131 -110q-3 -2 -6 -5l-4.5 -4.5t-3.5 -1.5 q-10 0 -10 17z" />
<glyph unicode="&#xbc;" horiz-adv-x="1058" d="M162 -109q0 8 10 15l911 991q15 18 33 18q14 0 14 -10q0 -4 -2 -4l-911 -995q-6 -6 -22.5 -12.5t-26.5 -6.5q-6 0 -6 4zM334 727q0 2 2 2t7.5 -1t8.5 -1q105 0 211 86q31 36 49 47q28 17 37 17q8 0 8 -11q0 -30 -49 -73q-16 -24 -35.5 -61.5t-40.5 -79.5t-28 -54 q-18 -35 -55 -121q-4 -9 -5.5 -12t-5.5 -5.5t-6.5 -2.5t-13 -1t-21.5 -3q-20 -4 -28 -4q-13 0 -13 6t19 28q21 22 44.5 61t61 111t58.5 109q-105 -55 -166 -55q-9 0 -24 7t-15 11zM702 172q0 15 27 39l168 147q12 10 20.5 23t11.5 22.5t5 18.5l2 8q5 6 24.5 15.5t28.5 9.5 q6 0 6 -9q0 -10 -8 -22.5t-17 -21t-20 -17.5t-12 -10q-46 -38 -143 -127q-27 -24 -27 -43q0 -28 156 -33q15 25 26.5 48t26 54t22.5 48q11 27 11 71q0 4 4 4q14 0 31.5 -14t17.5 -31q0 -13 -19 -47q-16 -25 -38 -68.5t-33 -62.5q14 -2 41 -2q34 0 69 4.5t55 9t21 4.5 q6 0 6 -6q0 -3 -22.5 -14t-34.5 -14q-90 -23 -154 -23q-49 -84 -73 -139q-7 -17 -39 -17q-31 0 -31 11q0 2 16.5 28.5t40 62.5t33.5 54q-135 6 -165 13q-34 9 -34 26z" />
<glyph unicode="&#xbd;" horiz-adv-x="1058" d="M162 -109q0 8 10 15l911 991q15 18 33 18q14 0 14 -10q0 -4 -2 -4l-911 -995q-6 -6 -22.5 -12.5t-26.5 -6.5q-6 0 -6 4zM334 727q0 2 2 2t7.5 -1t8.5 -1q105 0 211 86q31 36 49 47q28 17 37 17q8 0 8 -11q0 -30 -49 -73q-16 -24 -35.5 -61.5t-40.5 -79.5t-28 -54 q-18 -35 -55 -121q-4 -9 -5.5 -12t-5.5 -5.5t-6.5 -2.5t-13 -1t-21.5 -3q-20 -4 -28 -4q-13 0 -13 6t19 28q21 22 44.5 61t61 111t58.5 109q-105 -55 -166 -55q-9 0 -24 7t-15 11zM627 10q0 5 4.5 8t18 7.5t24.5 9.5q35 18 74 45.5t80 64t67.5 80t26.5 82.5q0 58 -43 58 q-6 0 -12 -1t-12.5 -4t-11 -5.5t-12 -8t-11 -8.5t-13 -10.5t-12.5 -10.5q-6 -6 -11 -6q-2 0 -7 5.5t-5 9.5q0 2 10 12q25 21 39 31t42 22t55 12q31 0 53 -19.5t22 -51.5q0 -43 -37 -90q-61 -81 -153 -150q-36 -30 -64 -47q48 10 95 10q71 0 127 -26q30 -17 30 -27 q0 -5 -26.5 -16t-36.5 -11q-17 0 -19 2q-35 35 -82 35q-13 0 -45 -4q-30 -5 -79 -15t-56 -11q-18 0 -18 10q0 4 -1 10t-1 8z" />
<glyph unicode="&#xbe;" horiz-adv-x="1058" d="M162 -109q0 8 10 15l911 991q15 18 33 18q14 0 14 -10q0 -4 -2 -4l-911 -995q-6 -6 -22.5 -12.5t-26.5 -6.5q-6 0 -6 4zM266 539q0 6 16.5 12t30.5 6q13 0 13 -6q0 -2 -1 -10t-1 -15q0 -57 57 -57q29 0 61 18q70 42 70 109q0 53 -33 70q-10 5 -22.5 8.5t-19.5 4.5t-7 3 q0 7 4 23.5t8 17.5q43 12 78 37t35 61q0 9 -7.5 19t-19.5 10q-15 0 -29.5 -10t-23 -20.5t-10.5 -10.5q-6 0 -6 6t4 10q16 20 42.5 34.5t51.5 14.5q57 0 57 -40q0 -64 -129 -117q32 -6 53 -36.5t21 -66.5q0 -41 -28 -78.5t-70 -60.5q-50 -24 -99 -24q-37 0 -66.5 24t-29.5 64 zM702 172q0 15 27 39l168 147q12 10 20.5 23t11.5 22.5t5 18.5l2 8q5 6 24.5 15.5t28.5 9.5q6 0 6 -9q0 -10 -8 -22.5t-17 -21t-20 -17.5t-12 -10q-46 -38 -143 -127q-27 -24 -27 -43q0 -28 156 -33q15 25 26.5 48t26 54t22.5 48q11 27 11 71q0 4 4 4q14 0 31.5 -14 t17.5 -31q0 -13 -19 -47q-16 -25 -38 -68.5t-33 -62.5q14 -2 41 -2q34 0 69 4.5t55 9t21 4.5q6 0 6 -6q0 -3 -22.5 -14t-34.5 -14q-90 -23 -154 -23q-49 -84 -73 -139q-7 -17 -39 -17q-31 0 -31 11q0 2 16.5 28.5t40 62.5t33.5 54q-135 6 -165 13q-34 9 -34 26z" />
<glyph unicode="&#xbf;" horiz-adv-x="528" d="M-55 -264q0 20 7 41t17 39t29.5 40t35 38t43 37.5t44.5 34.5t49 34.5t47 31t47 30t41 26.5q39 26 57.5 40t37 40t18.5 55q0 40 -33 70.5t-86 30.5q-57 0 -111 -45q-5 -5 -10 -5q-6 0 -6 9q0 5 8 10q89 61 174 61q51 0 95.5 -23.5t44.5 -72.5q0 -29 -13.5 -56t-41 -51.5 t-48.5 -40t-55 -36.5q-143 -93 -192 -132q-119 -97 -119 -171q0 -47 32.5 -68.5t69.5 -21.5q68 0 123 41.5t88 97.5q10 16 20 16q7 0 7 -6q0 -5 -5 -10l-37.5 -45t-39.5 -46t-38.5 -37t-47 -34t-51.5 -18.5t-66 -8.5q-51 0 -93 27.5t-42 77.5zM434 446q0 34 28 65.5t62 31.5 q19 0 30 -11t11 -30q0 -33 -29 -64.5t-63 -31.5q-39 0 -39 40z" />
<glyph unicode="&#xc0;" horiz-adv-x="1318" d="M-18 -166q0 6 2 8q51 31 98.5 63t99 72.5t87.5 69.5t94.5 82t86.5 78.5t99 92t98 91.5q105 98 251.5 268.5t213.5 268.5q55 81 74.5 101t62.5 40q16 8 23 8q6 0 6 -10q0 -8 -5 -24t-12 -33t-8 -21q-44 -108 -90 -263t-71 -290q31 5 69 16.5t62 20t26 8.5q4 0 4 -6 q0 -2 -22 -14t-63 -29.5t-83 -30.5q-30 -180 -30 -245q0 -142 86 -142q40 0 106.5 29.5t132.5 87.5q33 29 67 68.5t44 54.5q4 6 8 6t4 -4q0 -2 -2 -6q-92 -120 -209.5 -206.5t-222.5 -86.5q-54 0 -73 33.5t-19 107.5q0 33 4.5 76.5t9 69.5t14 79t11.5 62q-139 -27 -279 -27 q-40 0 -63 2q-33 -30 -120 -111t-136.5 -126t-125.5 -111t-145 -120t-137 -101q-4 -4 -10 -4q-18 0 -18 47zM711 408q53 -2 127 -2q88 0 188 18q48 213 145 475q29 85 29 94q0 6 -2 6q-12 0 -29 -26q-85 -133 -218.5 -296t-239.5 -269zM1128 1354q0 13 6.5 26t14.5 13 q9 0 14 -11l88 -213q1 -3 3.5 -8t5 -9t2.5 -5q0 -2 -2 -2q-11 0 -15 8q-100 165 -115 188q-2 2 -2 13z" />
<glyph unicode="&#xc1;" horiz-adv-x="1318" d="M-18 -166q0 6 2 8q51 31 98.5 63t99 72.5t87.5 69.5t94.5 82t86.5 78.5t99 92t98 91.5q105 98 251.5 268.5t213.5 268.5q55 81 74.5 101t62.5 40q16 8 23 8q6 0 6 -10q0 -8 -5 -24t-12 -33t-8 -21q-44 -108 -90 -263t-71 -290q31 5 69 16.5t62 20t26 8.5q4 0 4 -6 q0 -2 -22 -14t-63 -29.5t-83 -30.5q-30 -180 -30 -245q0 -142 86 -142q40 0 106.5 29.5t132.5 87.5q33 29 67 68.5t44 54.5q4 6 8 6t4 -4q0 -2 -2 -6q-92 -120 -209.5 -206.5t-222.5 -86.5q-54 0 -73 33.5t-19 107.5q0 33 4.5 76.5t9 69.5t14 79t11.5 62q-139 -27 -279 -27 q-40 0 -63 2q-33 -30 -120 -111t-136.5 -126t-125.5 -111t-145 -120t-137 -101q-4 -4 -10 -4q-18 0 -18 47zM711 408q53 -2 127 -2q88 0 188 18q48 213 145 475q29 85 29 94q0 6 -2 6q-12 0 -29 -26q-85 -133 -218.5 -296t-239.5 -269zM1204 1151q0 1 10 6l256 150q9 6 17 6 q4 0 4 -8t-7 -21t-14 -16q-40 -19 -85 -39t-81 -36.5t-81 -39.5q-8 -4 -13 -4q-6 0 -6 2z" />
<glyph unicode="&#xc2;" horiz-adv-x="1318" d="M-18 -166q0 6 2 8q51 31 98.5 63t99 72.5t87.5 69.5t94.5 82t86.5 78.5t99 92t98 91.5q105 98 251.5 268.5t213.5 268.5q55 81 74.5 101t62.5 40q16 8 23 8q6 0 6 -10q0 -8 -5 -24t-12 -33t-8 -21q-44 -108 -90 -263t-71 -290q31 5 69 16.5t62 20t26 8.5q4 0 4 -6 q0 -2 -22 -14t-63 -29.5t-83 -30.5q-30 -180 -30 -245q0 -142 86 -142q40 0 106.5 29.5t132.5 87.5q33 29 67 68.5t44 54.5q4 6 8 6t4 -4q0 -2 -2 -6q-92 -120 -209.5 -206.5t-222.5 -86.5q-54 0 -73 33.5t-19 107.5q0 33 4.5 76.5t9 69.5t14 79t11.5 62q-139 -27 -279 -27 q-40 0 -63 2q-33 -30 -120 -111t-136.5 -126t-125.5 -111t-145 -120t-137 -101q-4 -4 -10 -4q-18 0 -18 47zM711 408q53 -2 127 -2q88 0 188 18q48 213 145 475q29 85 29 94q0 6 -2 6q-12 0 -29 -26q-85 -133 -218.5 -296t-239.5 -269zM1143 1171q0 1 1.5 2t3.5 2.5t3 2.5 q43 36 115 108q96 96 106 107q3 3 13 7.5t14 4.5t4 -2q2 -14 5.5 -80.5t6.5 -99.5q0 -4 1 -14.5t1 -14.5q0 -9 -3 -15t-9.5 -13t-9.5 -11q-1 -1 -4.5 -5t-6.5 -7.5t-4 -3.5q-8 0 -8 20q0 47 -2.5 123t-3.5 76q-6 0 -18 -12q-80 -73 -166 -168q-3 -3 -17 -6t-20 -3z" />
<glyph unicode="&#xc3;" horiz-adv-x="1318" d="M-18 -166q0 6 2 8q51 31 98.5 63t99 72.5t87.5 69.5t94.5 82t86.5 78.5t99 92t98 91.5q105 98 251.5 268.5t213.5 268.5q55 81 74.5 101t62.5 40q16 8 23 8q6 0 6 -10q0 -8 -5 -24t-12 -33t-8 -21q-44 -108 -90 -263t-71 -290q31 5 69 16.5t62 20t26 8.5q4 0 4 -6 q0 -2 -22 -14t-63 -29.5t-83 -30.5q-30 -180 -30 -245q0 -142 86 -142q40 0 106.5 29.5t132.5 87.5q33 29 67 68.5t44 54.5q4 6 8 6t4 -4q0 -2 -2 -6q-92 -120 -209.5 -206.5t-222.5 -86.5q-54 0 -73 33.5t-19 107.5q0 33 4.5 76.5t9 69.5t14 79t11.5 62q-139 -27 -279 -27 q-40 0 -63 2q-33 -30 -120 -111t-136.5 -126t-125.5 -111t-145 -120t-137 -101q-4 -4 -10 -4q-18 0 -18 47zM711 408q53 -2 127 -2q88 0 188 18q48 213 145 475q29 85 29 94q0 6 -2 6q-12 0 -29 -26q-85 -133 -218.5 -296t-239.5 -269zM1100 1208q0 6 12 21q2 2 23 29 t30.5 36.5t29.5 28t38.5 26t38.5 7.5q21 0 39 -21t30 -45.5t34.5 -45.5t51.5 -21q28 0 54 32q22 29 22 62v14q0 17 8 17q9 0 9 -33q0 -39 -33.5 -79t-77.5 -40q-28 0 -48 10t-29.5 21t-26.5 37q-13 20 -19.5 29t-17 17.5t-21.5 8.5q-19 0 -38.5 -11.5t-29.5 -21t-31.5 -35.5 t-25.5 -30q-17 -21 -18 -21q-4 0 -4 8z" />
<glyph unicode="&#xc4;" horiz-adv-x="1318" d="M-18 -166q0 6 2 8q51 31 98.5 63t99 72.5t87.5 69.5t94.5 82t86.5 78.5t99 92t98 91.5q105 98 251.5 268.5t213.5 268.5q55 81 74.5 101t62.5 40q16 8 23 8q6 0 6 -10q0 -8 -5 -24t-12 -33t-8 -21q-44 -108 -90 -263t-71 -290q31 5 69 16.5t62 20t26 8.5q4 0 4 -6 q0 -2 -22 -14t-63 -29.5t-83 -30.5q-30 -180 -30 -245q0 -142 86 -142q40 0 106.5 29.5t132.5 87.5q33 29 67 68.5t44 54.5q4 6 8 6t4 -4q0 -2 -2 -6q-92 -120 -209.5 -206.5t-222.5 -86.5q-54 0 -73 33.5t-19 107.5q0 33 4.5 76.5t9 69.5t14 79t11.5 62q-139 -27 -279 -27 q-40 0 -63 2q-33 -30 -120 -111t-136.5 -126t-125.5 -111t-145 -120t-137 -101q-4 -4 -10 -4q-18 0 -18 47zM711 408q53 -2 127 -2q88 0 188 18q48 213 145 475q29 85 29 94q0 6 -2 6q-12 0 -29 -26q-85 -133 -218.5 -296t-239.5 -269zM1204 1221q0 23 20 47t44 24 q12 0 21 -11t9 -26q0 -24 -18 -47.5t-43 -23.5q-15 0 -24 10t-9 27zM1333 1208q0 23 20 47.5t44 24.5q12 0 21 -11t9 -26q0 -24 -18 -48t-43 -24q-15 0 -24 10t-9 27z" />
<glyph unicode="&#xc5;" horiz-adv-x="1318" d="M-18 -166q0 6 2 8q51 31 98.5 63t99 72.5t87.5 69.5t94.5 82t86.5 78.5t99 92t98 91.5q105 98 251.5 268.5t213.5 268.5q55 81 74.5 101t62.5 40q16 8 23 8q6 0 6 -10q0 -8 -5 -24t-12 -33t-8 -21q-44 -108 -90 -263t-71 -290q31 5 69 16.5t62 20t26 8.5q4 0 4 -6 q0 -2 -22 -14t-63 -29.5t-83 -30.5q-30 -180 -30 -245q0 -142 86 -142q40 0 106.5 29.5t132.5 87.5q33 29 67 68.5t44 54.5q4 6 8 6t4 -4q0 -2 -2 -6q-92 -120 -209.5 -206.5t-222.5 -86.5q-54 0 -73 33.5t-19 107.5q0 33 4.5 76.5t9 69.5t14 79t11.5 62q-139 -27 -279 -27 q-40 0 -63 2q-33 -30 -120 -111t-136.5 -126t-125.5 -111t-145 -120t-137 -101q-4 -4 -10 -4q-18 0 -18 47zM711 408q53 -2 127 -2q88 0 188 18q48 213 145 475q29 85 29 94q0 6 -2 6q-12 0 -29 -26q-85 -133 -218.5 -296t-239.5 -269zM1243 1266q0 47 36.5 81.5t86.5 34.5 q33 0 54.5 -19.5t21.5 -49.5q0 -45 -36 -81t-83 -36q-34 0 -57 20t-23 50zM1278 1278q0 -23 17.5 -41t39.5 -18q29 0 49.5 21t20.5 54q0 23 -16.5 43.5t-42.5 20.5q-30 0 -49 -24t-19 -56z" />
<glyph unicode="&#xc6;" horiz-adv-x="2424" d="M-18 -170q0 10 2 12q60 36 120 78.5t105.5 78t109.5 91.5t101 90t113 105t114 106q107 102 254 272.5t211 264.5q58 83 76.5 102t60.5 39q16 8 23 8t14 -20q10 -27 106 -51t203 -27q131 0 316 61q4 2 20 2q11 0 11 -8q0 -12 -15 -24q-3 -3 -12 -15t-18.5 -21t-16.5 -9 q-3 0 -15.5 2t-25.5 2q-30 0 -123 -6.5t-119 -6.5q-130 0 -342 39q-73 -168 -127 -372q180 -11 355 -11q94 0 133 2q5 0 15.5 1t15.5 1q18 0 18 -4q0 -2 -2 -4l-3 -4q-2 -3 -4.5 -5t-7 -5t-10.5 -5t-14 -3q-12 -2 -57 -2q-61 0 -219.5 6t-196.5 6q-7 0 -14.5 -0.5 t-12.5 -1.5h-4q-47 -193 -47 -375q0 -43 3.5 -78t15 -75t32 -66.5t57 -44.5t85.5 -18q122 0 227 43q47 20 85 45t65.5 55.5t44 54.5t36.5 58q11 17 11 30q0 7 -3 15t-3 10q0 8 8 8q11 0 34 -15.5t23 -25.5q0 -2 -2 -4q-18 -19 -54.5 -62t-67.5 -72.5t-73 -60.5 q-176 -122 -444 -122q-48 0 -81.5 17.5t-51.5 50t-25.5 71.5t-7.5 90q0 83 29 262q-139 -27 -279 -27q-40 0 -63 2q-69 -58 -195 -174t-245 -219.5t-224 -175.5q-4 -4 -10 -4q-8 0 -13 14.5t-5 28.5zM711 408q53 -2 127 -2q86 0 186 18q64 250 147 475q29 85 29 94q0 6 -2 6 q-12 0 -29 -26q-88 -135 -221 -298t-237 -267z" />
<glyph unicode="&#xc7;" horiz-adv-x="1161" d="M279 182q0 168 110 369q34 62 82.5 130.5t132.5 153.5t170 134q172 96 309 96q65 0 140 -20t75 -56q0 -14 -23 -33.5t-32 -19.5q-2 0 -4 7.5t-6.5 19t-9.5 18.5q-42 53 -156 53q-164 0 -311 -114q-146 -113 -270 -321t-124 -382q0 -132 74 -215t191 -86q140 0 260 96 t237 269q5 8 11 8q8 0 8 -39q0 -62 -10 -72q-103 -131 -239.5 -218t-287.5 -87q-22 -29 -35 -51q47 0 78 -20.5t31 -67.5q0 -44 -36 -76.5t-81 -32.5q-25 0 -51.5 12.5t-38.5 38.5q-6 12 -6 17q0 3 6 6.5t12 3.5q7 0 7 -4q6 -27 24.5 -44t46.5 -17q38 0 63 19t25 52 q0 72 -114 72q-2 0 -6.5 -3t-6.5 -3q-14 0 -14 2q0 1 9.5 12t28 35.5t36.5 50.5q-130 8 -217.5 91t-87.5 216z" />
<glyph unicode="&#xc8;" horiz-adv-x="1099" d="M272 145q0 68 28.5 132t77.5 115t107 90.5t125 70.5q40 18 98.5 37t93 30.5t34.5 16.5q0 3 -23 22q-76 57 -76 138q0 34 23 75q56 93 156 141t210 48q31 0 75 -6t89 -25.5t45 -48.5q0 -19 -24.5 -48.5t-34.5 -29.5q-6 0 -6 4q0 1 5 11.5t5 17.5q0 31 -53 65.5t-140 34.5 q-55 0 -113 -18.5t-104.5 -63t-46.5 -104.5q0 -47 21.5 -93.5t58.5 -68.5l12 -8t10 -6t8 -4.5t6 -4.5t4 -3.5t2.5 -3t0.5 -3.5q0 -21 -10 -34t-41 -17q-235 -30 -387 -135q-75 -52 -113.5 -133t-38.5 -162q0 -56 20.5 -100.5t51.5 -70t72 -42.5t76.5 -23t70.5 -6 q89 0 191 53t167.5 121.5t65.5 116.5q0 7 -3 15t-3 10q0 8 8 8q11 0 34 -15.5t23 -25.5q0 -2 -2 -4q-18 -19 -54.5 -62t-67.5 -73t-72 -60q-191 -137 -342 -137q-56 0 -111.5 16.5t-102.5 48.5t-76.5 84t-29.5 117zM989 1354q0 13 6.5 26t14.5 13t14 -11l88 -213 q1 -2 3.5 -7.5t4.5 -9.5t2 -5q0 -2 -2 -2q-10 0 -14 8q-100 165 -115 188q-2 2 -2 13z" />
<glyph unicode="&#xc9;" horiz-adv-x="1099" d="M272 145q0 68 28.5 132t77.5 115t107 90.5t125 70.5q40 18 98.5 37t93 30.5t34.5 16.5q0 3 -23 22q-76 57 -76 138q0 34 23 75q56 93 156 141t210 48q31 0 75 -6t89 -25.5t45 -48.5q0 -19 -24.5 -48.5t-34.5 -29.5q-6 0 -6 4q0 1 5 11.5t5 17.5q0 31 -53 65.5t-140 34.5 q-55 0 -113 -18.5t-104.5 -63t-46.5 -104.5q0 -47 21.5 -93.5t58.5 -68.5l12 -8t10 -6t8 -4.5t6 -4.5t4 -3.5t2.5 -3t0.5 -3.5q0 -21 -10 -34t-41 -17q-235 -30 -387 -135q-75 -52 -113.5 -133t-38.5 -162q0 -56 20.5 -100.5t51.5 -70t72 -42.5t76.5 -23t70.5 -6 q89 0 191 53t167.5 121.5t65.5 116.5q0 7 -3 15t-3 10q0 8 8 8q11 0 34 -15.5t23 -25.5q0 -2 -2 -4q-18 -19 -54.5 -62t-67.5 -73t-72 -60q-191 -137 -342 -137q-56 0 -111.5 16.5t-102.5 48.5t-76.5 84t-29.5 117zM1065 1151q0 1 10 6l256 150q9 6 17 6q4 0 4 -8t-7 -21 t-14 -16q-34 -16 -111.5 -51t-136.5 -64q-8 -4 -12 -4q-6 0 -6 2z" />
<glyph unicode="&#xca;" horiz-adv-x="1099" d="M272 145q0 68 28.5 132t77.5 115t107 90.5t125 70.5q40 18 98.5 37t93 30.5t34.5 16.5q0 3 -23 22q-76 57 -76 138q0 34 23 75q56 93 156 141t210 48q31 0 75 -6t89 -25.5t45 -48.5q0 -19 -24.5 -48.5t-34.5 -29.5q-6 0 -6 4q0 1 5 11.5t5 17.5q0 31 -53 65.5t-140 34.5 q-55 0 -113 -18.5t-104.5 -63t-46.5 -104.5q0 -47 21.5 -93.5t58.5 -68.5l12 -8t10 -6t8 -4.5t6 -4.5t4 -3.5t2.5 -3t0.5 -3.5q0 -21 -10 -34t-41 -17q-235 -30 -387 -135q-75 -52 -113.5 -133t-38.5 -162q0 -56 20.5 -100.5t51.5 -70t72 -42.5t76.5 -23t70.5 -6 q89 0 191 53t167.5 121.5t65.5 116.5q0 7 -3 15t-3 10q0 8 8 8q11 0 34 -15.5t23 -25.5q0 -2 -2 -4q-18 -19 -54.5 -62t-67.5 -73t-72 -60q-191 -137 -342 -137q-56 0 -111.5 16.5t-102.5 48.5t-76.5 84t-29.5 117zM1004 1171q0 1 1.5 2t3.5 2.5t3 2.5q37 31 114 108 q12 12 32.5 31.5t38.5 37.5t36 38q3 3 13 7.5t14 4.5t4 -2q2 -14 5.5 -80.5t6.5 -99.5q0 -4 1 -14.5t1 -14.5q0 -9 -3 -15t-10 -13t-10 -11q-1 -1 -4 -5t-6 -7.5t-4 -3.5q-8 0 -8 20q0 47 -2.5 123t-3.5 76q-7 0 -19 -12q-80 -73 -166 -168q-3 -3 -17 -6t-19 -3z" />
<glyph unicode="&#xcb;" horiz-adv-x="1099" d="M272 145q0 68 28.5 132t77.5 115t107 90.5t125 70.5q40 18 98.5 37t93 30.5t34.5 16.5q0 3 -23 22q-76 57 -76 138q0 34 23 75q56 93 156 141t210 48q31 0 75 -6t89 -25.5t45 -48.5q0 -19 -24.5 -48.5t-34.5 -29.5q-6 0 -6 4q0 1 5 11.5t5 17.5q0 31 -53 65.5t-140 34.5 q-55 0 -113 -18.5t-104.5 -63t-46.5 -104.5q0 -47 21.5 -93.5t58.5 -68.5l12 -8t10 -6t8 -4.5t6 -4.5t4 -3.5t2.5 -3t0.5 -3.5q0 -21 -10 -34t-41 -17q-235 -30 -387 -135q-75 -52 -113.5 -133t-38.5 -162q0 -56 20.5 -100.5t51.5 -70t72 -42.5t76.5 -23t70.5 -6 q89 0 191 53t167.5 121.5t65.5 116.5q0 7 -3 15t-3 10q0 8 8 8q11 0 34 -15.5t23 -25.5q0 -2 -2 -4q-18 -19 -54.5 -62t-67.5 -73t-72 -60q-191 -137 -342 -137q-56 0 -111.5 16.5t-102.5 48.5t-76.5 84t-29.5 117zM1065 1221q0 23 19.5 47t43.5 24q12 0 21.5 -11t9.5 -26 q0 -24 -18 -47.5t-43 -23.5q-15 0 -24 10t-9 27zM1194 1208q0 23 19.5 47.5t43.5 24.5q12 0 21.5 -11t9.5 -26q0 -24 -18 -48t-43 -24q-15 0 -24 10t-9 27z" />
<glyph unicode="&#xcc;" horiz-adv-x="804" d="M123 23q0 23 10.5 37t30.5 14q14 0 14 -27q0 -9 -4 -23.5t-4 -21.5q0 -13 10 -25q50 -61 127 -61q165 0 293 266q191 403 307 586l131 213q-45 -14 -157.5 -29.5t-157.5 -15.5q-11 -15 -26 -32.5t-31 -33.5l-28.5 -28.5t-24 -23.5t-13.5 -13q-8 -7 -66 -59.5t-90 -77.5 q-23 -17 -24 -17q-2 0 -2 6q0 12 20 29q49 39 138 125t112 121q-39 1 -58 1.5t-57 3t-59 8t-45.5 13.5t-35.5 22t-11 32q0 46 55 85.5t119 58t109 18.5q100 0 100 -66q0 -45 -66 -150q21 2 73.5 6t75 6.5t59.5 10.5t69 20q108 31 121 31q8 0 8 -2q0 -8 -25 -33 q-62 -74 -123.5 -175.5t-99.5 -178.5t-107.5 -224.5t-107.5 -223.5q-29 -58 -63 -107.5t-80 -95t-105 -72t-123 -26.5q-39 0 -80 12.5t-74.5 43t-33.5 73.5zM485 1024q0 -42 36.5 -56t103.5 -14q13 0 41 1t41 1q2 3 7 11t7 11t6.5 10.5t6.5 11t5.5 10.5t5 11t3.5 10t3 11 t2 10.5t1 10.5q0 39 -29.5 63.5t-71.5 24.5q-61 0 -114.5 -33t-53.5 -94zM883 1354q0 13 6 26t14 13q9 0 15 -11l88 -213q1 -2 3.5 -7.5t4.5 -9.5t2 -5q0 -2 -2 -2q-11 0 -15 8q-21 35 -44.5 74.5t-38.5 64t-31 49.5q-2 2 -2 13z" />
<glyph unicode="&#xcd;" horiz-adv-x="804" d="M123 23q0 23 10.5 37t30.5 14q14 0 14 -27q0 -9 -4 -23.5t-4 -21.5q0 -13 10 -25q50 -61 127 -61q165 0 293 266q191 403 307 586l131 213q-45 -14 -157.5 -29.5t-157.5 -15.5q-11 -15 -26 -32.5t-31 -33.5l-28.5 -28.5t-24 -23.5t-13.5 -13q-8 -7 -66 -59.5t-90 -77.5 q-23 -17 -24 -17q-2 0 -2 6q0 12 20 29q49 39 138 125t112 121q-39 1 -58 1.5t-57 3t-59 8t-45.5 13.5t-35.5 22t-11 32q0 46 55 85.5t119 58t109 18.5q100 0 100 -66q0 -45 -66 -150q21 2 73.5 6t75 6.5t59.5 10.5t69 20q108 31 121 31q8 0 8 -2q0 -8 -25 -33 q-62 -74 -123.5 -175.5t-99.5 -178.5t-107.5 -224.5t-107.5 -223.5q-29 -58 -63 -107.5t-80 -95t-105 -72t-123 -26.5q-39 0 -80 12.5t-74.5 43t-33.5 73.5zM485 1024q0 -42 36.5 -56t103.5 -14q13 0 41 1t41 1q2 3 7 11t7 11t6.5 10.5t6.5 11t5.5 10.5t5 11t3.5 10t3 11 t2 10.5t1 10.5q0 39 -29.5 63.5t-71.5 24.5q-61 0 -114.5 -33t-53.5 -94zM958 1151q0 1 11 6l256 150q9 6 16 6q4 0 4 -8t-6.5 -21t-13.5 -16q-34 -16 -111.5 -51t-136.5 -64q-8 -4 -12 -4q-7 0 -7 2z" />
<glyph unicode="&#xce;" horiz-adv-x="804" d="M123 23q0 23 10.5 37t30.5 14q14 0 14 -27q0 -9 -4 -23.5t-4 -21.5q0 -13 10 -25q50 -61 127 -61q165 0 293 266q191 403 307 586l131 213q-45 -14 -157.5 -29.5t-157.5 -15.5q-11 -15 -26 -32.5t-31 -33.5l-28.5 -28.5t-24 -23.5t-13.5 -13q-8 -7 -66 -59.5t-90 -77.5 q-23 -17 -24 -17q-2 0 -2 6q0 12 20 29q49 39 138 125t112 121q-39 1 -58 1.5t-57 3t-59 8t-45.5 13.5t-35.5 22t-11 32q0 46 55 85.5t119 58t109 18.5q100 0 100 -66q0 -45 -66 -150q21 2 73.5 6t75 6.5t59.5 10.5t69 20q108 31 121 31q8 0 8 -2q0 -8 -25 -33 q-62 -74 -123.5 -175.5t-99.5 -178.5t-107.5 -224.5t-107.5 -223.5q-29 -58 -63 -107.5t-80 -95t-105 -72t-123 -26.5q-39 0 -80 12.5t-74.5 43t-33.5 73.5zM485 1024q0 -42 36.5 -56t103.5 -14q13 0 41 1t41 1q2 3 7 11t7 11t6.5 10.5t6.5 11t5.5 10.5t5 11t3.5 10t3 11 t2 10.5t1 10.5q0 39 -29.5 63.5t-71.5 24.5q-61 0 -114.5 -33t-53.5 -94zM897 1171q0 1 1.5 2t3.5 2.5t3 2.5q43 36 115 108q96 96 106 107q3 3 13 7.5t14 4.5t4 -2q2 -14 5.5 -80.5t6.5 -99.5q0 -4 1 -14.5t1 -14.5q0 -9 -3 -15t-9.5 -13t-9.5 -11q-1 -1 -4 -5t-6 -7.5 t-4 -3.5q-9 0 -9 20q0 47 -2.5 123t-3.5 76q-6 0 -18 -12q-80 -73 -166 -168q-3 -3 -17 -6t-20 -3z" />
<glyph unicode="&#xcf;" horiz-adv-x="804" d="M123 23q0 23 10.5 37t30.5 14q14 0 14 -27q0 -9 -4 -23.5t-4 -21.5q0 -13 10 -25q50 -61 127 -61q165 0 293 266q191 403 307 586l131 213q-45 -14 -157.5 -29.5t-157.5 -15.5q-11 -15 -26 -32.5t-31 -33.5l-28.5 -28.5t-24 -23.5t-13.5 -13q-8 -7 -66 -59.5t-90 -77.5 q-23 -17 -24 -17q-2 0 -2 6q0 12 20 29q49 39 138 125t112 121q-39 1 -58 1.5t-57 3t-59 8t-45.5 13.5t-35.5 22t-11 32q0 46 55 85.5t119 58t109 18.5q100 0 100 -66q0 -45 -66 -150q21 2 73.5 6t75 6.5t59.5 10.5t69 20q108 31 121 31q8 0 8 -2q0 -8 -25 -33 q-62 -74 -123.5 -175.5t-99.5 -178.5t-107.5 -224.5t-107.5 -223.5q-29 -58 -63 -107.5t-80 -95t-105 -72t-123 -26.5q-39 0 -80 12.5t-74.5 43t-33.5 73.5zM485 1024q0 -42 36.5 -56t103.5 -14q13 0 41 1t41 1q2 3 7 11t7 11t6.5 10.5t6.5 11t5.5 10.5t5 11t3.5 10t3 11 t2 10.5t1 10.5q0 39 -29.5 63.5t-71.5 24.5q-61 0 -114.5 -33t-53.5 -94zM958 1221q0 23 20 47t44 24q12 0 21.5 -11t9.5 -26q0 -24 -18.5 -47.5t-43.5 -23.5q-15 0 -24 10t-9 27zM1087 1208q0 23 20 47.5t44 24.5q12 0 21.5 -11t9.5 -26q0 -24 -18.5 -48t-43.5 -24 q-15 0 -24 10t-9 27z" />
<glyph unicode="&#xd0;" horiz-adv-x="1402" d="M135 -10q0 69 63.5 162t153 160t156.5 67q40 0 69 -29.5t56 -87.5q32 56 125 246h-140q-14 0 -14 16q0 13 8 13q4 0 33 -1t39 -1q16 0 41 1t45 1q131 273 238 526q-7 0 -22 1t-23 1q-163 0 -332 -84q-82 -40 -170 -127.5t-141.5 -171.5t-53.5 -125q0 -5 6.5 -15t6.5 -14 t-4 -8t-9 -4q-12 0 -36.5 26.5t-24.5 39.5q0 25 55 101.5t144 164.5t167 129q191 98 410 98h33q18 52 18 72q0 43 -24.5 63.5t-77.5 20.5q-59 0 -129 -41q-20 -10 -25 -10q-4 0 -4 2q0 4 14 12q105 57 179 57q139 0 139 -102q0 -33 -21 -80q367 -62 367 -471 q0 -95 -17 -191.5t-55.5 -190.5t-93.5 -166.5t-139 -117.5t-184 -45q-68 0 -122.5 17t-101 55.5t-79 77t-78.5 102.5q-89 -119 -173.5 -180t-154.5 -61q-50 0 -83.5 22.5t-33.5 69.5zM203 37q0 -86 100 -86q53 0 121 48t143 157q-9 13 -30.5 44.5t-30.5 43t-25.5 29.5 t-31 24t-31.5 6q-47 0 -99 -48t-84 -110.5t-32 -107.5zM645 233q21 -54 34 -84t41 -79.5t54.5 -77t67 -49t86.5 -21.5q90 0 167 47.5t129 122.5t89 169t54 186t17 174q0 169 -73 277.5t-236 152.5l-256 -516h86h45q17 0 17 -11q0 -6 -6 -11t-15 -5q-32 -4 -65 -4 q-45 0 -78 2q-87 -164 -158 -273z" />
<glyph unicode="&#xd1;" horiz-adv-x="954" d="M41 -41q0 66 29 174t67 203q7 19 46 44.5t57 25.5q6 0 6 -7q0 -4 -2 -8q-40 -83 -93 -226.5t-53 -209.5q0 -39 23 -39q25 0 64.5 51t70.5 111q44 84 88.5 185.5t77.5 168.5q27 56 86 178.5t100 206.5t60 119q15 27 44 49.5t50 22.5q24 0 24 -37q-8 -127 -37.5 -435.5 t-33.5 -453.5q72 179 219 493q96 209 160 305q127 188 252 189q73 0 133.5 -53.5t60.5 -124.5q0 -17 -20 -28t-41 -11q-25 0 -25 12q0 68 -34 123t-89 55q-47 0 -96 -38q-24 -19 -53 -57.5t-52 -75.5t-56.5 -100.5t-49 -95.5t-47.5 -99.5t-37 -77.5q-45 -94 -107.5 -247.5 t-96.5 -219.5t-60 -66q-35 0 -35 82q0 128 36 402.5t36 433.5q0 47 -13 47q-4 0 -20 -25q-60 -107 -219 -453t-195 -413q-90 -164 -168 -164q-57 0 -57 84zM889 1208q0 6 12 21q2 2 23 29t30.5 36.5t29.5 28t38.5 26t38.5 7.5q21 0 39 -21t30 -45.5t35 -45.5t52 -21 q27 0 53 32q22 29 22 62v14q0 17 8 17q9 0 9 -33q0 -39 -33.5 -79t-77.5 -40q-28 0 -48 10t-29.5 21t-26.5 37q-13 20 -19.5 29t-17 17.5t-21.5 8.5q-19 0 -38.5 -11.5t-29.5 -21t-31.5 -35.5t-25.5 -30q-17 -21 -18 -21q-4 0 -4 8z" />
<glyph unicode="&#xd2;" horiz-adv-x="909" d="M160 176q0 137 84 322q118 257 296 415t355 158q65 0 116.5 -53.5t51.5 -151.5q0 -37 -41 -37q-18 0 -34.5 9t-16.5 18q0 4 3 21.5t3 25.5q0 61 -35 96t-94 35q-151 0 -292 -134t-243 -355q-73 -158 -73 -318q0 -119 48.5 -192.5t141.5 -73.5q163 0 327.5 141t262.5 373 q74 173 74 328q0 97 -33 198q0 12 10 43t25 31q19 0 31 -86.5t12 -140.5q0 -182 -82 -363q-120 -264 -300.5 -434t-355.5 -170q-115 0 -178 79t-63 216zM801 1354q0 13 6 26t14 13q9 0 15 -11l88 -213q1 -2 3.5 -7.5t4.5 -9.5t2 -5q0 -2 -2 -2q-10 0 -14 8 q-100 165 -115 188q-2 2 -2 13z" />
<glyph unicode="&#xd3;" horiz-adv-x="909" d="M160 176q0 137 84 322q118 257 296 415t355 158q65 0 116.5 -53.5t51.5 -151.5q0 -37 -41 -37q-18 0 -34.5 9t-16.5 18q0 4 3 21.5t3 25.5q0 61 -35 96t-94 35q-151 0 -292 -134t-243 -355q-73 -158 -73 -318q0 -119 48.5 -192.5t141.5 -73.5q163 0 327.5 141t262.5 373 q74 173 74 328q0 97 -33 198q0 12 10 43t25 31q19 0 31 -86.5t12 -140.5q0 -182 -82 -363q-120 -264 -300.5 -434t-355.5 -170q-115 0 -178 79t-63 216zM877 1151q0 1 10 6l256 150q9 6 16 6q4 0 4 -8t-6.5 -21t-13.5 -16q-34 -16 -111.5 -51t-136.5 -64q-8 -4 -12 -4 q-6 0 -6 2z" />
<glyph unicode="&#xd4;" horiz-adv-x="909" d="M160 176q0 137 84 322q118 257 296 415t355 158q65 0 116.5 -53.5t51.5 -151.5q0 -37 -41 -37q-18 0 -34.5 9t-16.5 18q0 4 3 21.5t3 25.5q0 61 -35 96t-94 35q-151 0 -292 -134t-243 -355q-73 -158 -73 -318q0 -119 48.5 -192.5t141.5 -73.5q163 0 327.5 141t262.5 373 q74 173 74 328q0 97 -33 198q0 12 10 43t25 31q19 0 31 -86.5t12 -140.5q0 -182 -82 -363q-120 -264 -300.5 -434t-355.5 -170q-115 0 -178 79t-63 216zM815 1171q0 1 1.5 2t3.5 2.5t3 2.5q43 36 115 108q96 96 106 107q3 3 13 7.5t14 4.5t4 -2q2 -14 5.5 -80.5t6.5 -99.5 q0 -4 1.5 -14.5t1.5 -14.5q0 -9 -3 -15t-10 -13t-10 -11q-1 -1 -4 -5t-6 -7.5t-4 -3.5q-9 0 -9 20q0 47 -2.5 123t-3.5 76q-6 0 -18 -12q-80 -73 -166 -168q-3 -3 -17 -6t-20 -3z" />
<glyph unicode="&#xd5;" horiz-adv-x="909" d="M160 176q0 137 84 322q118 257 296 415t355 158q65 0 116.5 -53.5t51.5 -151.5q0 -37 -41 -37q-18 0 -34.5 9t-16.5 18q0 4 3 21.5t3 25.5q0 61 -35 96t-94 35q-151 0 -292 -134t-243 -355q-73 -158 -73 -318q0 -119 48.5 -192.5t141.5 -73.5q163 0 327.5 141t262.5 373 q74 173 74 328q0 97 -33 198q0 12 10 43t25 31q19 0 31 -86.5t12 -140.5q0 -182 -82 -363q-120 -264 -300.5 -434t-355.5 -170q-115 0 -178 79t-63 216zM772 1208q0 6 12 21q2 2 23 29t30.5 36.5t29.5 28t38.5 26t38.5 7.5q21 0 39 -21t30 -45.5t35 -45.5t52 -21q27 0 53 32 q23 31 23 62v14q0 17 8 17t8 -33q0 -39 -33.5 -79t-77.5 -40q-28 0 -48 10t-29.5 21t-26.5 37q-14 22 -19.5 29.5t-16 16.5t-21.5 9q-19 0 -38.5 -11.5t-29.5 -21t-31.5 -35.5t-25.5 -30q-17 -21 -19 -21q-4 0 -4 8z" />
<glyph unicode="&#xd6;" horiz-adv-x="909" d="M160 176q0 137 84 322q118 257 296 415t355 158q65 0 116.5 -53.5t51.5 -151.5q0 -37 -41 -37q-18 0 -34.5 9t-16.5 18q0 4 3 21.5t3 25.5q0 61 -35 96t-94 35q-151 0 -292 -134t-243 -355q-73 -158 -73 -318q0 -119 48.5 -192.5t141.5 -73.5q163 0 327.5 141t262.5 373 q74 173 74 328q0 97 -33 198q0 12 10 43t25 31q19 0 31 -86.5t12 -140.5q0 -182 -82 -363q-120 -264 -300.5 -434t-355.5 -170q-115 0 -178 79t-63 216zM877 1221q0 23 19.5 47t43.5 24q12 0 21.5 -11t9.5 -26q0 -24 -18.5 -47.5t-43.5 -23.5q-32 0 -32 37zM1006 1208 q0 23 19.5 47.5t43.5 24.5q12 0 21.5 -11t9.5 -26q0 -24 -18.5 -48t-43.5 -24q-32 0 -32 37z" />
<glyph unicode="&#xd7;" horiz-adv-x="819" d="M276 526q0 4 4.5 8t11 8.5t9.5 8.5q12 12 18 12q7 0 13 -6q16 -18 111 -117t120 -125q32 28 63.5 60t64.5 67t50 52q6 6 16.5 17.5t17.5 18t13 9.5q15 6 27 6q13 0 22 -5.5t9 -11.5q0 -4 -4 -8q-46 -36 -137 -122t-119 -111q16 -21 124 -128t119 -120q7 -11 7 -14 q0 -11 -17 -11q-12 0 -24 4q-10 3 -27 18.5t-44.5 43.5t-47.5 45q-11 9 -63 58.5t-68 66.5q-23 -19 -55 -48.5t-39 -35.5q-15 -14 -64 -62t-59 -57q-22 -22 -45 -22q-4 0 -4 2q0 4 6 10l168 172q6 6 21.5 21t27.5 26.5t18 19.5q-14 15 -102 99t-127 131q-15 15 -15 20z" />
<glyph unicode="&#xd8;" horiz-adv-x="909" d="M61 -74q0 8 13 21l106 90q-20 59 -20 139q0 137 84 322q118 257 296 415t355 158q65 0 116.5 -53.5t51.5 -151.5q0 -37 -41 -37q-18 0 -34.5 9t-16.5 18q0 4 3 21.5t3 25.5q0 61 -35 96t-94 35q-151 0 -292 -134t-243 -355q-73 -158 -73 -318q0 -76 16 -125 q475 415 834 760q-5 62 -29 139q0 12 10 43t25 31q14 0 25 -53.5t14 -114.5l96 92q23 23 39 23t16 -10q0 -4 -2 -6l-145 -144v-14q0 -182 -82 -363q-120 -264 -300.5 -434t-355.5 -170q-145 0 -208 125q-23 -18 -66 -61q-8 -8 -27 -15.5t-32 -7.5q-7 0 -7 4zM266 74 q50 -113 164 -113q163 0 327.5 141t262.5 373q74 173 74 328v16q-157 -150 -458.5 -416.5t-369.5 -328.5z" />
<glyph unicode="&#xd9;" horiz-adv-x="1419" d="M485 -2q0 30 7 63.5t23.5 74.5t26.5 63.5t34 69.5t28 55q12 24 43.5 88.5t50 103.5t47.5 101t47 104.5t36.5 89.5t27 81.5t8.5 55.5q0 42 -21 66t-55 24q-21 0 -40 -8q-34 -14 -55.5 -27.5t-30.5 -22.5t-13 -11q-7 -2 -12.5 -7.5t-7.5 -5.5q-4 0 -4 5q0 3 6 12 q29 37 90 68.5t117 31.5q52 0 81 -32.5t29 -82.5q0 -22 -6 -43q-19 -82 -163 -359t-165 -329q-2 -6 -14.5 -36.5t-18.5 -46.5t-12 -43t-6 -48q0 -56 38 -90.5t97 -34.5q60 0 135 39t144 98t127 122t96 118l168 350q20 39 42.5 85t32.5 66.5t23 43t25 39.5q16 21 21.5 28 t21.5 14.5t39 8.5q8 0 8 -10q-1 -44 -107.5 -228t-152.5 -249q-12 -24 -44.5 -87t-44 -87t-30 -71t-31.5 -95q-20 -72 -20 -129q0 -44 20 -73.5t66 -29.5q92 0 154 82q9 12 28 12q15 0 15 -6q0 -2 -2 -4q-43 -43 -102.5 -71.5t-121.5 -28.5q-108 0 -108 112q0 84 63 232 q-49 -54 -85 -91.5t-94.5 -88t-109.5 -82t-116 -54t-127 -22.5t-104 32.5t-42 94.5zM1120 1354q0 13 6.5 26t14.5 13q9 0 14 -11l88 -213q1 -2 3.5 -7.5t4.5 -9.5t2 -5q0 -2 -2 -2q-10 0 -14 8q-100 165 -115 188q-2 2 -2 13z" />
<glyph unicode="&#xda;" horiz-adv-x="1419" d="M485 -2q0 30 7 63.5t23.5 74.5t26.5 63.5t34 69.5t28 55q12 24 43.5 88.5t50 103.5t47.5 101t47 104.5t36.5 89.5t27 81.5t8.5 55.5q0 42 -21 66t-55 24q-21 0 -40 -8q-34 -14 -55.5 -27.5t-30.5 -22.5t-13 -11q-7 -2 -12.5 -7.5t-7.5 -5.5q-4 0 -4 5q0 3 6 12 q29 37 90 68.5t117 31.5q52 0 81 -32.5t29 -82.5q0 -22 -6 -43q-19 -82 -163 -359t-165 -329q-2 -6 -14.5 -36.5t-18.5 -46.5t-12 -43t-6 -48q0 -56 38 -90.5t97 -34.5q60 0 135 39t144 98t127 122t96 118l168 350q20 39 42.5 85t32.5 66.5t23 43t25 39.5q16 21 21.5 28 t21.5 14.5t39 8.5q8 0 8 -10q-1 -44 -107.5 -228t-152.5 -249q-12 -24 -44.5 -87t-44 -87t-30 -71t-31.5 -95q-20 -72 -20 -129q0 -44 20 -73.5t66 -29.5q92 0 154 82q9 12 28 12q15 0 15 -6q0 -2 -2 -4q-43 -43 -102.5 -71.5t-121.5 -28.5q-108 0 -108 112q0 84 63 232 q-49 -54 -85 -91.5t-94.5 -88t-109.5 -82t-116 -54t-127 -22.5t-104 32.5t-42 94.5zM1196 1151q0 1 10 6l256 150q9 6 17 6q4 0 4 -8t-7 -21t-14 -16q-34 -16 -111.5 -51t-136.5 -64q-8 -4 -12 -4q-6 0 -6 2z" />
<glyph unicode="&#xdb;" horiz-adv-x="1419" d="M485 -2q0 30 7 63.5t23.5 74.5t26.5 63.5t34 69.5t28 55q12 24 43.5 88.5t50 103.5t47.5 101t47 104.5t36.5 89.5t27 81.5t8.5 55.5q0 42 -21 66t-55 24q-21 0 -40 -8q-34 -14 -55.5 -27.5t-30.5 -22.5t-13 -11q-7 -2 -12.5 -7.5t-7.5 -5.5q-4 0 -4 5q0 3 6 12 q29 37 90 68.5t117 31.5q52 0 81 -32.5t29 -82.5q0 -22 -6 -43q-19 -82 -163 -359t-165 -329q-2 -6 -14.5 -36.5t-18.5 -46.5t-12 -43t-6 -48q0 -56 38 -90.5t97 -34.5q60 0 135 39t144 98t127 122t96 118l168 350q20 39 42.5 85t32.5 66.5t23 43t25 39.5q16 21 21.5 28 t21.5 14.5t39 8.5q8 0 8 -10q-1 -44 -107.5 -228t-152.5 -249q-12 -24 -44.5 -87t-44 -87t-30 -71t-31.5 -95q-20 -72 -20 -129q0 -44 20 -73.5t66 -29.5q92 0 154 82q9 12 28 12q15 0 15 -6q0 -2 -2 -4q-43 -43 -102.5 -71.5t-121.5 -28.5q-108 0 -108 112q0 84 63 232 q-49 -54 -85 -91.5t-94.5 -88t-109.5 -82t-116 -54t-127 -22.5t-104 32.5t-42 94.5zM1135 1171q0 1 1.5 2t3.5 2.5t3 2.5q37 31 114 108q12 12 32.5 31.5t38.5 37.5t36 38q3 3 13 7.5t14 4.5t4 -2q2 -14 5.5 -80.5t6.5 -99.5q0 -4 1 -14.5t1 -14.5q0 -9 -3 -15t-10 -13 t-10 -11q-1 -1 -4 -5t-6 -7.5t-4 -3.5q-8 0 -8 20q0 47 -2.5 123t-3.5 76q-7 0 -19 -12q-74 -67 -165 -168q-3 -3 -17 -6t-20 -3z" />
<glyph unicode="&#xdc;" horiz-adv-x="1419" d="M485 -2q0 30 7 63.5t23.5 74.5t26.5 63.5t34 69.5t28 55q12 24 43.5 88.5t50 103.5t47.5 101t47 104.5t36.5 89.5t27 81.5t8.5 55.5q0 42 -21 66t-55 24q-21 0 -40 -8q-34 -14 -55.5 -27.5t-30.5 -22.5t-13 -11q-7 -2 -12.5 -7.5t-7.5 -5.5q-4 0 -4 5q0 3 6 12 q29 37 90 68.5t117 31.5q52 0 81 -32.5t29 -82.5q0 -22 -6 -43q-19 -82 -163 -359t-165 -329q-2 -6 -14.5 -36.5t-18.5 -46.5t-12 -43t-6 -48q0 -56 38 -90.5t97 -34.5q60 0 135 39t144 98t127 122t96 118l168 350q20 39 42.5 85t32.5 66.5t23 43t25 39.5q16 21 21.5 28 t21.5 14.5t39 8.5q8 0 8 -10q-1 -44 -107.5 -228t-152.5 -249q-12 -24 -44.5 -87t-44 -87t-30 -71t-31.5 -95q-20 -72 -20 -129q0 -44 20 -73.5t66 -29.5q92 0 154 82q9 12 28 12q15 0 15 -6q0 -2 -2 -4q-43 -43 -102.5 -71.5t-121.5 -28.5q-108 0 -108 112q0 84 63 232 q-49 -54 -85 -91.5t-94.5 -88t-109.5 -82t-116 -54t-127 -22.5t-104 32.5t-42 94.5zM1196 1221q0 23 20 47t44 24q12 0 21 -11t9 -26q0 -24 -18 -47.5t-43 -23.5q-15 0 -24 10t-9 27zM1325 1208q0 23 20 47.5t44 24.5q12 0 21 -11t9 -26q0 -24 -18 -48t-43 -24q-15 0 -24 10 t-9 27z" />
<glyph unicode="&#xdd;" horiz-adv-x="1144" d="M-92 -850q0 56 22.5 111t66.5 104.5t89.5 90.5t111 84.5t109 69.5t105.5 62q11 6 16 9l346 202l66 129q9 19 54.5 103.5t49.5 93.5q-49 -54 -85 -91.5t-94.5 -88t-109.5 -82t-116 -54t-127 -22.5t-104 32.5t-42 94.5q0 30 7 63.5t23.5 74.5t26.5 63.5t34 69.5t28 55 q12 24 43.5 88.5t50 103.5t47.5 101t47 104.5t36.5 89.5t27 81.5t8.5 55.5q0 42 -21 66t-55 24q-22 0 -41 -8q-34 -14 -55 -27.5t-30 -22.5t-13 -11q-7 -2 -12.5 -7.5t-7.5 -5.5q-4 0 -4 5q0 3 6 12q29 37 89.5 68.5t116.5 31.5q52 0 81.5 -33t29.5 -82q0 -22 -6 -43 q-19 -82 -163 -359t-165 -329q-2 -6 -14.5 -36.5t-18.5 -46.5t-12 -43t-6 -48q0 -56 38 -90.5t97 -34.5q60 0 135 39t144 98t127 122t96 118l168 350q20 39 42.5 85t32.5 66.5t23 43t25 39.5q16 21 21.5 28t21.5 14.5t39 8.5q8 0 8 -10q-1 -44 -107.5 -228t-152.5 -249 q-14 -27 -81.5 -167t-107.5 -208l-86 -164q99 58 170 94q150 77 220 137q67 59 100 109q4 6 8 6t4 -4q0 -2 -2 -6q-58 -76 -122 -130t-165 -110l-227 -129q-130 -255 -270 -493q-37 -61 -82 -119t-106.5 -120t-135 -100t-145.5 -38q-83 0 -124.5 37.5t-41.5 101.5zM4 -858 q0 -100 94 -100q208 0 391 337q72 128 148.5 260.5t120.5 213.5l-303 -183q-55 -34 -108.5 -72t-118 -94t-112 -111.5t-80 -122.5t-32.5 -128zM991 1151q0 1 10 6l256 150q9 6 17 6q4 0 4 -8t-7 -21t-14 -16q-40 -19 -85 -39t-81 -36.5t-81 -39.5q-8 -4 -13 -4q-6 0 -6 2z " />
<glyph unicode="&#xde;" horiz-adv-x="1099" d="M117 -229q0 2 8 11.5t18 22t13 19.5l65 121q168 325 322.5 649t154.5 387q0 23 -18.5 34t-42.5 11q-38 0 -100 -45q-9 -6 -13 -6t-4 6q0 3 17 17t30 22q25 17 65.5 31t67.5 14q30 0 58 -22t28 -62q0 -11 -3 -25t-10 -31t-13 -31t-16.5 -34.5t-17 -32t-18.5 -33t-16 -28.5 q114 29 180 29q51 0 104.5 -16.5t99.5 -46.5t75 -79t29 -108q0 -108 -84 -209q-57 -66 -135.5 -112.5t-163.5 -65.5q-71 -15 -148 -15q-93 0 -178 21q-16 3 -16 10q0 12 28 12q2 0 54.5 -6t80.5 -6q210 0 334 102q59 48 100.5 126.5t41.5 144.5q0 91 -72.5 158t-169.5 67 q-57 0 -129 -29q-15 -6 -38.5 -26.5t-31.5 -32.5q-76 -127 -205 -385.5t-192 -370.5q-47 -87 -94 -131q-28 -28 -43 -28q-2 0 -2 2z" />
<glyph unicode="&#xdf;" horiz-adv-x="675" d="M-840 -813q0 16 17 61q7 17 26 28t35 11q17 0 17 -10q0 -1 -1 -2t-2 -2.5t-2 -3.5q-30 -47 -30 -88q0 -38 30.5 -57t77.5 -19q39 0 78 17.5t100 62.5q70 53 159 172.5t153.5 228.5t115.5 209l238 459l102 190q-27 9 -43 9q-17 0 -32.5 -7.5t-36.5 -23t-27 -19.5 q-4 -2 -8 -2t-4 5q0 3 37 28q4 3 19 13t23 15t23 10t29 5q17 0 35 -6q142 253 227 379q126 186 279 293q71 49 116 49q22 0 32.5 -10.5t10.5 -36.5q0 -135 -196 -326l-70 -57q-69 -58 -109 -109.5t-40 -101.5q0 -17 10 -29.5t19 -18t31 -14.5t28 -12q54 -28 67 -57 q19 -44 19 -78q0 -120 -146 -250q-139 -121 -243 -121q-41 0 -90 17t-50 43q0 13 27.5 49.5t36.5 36.5q2 0 2 -4q0 -2 -1 -10.5t-1 -16.5q0 -40 22 -69t64 -29q85 0 201 133q92 107 92 207q0 64 -33 88q-19 14 -54.5 26.5t-55 25.5t-19.5 38q0 40 33.5 89.5t71.5 84t86 74.5 t57 49q159 154 159 276q0 56 -38 56q-14 0 -29.5 -7t-33 -21t-33.5 -29.5t-34.5 -38.5t-32.5 -40.5t-32 -42.5t-28 -39.5t-24.5 -36t-17.5 -26.5q-61 -91 -159.5 -278t-163.5 -320q-75 -154 -277 -512q-93 -165 -213 -329t-223 -242q-128 -99 -248 -99q-46 0 -85.5 32.5 t-39.5 80.5z" />
<glyph unicode="&#xe0;" horiz-adv-x="659" d="M94 104q0 76 54.5 162.5t139.5 146.5t165 60q96 0 133 -106q24 0 24 -15q0 -10 -2 -20t-4 -18.5t-7 -18.5l-8 -16t-10.5 -16.5t-11 -15t-13 -15t-12 -13.5t-13 -14t-11.5 -12q-6 -5 -17 -15.5t-20 -19.5q-32 -62 -32 -88q0 -43 65 -43q80 0 217 118q67 59 100 109 q4 6 9 6q4 0 4 -4q0 -2 -2 -6q-56 -73 -111 -122t-127 -91q-85 -49 -151 -49q-82 0 -82 65q0 13 2 19q-109 -72 -191 -72q-45 0 -66.5 29t-21.5 75zM178 106q0 -71 55 -71q57 0 144 57q23 81 86 166q65 91 112 107q-14 37 -45 60.5t-73 23.5q-64 0 -130.5 -57.5t-107.5 -138 t-41 -147.5zM342 760q0 13 6 26t14 13q10 0 15 -11l88 -213q1 -2 3.5 -7.5t4.5 -9.5t2 -5q0 -2 -2 -2q-10 0 -14 8q-109 180 -115 189q-2 2 -2 12zM496 186l18 19q26 28 40 43.5t29 43.5t15 52q0 12 -2 12t-6 -4q4 -12 4 -22q0 -2 -2 -2l-8 16q-11 -16 -32 -50l-20 -34 q-30 -63 -36 -74z" />
<glyph unicode="&#xe1;" horiz-adv-x="659" d="M94 104q0 76 54.5 162.5t139.5 146.5t165 60q96 0 133 -106q24 0 24 -15q0 -10 -2 -20t-4 -18.5t-7 -18.5l-8 -16t-10.5 -16.5t-11 -15t-13 -15t-12 -13.5t-13 -14t-11.5 -12q-6 -5 -17 -15.5t-20 -19.5q-32 -62 -32 -88q0 -43 65 -43q80 0 217 118q67 59 100 109 q4 6 9 6q4 0 4 -4q0 -2 -2 -6q-56 -73 -111 -122t-127 -91q-85 -49 -151 -49q-82 0 -82 65q0 13 2 19q-109 -72 -191 -72q-45 0 -66.5 29t-21.5 75zM178 106q0 -71 55 -71q57 0 144 57q23 81 86 166q65 91 112 107q-14 37 -45 60.5t-73 23.5q-64 0 -130.5 -57.5t-107.5 -138 t-41 -147.5zM418 557q0 1 10 6l256 150q9 6 16 6q5 0 5 -8t-7 -21t-14 -16q-34 -16 -111.5 -51t-136.5 -64q-8 -4 -12 -4q-6 0 -6 2zM496 186l18 19q26 28 40 43.5t29 43.5t15 52q0 12 -2 12t-6 -4q4 -12 4 -22q0 -2 -2 -2l-8 16q-11 -16 -32 -50l-20 -34q-30 -63 -36 -74z " />
<glyph unicode="&#xe2;" horiz-adv-x="659" d="M94 104q0 76 54.5 162.5t139.5 146.5t165 60q96 0 133 -106q24 0 24 -15q0 -10 -2 -20t-4 -18.5t-7 -18.5l-8 -16t-10.5 -16.5t-11 -15t-13 -15t-12 -13.5t-13 -14t-11.5 -12q-6 -5 -17 -15.5t-20 -19.5q-32 -62 -32 -88q0 -43 65 -43q80 0 217 118q67 59 100 109 q4 6 9 6q4 0 4 -4q0 -2 -2 -6q-56 -73 -111 -122t-127 -91q-85 -49 -151 -49q-82 0 -82 65q0 13 2 19q-109 -72 -191 -72q-45 0 -66.5 29t-21.5 75zM178 106q0 -71 55 -71q57 0 144 57q23 81 86 166q65 91 112 107q-14 37 -45 60.5t-73 23.5q-64 0 -130.5 -57.5t-107.5 -138 t-41 -147.5zM356 578q0 1 2 2l4 2t3 2q37 31 114 108q12 12 32.5 31.5t38.5 37.5t36 38q12 12 26 12q4 0 4 -2q2 -15 6 -81.5t7 -98.5q0 -4 1 -14.5t1 -14.5q0 -9 -3 -15t-10 -13t-10 -11q-1 -1 -4 -5t-6 -7.5t-4 -3.5q-8 0 -8 20q0 47 -2.5 123t-3.5 76q-7 0 -19 -12 q-80 -73 -166 -168q-3 -3 -17 -6t-20 -3zM496 186l18 19q26 28 40 43.5t29 43.5t15 52q0 12 -2 12t-6 -4q4 -12 4 -22q0 -2 -2 -2l-8 16q-11 -16 -32 -50l-20 -34q-30 -63 -36 -74z" />
<glyph unicode="&#xe3;" horiz-adv-x="659" d="M94 104q0 76 54.5 162.5t139.5 146.5t165 60q96 0 133 -106q24 0 24 -15q0 -10 -2 -20t-4 -18.5t-7 -18.5l-8 -16t-10.5 -16.5t-11 -15t-13 -15t-12 -13.5t-13 -14t-11.5 -12q-6 -5 -17 -15.5t-20 -19.5q-32 -62 -32 -88q0 -43 65 -43q80 0 217 118q67 59 100 109 q4 6 9 6q4 0 4 -4q0 -2 -2 -6q-56 -73 -111 -122t-127 -91q-85 -49 -151 -49q-82 0 -82 65q0 13 2 19q-109 -72 -191 -72q-45 0 -66.5 29t-21.5 75zM178 106q0 -71 55 -71q57 0 144 57q23 81 86 166q65 91 112 107q-14 37 -45 60.5t-73 23.5q-64 0 -130.5 -57.5t-107.5 -138 t-41 -147.5zM313 614q0 5 13 21q3 4 23 29.5t30 36t29 28.5t38 25.5t39 7.5q21 0 39 -21t30 -45.5t35 -45.5t52 -21q27 0 53 33q23 31 23 61v14q0 17 8 17t8 -33q0 -39 -33 -79t-77 -40q-40 0 -60.5 15.5t-44.5 52.5q-14 22 -19.5 29.5t-16 16.5t-21.5 9q-19 0 -38.5 -11.5 t-29.5 -21t-31.5 -35.5t-25.5 -30q-17 -21 -19 -21q-4 0 -4 8zM496 186l18 19q26 28 40 43.5t29 43.5t15 52q0 12 -2 12t-6 -4q4 -12 4 -22q0 -2 -2 -2l-8 16q-11 -16 -32 -50l-20 -34q-30 -63 -36 -74z" />
<glyph unicode="&#xe4;" horiz-adv-x="659" d="M94 104q0 76 54.5 162.5t139.5 146.5t165 60q96 0 133 -106q24 0 24 -15q0 -10 -2 -20t-4 -18.5t-7 -18.5l-8 -16t-10.5 -16.5t-11 -15t-13 -15t-12 -13.5t-13 -14t-11.5 -12q-6 -5 -17 -15.5t-20 -19.5q-32 -62 -32 -88q0 -43 65 -43q80 0 217 118q67 59 100 109 q4 6 9 6q4 0 4 -4q0 -2 -2 -6q-56 -73 -111 -122t-127 -91q-85 -49 -151 -49q-82 0 -82 65q0 13 2 19q-109 -72 -191 -72q-45 0 -66.5 29t-21.5 75zM178 106q0 -71 55 -71q57 0 144 57q23 81 86 166q65 91 112 107q-14 37 -45 60.5t-73 23.5q-64 0 -130.5 -57.5t-107.5 -138 t-41 -147.5zM418 627q0 23 19.5 47t43.5 24q12 0 21.5 -10.5t9.5 -25.5q0 -24 -18 -48t-43 -24q-15 0 -24 10t-9 27zM496 186l18 19q26 28 40 43.5t29 43.5t15 52q0 12 -2 12t-6 -4q4 -12 4 -22q0 -2 -2 -2l-8 16q-11 -16 -32 -50l-20 -34q-30 -63 -36 -74zM547 614 q0 23 19.5 47.5t43.5 24.5q12 0 21.5 -11t9.5 -26q0 -24 -18 -47.5t-43 -23.5q-33 0 -33 36z" />
<glyph unicode="&#xe5;" horiz-adv-x="659" d="M94 104q0 76 54.5 162.5t139.5 146.5t165 60q96 0 133 -106q24 0 24 -15q0 -10 -2 -20t-4 -18.5t-7 -18.5l-8 -16t-10.5 -16.5t-11 -15t-13 -15t-12 -13.5t-13 -14t-11.5 -12q-6 -5 -17 -15.5t-20 -19.5q-32 -62 -32 -88q0 -43 65 -43q80 0 217 118q67 59 100 109 q4 6 9 6q4 0 4 -4q0 -2 -2 -6q-56 -73 -111 -122t-127 -91q-85 -49 -151 -49q-82 0 -82 65q0 13 2 19q-109 -72 -191 -72q-45 0 -66.5 29t-21.5 75zM178 106q0 -71 55 -71q57 0 144 57q23 81 86 166q65 91 112 107q-14 37 -45 60.5t-73 23.5q-64 0 -130.5 -57.5t-107.5 -138 t-41 -147.5zM457 672q0 47 36.5 81.5t86.5 34.5q33 0 54 -19.5t21 -49.5q0 -45 -35.5 -81t-82.5 -36q-34 0 -57 20t-23 50zM492 684q0 -23 17.5 -41t39.5 -18q29 0 49 21t20 54q0 23 -16.5 43.5t-42.5 20.5q-30 0 -48.5 -24t-18.5 -56zM496 186l18 19q26 28 40 43.5t29 43.5 t15 52q0 12 -2 12t-6 -4q4 -12 4 -22q0 -2 -2 -2l-8 16q-11 -16 -32 -50l-20 -34q-30 -63 -36 -74z" />
<glyph unicode="&#xe6;" horiz-adv-x="786" d="M94 106q0 63 45 148q42 83 141 151t173 68q85 0 125 -84q39 37 88 64q40 22 73 22q25 0 39.5 -12t14.5 -27q0 -9 -4 -17.5t-12 -17t-14.5 -14.5t-18.5 -15.5t-17 -13.5q-7 -7 -219 -159q-12 -41 -12 -84q0 -105 94 -105q109 0 268 135q67 59 100 109q4 6 9 6q4 0 4 -4 q0 -2 -2 -6q-115 -148 -275 -230q-77 -36 -157 -36q-59 0 -95 26t-36 80q0 11 4 35q-52 -45 -99 -78q-70 -47 -135 -47q-41 0 -61.5 30t-20.5 76zM180 102q0 -65 56 -65q29 0 61 18q19 10 37 23.5t46.5 37t35.5 29.5q47 143 151 236q-15 31 -45 49.5t-65 18.5 q-62 0 -135.5 -66.5t-108.5 -136.5q-33 -67 -33 -144zM516 221q132 94 182 144q58 58 58 86q0 12 -13 12q-55 0 -125.5 -84t-101.5 -158z" />
<glyph unicode="&#xe7;" d="M57 -213q0 3 6.5 6.5t12.5 3.5t6 -4q6 -26 25 -43.5t47 -17.5q38 0 63 19t25 52q0 72 -115 72q-2 0 -6 -3t-6 -3q-15 0 -15 2q0 1 11 14t32 41t41 58q-123 8 -123 98q0 100 81 205.5t182 165.5q48 26 86 26q30 0 47.5 -15t17.5 -44q0 -25 -6 -35q-10 -16 -31 -28.5 t-43 -12.5q-18 0 -18 10q0 1 17.5 30.5t17.5 49.5q0 8 -6.5 13.5t-16.5 5.5q-57 0 -111.5 -63.5t-91.5 -139.5q-32 -66 -32 -137q0 -103 102 -103q106 0 260 135q67 59 100 109q4 6 9 6q4 0 4 -4q0 -2 -2 -6q-115 -148 -275 -230q-68 -33 -147 -36q-2 -4 -20.5 -32.5 t-22.5 -35.5q108 0 108 -88q0 -44 -35.5 -76.5t-80.5 -32.5q-25 0 -52 13t-39 39q-6 12 -6 16z" />
<glyph unicode="&#xe8;" d="M27 102q0 5 2 7q9 9 45 36q62 196 250 308q44 24 73 24q24 0 39 -13t15 -28q0 -8 -3.5 -16.5t-12.5 -17.5l-14.5 -14.5t-18.5 -16t-17 -13.5q-7 -7 -219 -159q-12 -41 -12 -84q0 -105 94 -105q109 0 268 135q67 59 100 109q4 6 9 6q4 0 4 -4q0 -2 -2 -6 q-115 -148 -275 -230q-77 -36 -155 -36q-55 0 -95.5 22t-40.5 74q0 10 9 51q-6 -4 -16 -12.5t-17 -14.5t-8 -6q-2 0 -2 4zM174 221q132 94 182 144q58 58 58 86q0 12 -13 12q-12 0 -28 -8q-62 -26 -117 -94t-82 -140zM262 760q0 13 6.5 26t14.5 13q9 0 14 -11l88 -213 q1 -2 3.5 -7.5t4.5 -9.5t2 -5q0 -2 -2 -2q-10 0 -14 8q-109 180 -115 189q-2 2 -2 12z" />
<glyph unicode="&#xe9;" d="M27 102q0 5 2 7q9 9 45 36q62 196 250 308q44 24 73 24q24 0 39 -13t15 -28q0 -8 -3.5 -16.5t-12.5 -17.5l-14.5 -14.5t-18.5 -16t-17 -13.5q-7 -7 -219 -159q-12 -41 -12 -84q0 -105 94 -105q109 0 268 135q67 59 100 109q4 6 9 6q4 0 4 -4q0 -2 -2 -6 q-115 -148 -275 -230q-77 -36 -155 -36q-55 0 -95.5 22t-40.5 74q0 10 9 51q-6 -4 -16 -12.5t-17 -14.5t-8 -6q-2 0 -2 4zM174 221q132 94 182 144q58 58 58 86q0 12 -13 12q-12 0 -28 -8q-62 -26 -117 -94t-82 -140zM338 557q0 1 10 6l256 150q9 6 17 6q4 0 4 -8t-7 -21 t-14 -16q-34 -16 -111.5 -51t-136.5 -64q-8 -4 -12 -4q-6 0 -6 2z" />
<glyph unicode="&#xea;" d="M27 102q0 5 2 7q9 9 45 36q62 196 250 308q44 24 73 24q24 0 39 -13t15 -28q0 -8 -3.5 -16.5t-12.5 -17.5l-14.5 -14.5t-18.5 -16t-17 -13.5q-7 -7 -219 -159q-12 -41 -12 -84q0 -105 94 -105q109 0 268 135q67 59 100 109q4 6 9 6q4 0 4 -4q0 -2 -2 -6 q-115 -148 -275 -230q-77 -36 -155 -36q-55 0 -95.5 22t-40.5 74q0 10 9 51q-6 -4 -16 -12.5t-17 -14.5t-8 -6q-2 0 -2 4zM174 221q132 94 182 144q58 58 58 86q0 12 -13 12q-12 0 -28 -8q-62 -26 -117 -94t-82 -140zM276 578q0 1 2 2l4 2t3 2q37 31 114 108 q12 12 32.5 31.5t38.5 37.5t36 38q12 12 26 12q5 0 5 -2q2 -14 5.5 -80.5t6.5 -99.5q0 -4 1 -14.5t1 -14.5q0 -9 -3 -15t-10 -13t-10 -11q-1 -1 -4 -5t-6 -7.5t-4 -3.5q-8 0 -8 20q0 47 -2.5 123t-3.5 76q-7 0 -19 -12q-80 -73 -166 -168q-3 -3 -17 -6t-19 -3z" />
<glyph unicode="&#xeb;" d="M27 102q0 5 2 7q9 9 45 36q62 196 250 308q44 24 73 24q24 0 39 -13t15 -28q0 -8 -3.5 -16.5t-12.5 -17.5l-14.5 -14.5t-18.5 -16t-17 -13.5q-7 -7 -219 -159q-12 -41 -12 -84q0 -105 94 -105q109 0 268 135q67 59 100 109q4 6 9 6q4 0 4 -4q0 -2 -2 -6 q-115 -148 -275 -230q-77 -36 -155 -36q-55 0 -95.5 22t-40.5 74q0 10 9 51q-6 -4 -16 -12.5t-17 -14.5t-8 -6q-2 0 -2 4zM174 221q132 94 182 144q58 58 58 86q0 12 -13 12q-12 0 -28 -8q-62 -26 -117 -94t-82 -140zM338 627q0 23 19.5 47t43.5 24q12 0 21.5 -10.5 t9.5 -25.5q0 -24 -18 -48t-43 -24q-15 0 -24 10t-9 27zM467 614q0 23 19.5 47.5t43.5 24.5q12 0 21.5 -11t9.5 -26q0 -24 -18 -47.5t-43 -23.5q-33 0 -33 36z" />
<glyph unicode="&#xec;" horiz-adv-x="382" d="M90 68q0 37 20 78.5t62 107.5q78 115 78 152q0 13 -12.5 22.5t-26.5 9.5q-11 0 -22.5 -4t-17 -7t-19 -12.5t-17.5 -11.5t-8 -2t-4 5q0 3 37 28t86 25q33 0 49 -13t16 -45q0 -24 -21.5 -67.5t-48 -84.5t-48 -89t-21.5 -80q0 -53 72 -53q38 0 98 36.5t113 81.5 q67 59 100 109q4 6 8 6t4 -4q0 -2 -2 -6q-56 -74 -110.5 -122.5t-126.5 -90.5q-77 -45 -144 -45q-43 0 -68.5 20.5t-25.5 55.5zM190 764q0 13 6.5 26t14.5 13q9 0 14 -10l88 -213q1 -3 3.5 -8t5 -9.5t2.5 -5.5q0 -2 -2 -2q-11 0 -15 8q-22 36 -45 75t-38 64t-31 50 q-3 3 -3 12z" />
<glyph unicode="&#xed;" horiz-adv-x="382" d="M90 68q0 37 20 78.5t62 107.5q78 115 78 152q0 13 -12.5 22.5t-26.5 9.5q-11 0 -22.5 -4t-17 -7t-19 -12.5t-17.5 -11.5t-8 -2t-4 5q0 3 37 28t86 25q33 0 49 -13t16 -45q0 -24 -21.5 -67.5t-48 -84.5t-48 -89t-21.5 -80q0 -53 72 -53q38 0 98 36.5t113 81.5 q67 59 100 109q4 6 8 6t4 -4q0 -2 -2 -6q-56 -74 -110.5 -122.5t-126.5 -90.5q-77 -45 -144 -45q-43 0 -68.5 20.5t-25.5 55.5zM266 561q0 1 10 6l256 150q9 6 17 6q4 0 4 -8t-7 -21t-14 -16q-40 -19 -85 -39t-81 -36.5t-81 -39.5q-8 -4 -13 -4q-6 0 -6 2z" />
<glyph unicode="&#xee;" horiz-adv-x="382" d="M90 68q0 37 20 78.5t62 107.5q78 115 78 152q0 13 -12.5 22.5t-26.5 9.5q-11 0 -22.5 -4t-17 -7t-19 -12.5t-17.5 -11.5t-8 -2t-4 5q0 3 37 28t86 25q33 0 49 -13t16 -45q0 -24 -21.5 -67.5t-48 -84.5t-48 -89t-21.5 -80q0 -53 72 -53q38 0 98 36.5t113 81.5 q67 59 100 109q4 6 8 6t4 -4q0 -2 -2 -6q-56 -74 -110.5 -122.5t-126.5 -90.5q-77 -45 -144 -45q-43 0 -68.5 20.5t-25.5 55.5zM205 582q0 1 1.5 2t3.5 2t3 2q43 36 115 108q96 96 106 107q3 3 13 7.5t14 4.5t4 -2q2 -14 5.5 -80.5t6.5 -99.5q0 -4 1 -14.5t1 -14.5 q0 -9 -3 -15t-9.5 -13t-9.5 -11q-1 -1 -4.5 -5t-6.5 -7.5t-4 -3.5q-8 0 -8 20q0 47 -2.5 123t-3.5 76q-6 0 -18 -12q-80 -73 -166 -168q-8 -8 -37 -8z" />
<glyph unicode="&#xef;" horiz-adv-x="382" d="M90 68q0 37 20 78.5t62 107.5q78 115 78 152q0 13 -12.5 22.5t-26.5 9.5q-11 0 -22.5 -4t-17 -7t-19 -12.5t-17.5 -11.5t-8 -2t-4 5q0 3 37 28t86 25q33 0 49 -13t16 -45q0 -24 -21.5 -67.5t-48 -84.5t-48 -89t-21.5 -80q0 -53 72 -53q38 0 98 36.5t113 81.5 q67 59 100 109q4 6 8 6t4 -4q0 -2 -2 -6q-56 -74 -110.5 -122.5t-126.5 -90.5q-77 -45 -144 -45q-43 0 -68.5 20.5t-25.5 55.5zM266 631q0 23 20 47t44 24q12 0 21 -10.5t9 -25.5q0 -24 -18 -48t-43 -24q-15 0 -24 10t-9 27zM395 618q0 23 20 47.5t44 24.5q12 0 21 -11 t9 -26q0 -24 -18 -47.5t-43 -23.5q-33 0 -33 36z" />
<glyph unicode="&#xf0;" horiz-adv-x="438" d="M70 88q0 112 104 220.5t223 127.5q12 2 29 2q9 0 45 -6q4 18 4 51q0 143 -84 283q-16 -6 -48.5 -24.5t-45.5 -28.5q-23 -15 -33 -15t-12 4q-8 8 -8 17q0 2 4 6q17 7 65 29.5t66 29.5q-26 37 -76.5 92.5t-69.5 55.5q-10 0 -10 2q0 3 8.5 7.5t14.5 4.5q8 0 18 -2 q16 -4 65 -47.5t85 -93.5q16 7 50 21.5t50 21.5q5 2 21.5 9t21.5 9q2 2 10 2q17 0 17 -6q0 -4 -13 -8q-63 -23 -141 -68q61 -112 78 -166q22 -67 22 -137q0 -147 -79 -280q-51 -86 -123 -148.5t-158 -62.5q-45 0 -72.5 25t-27.5 73zM150 82q0 -68 51 -68q39 0 86 31 q65 42 100 101.5t57 140.5q19 67 19 108q0 27 -37 27q-60 0 -145 -78q-48 -45 -89.5 -124.5t-41.5 -137.5z" />
<glyph unicode="&#xf1;" horiz-adv-x="593" d="M37 18q0 9 29 54q55 88 106 182l27 49q27 49 41 80.5t14 48.5q0 8 -7 14.5t-16 6.5q-24 0 -96 -50q-4 -2 -8 -2t-4 5q0 3 37 28q64 41 104 41q49 0 49 -43q0 -37 -41 -113q103 74 168 109q73 35 103 35q35 0 35 -39q0 -14 -3 -30t-11 -35.5t-13.5 -34t-18 -37.5 t-18 -32.5t-19.5 -33.5t-16 -28q-69 -127 -69 -166q0 -21 22 -21q39 0 103 40.5t120 90.5q92 88 111 117q4 6 8 6t4 -4q0 -2 -2 -6q-106 -140 -252 -232q-85 -53 -133 -53q-51 0 -51 47q0 19 9 47.5t18.5 49t24.5 50t18 36.5q8 15 32 58t40 78t22 68q0 25 -15 25 q-21 0 -77 -29q-25 -12 -85.5 -53.5t-66.5 -50.5q-1 -3 -14.5 -27.5t-26 -47t-12.5 -23.5l-72 -134q-31 -51 -41 -77q-6 -11 -12 -11q-13 0 -29 17.5t-16 29.5zM307 614q0 6 12 21q2 2 23 29t30.5 36.5t29.5 28t38.5 26t38.5 7.5q21 0 39 -21t30 -45.5t35 -45.5t52 -21 q27 0 53 33q23 31 23 61v14q0 17 8 17t8 -33q0 -39 -33.5 -79t-77.5 -40q-28 0 -48 10t-29.5 21t-26.5 37q-14 22 -19.5 29.5t-16 16.5t-21.5 9q-19 0 -38.5 -11.5t-29.5 -21t-31.5 -35.5t-25.5 -30q-17 -21 -19 -21q-4 0 -4 8z" />
<glyph unicode="&#xf2;" horiz-adv-x="536" d="M63 86q0 85 46 169.5t125 140t165 57.5q2 25 15.5 50t38.5 25q18 0 32 -26q25 -55 25 -109q0 -26 -6 -47q4 -2 20 -2q31 0 90 35q10 6 44.5 29.5t37.5 25.5q4 2 9 2q4 0 4 -4t-37 -29q-71 -45 -74 -47q-49 -23 -98 -26q-27 -104 -117 -221q-98 -127 -207 -127 q-49 0 -81 26.5t-32 77.5zM139 80q0 -28 14.5 -51t45.5 -23q38 0 88 34.5t98 98.5q70 95 96 193q-54 10 -75 57q-7 18 -7 39q-79 0 -139 -65t-90 -148q-31 -91 -31 -135zM334 760q0 13 6 26t14 13q10 0 15 -11l88 -213q1 -2 3.5 -7.5t4.5 -9.5t2 -5q0 -2 -2 -2q-10 0 -14 8 q-109 180 -115 189q-2 2 -2 12zM455 412q0 -38 32 -58q7 31 7 52q0 14 -7.5 47.5t-15.5 33.5t-12 -16t-4 -29q6 -2 12 -8t6 -12q0 -4 -5 -8t-7 -4q-1 0 -3 1t-3 1z" />
<glyph unicode="&#xf3;" horiz-adv-x="536" d="M63 86q0 85 46 169.5t125 140t165 57.5q2 25 15.5 50t38.5 25q18 0 32 -26q25 -55 25 -109q0 -26 -6 -47q4 -2 20 -2q31 0 90 35q10 6 44.5 29.5t37.5 25.5q4 2 9 2q4 0 4 -4t-37 -29q-71 -45 -74 -47q-49 -23 -98 -26q-27 -104 -117 -221q-98 -127 -207 -127 q-49 0 -81 26.5t-32 77.5zM139 80q0 -28 14.5 -51t45.5 -23q38 0 88 34.5t98 98.5q70 95 96 193q-54 10 -75 57q-7 18 -7 39q-79 0 -139 -65t-90 -148q-31 -91 -31 -135zM410 557q0 1 10 6l256 150q9 6 16 6q4 0 4 -8t-6.5 -21t-13.5 -16q-34 -16 -111.5 -51t-136.5 -64 q-8 -4 -12 -4q-6 0 -6 2zM455 412q0 -38 32 -58q7 31 7 52q0 14 -7.5 47.5t-15.5 33.5t-12 -16t-4 -29q6 -2 12 -8t6 -12q0 -4 -5 -8t-7 -4q-1 0 -3 1t-3 1z" />
<glyph unicode="&#xf4;" horiz-adv-x="536" d="M63 86q0 85 46 169.5t125 140t165 57.5q2 25 15.5 50t38.5 25q18 0 32 -26q25 -55 25 -109q0 -26 -6 -47q4 -2 20 -2q31 0 90 35q10 6 44.5 29.5t37.5 25.5q4 2 9 2q4 0 4 -4t-37 -29q-71 -45 -74 -47q-49 -23 -98 -26q-27 -104 -117 -221q-98 -127 -207 -127 q-49 0 -81 26.5t-32 77.5zM139 80q0 -28 14.5 -51t45.5 -23q38 0 88 34.5t98 98.5q70 95 96 193q-54 10 -75 57q-7 18 -7 39q-79 0 -139 -65t-90 -148q-31 -91 -31 -135zM348 578q0 1 1.5 2t3.5 2t3 2q43 36 115 108q12 12 32.5 31.5t38.5 37.5t36 38q12 12 26 12q4 0 4 -2 q2 -15 6 -81.5t7 -98.5q0 -4 1 -14.5t1 -14.5q0 -9 -3 -15t-10 -13t-10 -11q-1 -1 -4 -5t-6 -7.5t-4 -3.5q-8 0 -8 20q0 29 -1.5 77.5t-3 85t-2.5 36.5q-6 0 -18 -12q-80 -73 -166 -168q-3 -3 -17 -6t-20 -3zM455 412q0 -38 32 -58q7 31 7 52q0 14 -7.5 47.5t-15.5 33.5 t-12 -16t-4 -29q6 -2 12 -8t6 -12q0 -4 -5 -8t-7 -4q-1 0 -3 1t-3 1z" />
<glyph unicode="&#xf5;" horiz-adv-x="536" d="M63 86q0 85 46 169.5t125 140t165 57.5q2 25 15.5 50t38.5 25q18 0 32 -26q25 -55 25 -109q0 -26 -6 -47q4 -2 20 -2q31 0 90 35q10 6 44.5 29.5t37.5 25.5q4 2 9 2q4 0 4 -4t-37 -29q-71 -45 -74 -47q-49 -23 -98 -26q-27 -104 -117 -221q-98 -127 -207 -127 q-49 0 -81 26.5t-32 77.5zM139 80q0 -28 14.5 -51t45.5 -23q38 0 88 34.5t98 98.5q70 95 96 193q-54 10 -75 57q-7 18 -7 39q-79 0 -139 -65t-90 -148q-31 -91 -31 -135zM305 614q0 6 12 21q2 2 23 29t30.5 36.5t29.5 28t38.5 26t38.5 7.5q21 0 39 -21t30 -45.5t35 -45.5 t52 -21q27 0 53 33q23 31 23 61v14q0 17 8 17t8 -33q0 -39 -33.5 -79t-77.5 -40q-28 0 -48 10t-29.5 21t-26.5 37q-14 22 -19.5 29.5t-16 16.5t-21.5 9q-19 0 -38.5 -11.5t-29.5 -21t-31.5 -35.5t-25.5 -30q-17 -21 -19 -21q-4 0 -4 8zM455 412q0 -38 32 -58q7 31 7 52 q0 14 -7.5 47.5t-15.5 33.5t-12 -16t-4 -29q6 -2 12 -8t6 -12q0 -4 -5 -8t-7 -4q-1 0 -3 1t-3 1z" />
<glyph unicode="&#xf6;" horiz-adv-x="536" d="M63 86q0 85 46 169.5t125 140t165 57.5q2 25 15.5 50t38.5 25q18 0 32 -26q25 -55 25 -109q0 -26 -6 -47q4 -2 20 -2q31 0 90 35q10 6 44.5 29.5t37.5 25.5q4 2 9 2q4 0 4 -4t-37 -29q-71 -45 -74 -47q-49 -23 -98 -26q-27 -104 -117 -221q-98 -127 -207 -127 q-49 0 -81 26.5t-32 77.5zM139 80q0 -28 14.5 -51t45.5 -23q38 0 88 34.5t98 98.5q70 95 96 193q-54 10 -75 57q-7 18 -7 39q-79 0 -139 -65t-90 -148q-31 -91 -31 -135zM410 627q0 23 19.5 47t43.5 24q12 0 21.5 -10.5t9.5 -25.5q0 -24 -18.5 -48t-43.5 -24q-32 0 -32 37z M455 412q0 -38 32 -58q7 31 7 52q0 14 -7.5 47.5t-15.5 33.5t-12 -16t-4 -29q6 -2 12 -8t6 -12q0 -4 -5 -8t-7 -4q-1 0 -3 1t-3 1zM539 614q0 23 19.5 47.5t43.5 24.5q12 0 21.5 -11t9.5 -26q0 -24 -18.5 -47.5t-43.5 -23.5q-32 0 -32 36z" />
<glyph unicode="&#xf7;" horiz-adv-x="819" d="M188 264q0 11 20.5 24t37.5 13q196 4 237 4q22 0 137 -2t244 -2q13 0 13 -16q0 -41 -142 -41q-12 0 -39.5 1.5t-77 4t-104.5 4.5q-49 2 -111 2q-21 0 -78.5 -1t-115.5 -1q-21 0 -21 10zM328 25q0 33 29 64.5t63 31.5q39 0 39 -41q0 -33 -28 -64.5t-62 -31.5q-19 0 -30 11 t-11 30zM596 494q0 33 29 64.5t63 31.5q39 0 39 -41q0 -33 -28 -64.5t-62 -31.5q-19 0 -30 11t-11 30z" />
<glyph unicode="&#xf8;" horiz-adv-x="536" d="M12 -119q0 2 2.5 5.5t3.5 4.5l95 105q-50 23 -50 90q0 85 46 169.5t125 140t165 57.5q2 25 15.5 50t38.5 25q18 0 32 -26q19 -44 23 -74l158 172q9 12 22 12q10 0 10 -6q0 -4 -2 -4l-186 -203v-6q0 -26 -6 -47q4 -2 20 -2q31 0 90 35q10 6 44.5 29.5t37.5 25.5q4 2 9 2 q4 0 4 -4t-37 -29q-71 -45 -74 -47q-49 -23 -98 -26q-27 -104 -117 -221q-98 -127 -207 -127q-25 0 -43 6q-23 -23 -88 -97q-8 -12 -29 -12q-4 0 -4 2zM139 80q0 -26 11 -45l286 315q-18 15 -30 39q-7 18 -7 39q-79 0 -139 -65t-90 -148q-31 -91 -31 -135zM162 18 q12 -12 37 -12q38 0 88 34.5t98 98.5q70 95 96 193q-17 3 -26 8zM455 412q0 -20 8 -33q5 6 15.5 17.5t15.5 17.5q-2 21 -9 47t-14 26q-8 0 -12 -16t-4 -29q6 -2 12 -8t6 -12q0 -4 -5 -8t-7 -4q-1 0 -3 1t-3 1zM475 362q4 -4 12 -8q5 20 5 27q-4 -6 -17 -19z" />
<glyph unicode="&#xf9;" horiz-adv-x="589" d="M102 70q0 55 70 184q4 8 26.5 41t37 61.5t14.5 46.5q0 17 -13 26t-24 9q-27 0 -78 -35q-4 -2 -8 -2t-4 5q0 3 37 28q39 25 86 25q29 0 50 -12t21 -39q0 -21 -10 -48t-19.5 -43.5t-30.5 -50t-26 -41.5q-63 -107 -63 -166q0 -18 12 -28.5t33 -10.5q40 0 92.5 35t93.5 80 q19 50 78 164q17 31 27 47.5t29 41.5t38 40q15 10 35 10q19 0 19 -12q0 -38 -107 -162q-25 -46 -39.5 -77t-28.5 -77.5t-14 -86.5q0 -25 17 -25q9 0 25 8t40.5 26t37.5 28t42 34l29 23q60 49 82 73q25 27 53 64q4 6 8 6t4 -4q0 -2 -2 -6q-12 -18 -45 -55q-34 -37 -101 -95.5 t-116 -93.5q-54 -41 -88 -41q-47 0 -47 58q0 27 14 81q-43 -37 -64.5 -54t-65 -38.5t-81.5 -21.5q-34 0 -55 22.5t-21 57.5zM305 760q0 13 6.5 26t14.5 13t14 -11l88 -213q1 -2 3.5 -7.5t4.5 -9.5t2 -5q0 -2 -2 -2q-10 0 -14 8q-109 180 -115 189q-2 2 -2 12zM539 307 q3 3 11 12.5t12 14t11 14t11 16t8 15.5t6 17.5t2 17.5q-5 0 -31.5 -49t-29.5 -58z" />
<glyph unicode="&#xfa;" horiz-adv-x="589" d="M102 70q0 55 70 184q4 8 26.5 41t37 61.5t14.5 46.5q0 17 -13 26t-24 9q-27 0 -78 -35q-4 -2 -8 -2t-4 5q0 3 37 28q39 25 86 25q29 0 50 -12t21 -39q0 -21 -10 -48t-19.5 -43.5t-30.5 -50t-26 -41.5q-63 -107 -63 -166q0 -18 12 -28.5t33 -10.5q40 0 92.5 35t93.5 80 q19 50 78 164q17 31 27 47.5t29 41.5t38 40q15 10 35 10q19 0 19 -12q0 -38 -107 -162q-25 -46 -39.5 -77t-28.5 -77.5t-14 -86.5q0 -25 17 -25q9 0 25 8t40.5 26t37.5 28t42 34l29 23q60 49 82 73q25 27 53 64q4 6 8 6t4 -4q0 -2 -2 -6q-12 -18 -45 -55q-34 -37 -101 -95.5 t-116 -93.5q-54 -41 -88 -41q-47 0 -47 58q0 27 14 81q-43 -37 -64.5 -54t-65 -38.5t-81.5 -21.5q-34 0 -55 22.5t-21 57.5zM381 557q0 1 10 6l256 150q9 6 17 6q4 0 4 -8t-7 -21t-14 -16q-34 -16 -111.5 -51t-136.5 -64q-8 -4 -12 -4q-6 0 -6 2zM539 307q3 3 11 12.5t12 14 t11 14t11 16t8 15.5t6 17.5t2 17.5q-5 0 -31.5 -49t-29.5 -58z" />
<glyph unicode="&#xfb;" horiz-adv-x="589" d="M102 70q0 55 70 184q4 8 26.5 41t37 61.5t14.5 46.5q0 17 -13 26t-24 9q-27 0 -78 -35q-4 -2 -8 -2t-4 5q0 3 37 28q39 25 86 25q29 0 50 -12t21 -39q0 -21 -10 -48t-19.5 -43.5t-30.5 -50t-26 -41.5q-63 -107 -63 -166q0 -18 12 -28.5t33 -10.5q40 0 92.5 35t93.5 80 q19 50 78 164q17 31 27 47.5t29 41.5t38 40q15 10 35 10q19 0 19 -12q0 -38 -107 -162q-25 -46 -39.5 -77t-28.5 -77.5t-14 -86.5q0 -25 17 -25q9 0 25 8t40.5 26t37.5 28t42 34l29 23q60 49 82 73q25 27 53 64q4 6 8 6t4 -4q0 -2 -2 -6q-12 -18 -45 -55q-34 -37 -101 -95.5 t-116 -93.5q-54 -41 -88 -41q-47 0 -47 58q0 27 14 81q-43 -37 -64.5 -54t-65 -38.5t-81.5 -21.5q-34 0 -55 22.5t-21 57.5zM319 578q0 1 2 2l4 2t3 2q37 31 114 108q12 12 32.5 31.5t38.5 37.5t36 38q12 12 26 12q5 0 5 -2q2 -14 5.5 -80.5t6.5 -99.5q0 -4 1 -14.5t1 -14.5 q0 -9 -3 -15t-10 -13t-10 -11q-1 -1 -4 -5t-6 -7.5t-4 -3.5q-8 0 -8 20q0 47 -2.5 123t-3.5 76q-7 0 -19 -12q-80 -73 -166 -168q-3 -3 -17 -6t-19 -3zM539 307q3 3 11 12.5t12 14t11 14t11 16t8 15.5t6 17.5t2 17.5q-5 0 -31.5 -49t-29.5 -58z" />
<glyph unicode="&#xfc;" horiz-adv-x="589" d="M102 70q0 55 70 184q4 8 26.5 41t37 61.5t14.5 46.5q0 17 -13 26t-24 9q-27 0 -78 -35q-4 -2 -8 -2t-4 5q0 3 37 28q39 25 86 25q29 0 50 -12t21 -39q0 -21 -10 -48t-19.5 -43.5t-30.5 -50t-26 -41.5q-63 -107 -63 -166q0 -18 12 -28.5t33 -10.5q40 0 92.5 35t93.5 80 q19 50 78 164q17 31 27 47.5t29 41.5t38 40q15 10 35 10q19 0 19 -12q0 -38 -107 -162q-25 -46 -39.5 -77t-28.5 -77.5t-14 -86.5q0 -25 17 -25q9 0 25 8t40.5 26t37.5 28t42 34l29 23q60 49 82 73q25 27 53 64q4 6 8 6t4 -4q0 -2 -2 -6q-12 -18 -45 -55q-34 -37 -101 -95.5 t-116 -93.5q-54 -41 -88 -41q-47 0 -47 58q0 27 14 81q-43 -37 -64.5 -54t-65 -38.5t-81.5 -21.5q-34 0 -55 22.5t-21 57.5zM381 627q0 23 19.5 47t43.5 24q12 0 21.5 -10.5t9.5 -25.5q0 -24 -18 -48t-43 -24q-15 0 -24 10t-9 27zM510 614q0 23 19.5 47.5t43.5 24.5 q12 0 21.5 -11t9.5 -26q0 -24 -18 -47.5t-43 -23.5q-33 0 -33 36zM539 307q3 3 11 12.5t12 14t11 14t11 16t8 15.5t6 17.5t2 17.5q-5 0 -31.5 -49t-29.5 -58z" />
<glyph unicode="&#xfd;" horiz-adv-x="641" d="M-532 -1014q0 50 26.5 107t62 103t90 100t90 83.5t84 68.5t52.5 42l369 303q83 152 139 244q-57 -41 -139 -41q-52 0 -83.5 28t-31.5 80q0 65 45 150q10 18 34.5 53.5t41 62t16.5 36.5q0 12 -11 20t-20.5 10t-17.5 2q-9 0 -17 -1.5t-18.5 -7t-13.5 -7t-17 -10.5l-14 -9 q-4 -2 -8 -2t-4 5q0 3 37 28t88 25q27 0 52.5 -18.5t25.5 -45.5q0 -15 -15 -42.5t-36.5 -60t-28.5 -48.5q-45 -88 -45 -148q0 -76 61 -76q38 0 79 18t65 48q23 29 68 104t67 121q9 19 17.5 43t12.5 33.5t13.5 17.5t25.5 9q40 4 45 4q7 0 7 -2q0 -3 -3 -6l-86 -134 q-43 -71 -159 -247q-39 -58 -119 -193q58 46 174 128.5t158 113.5q98 73 135 112q22 25 51 64q4 6 8 6t4 -4q0 -2 -2 -6q-33 -46 -53 -66q-4 -4 -13.5 -14t-16.5 -16.5t-22 -19.5t-40.5 -32.5t-61.5 -46.5q-22 -16 -93.5 -68.5t-134 -100t-118.5 -93.5l-336 -569 q-32 -55 -56 -94t-63.5 -96t-72 -92.5t-71 -62t-70.5 -26.5q-58 0 -95.5 35.5t-37.5 97.5zM-467 -1014q0 -41 24.5 -69.5t63.5 -28.5q27 0 70 41t89 105t82 120t66 109l291 487l-278 -237q-5 -4 -52 -42.5t-84 -70t-91.5 -86.5t-90.5 -104t-63 -109.5t-27 -114.5zM434 557 q0 1 10 6l256 150q9 6 17 6q4 0 4 -8t-7 -21t-14 -16q-40 -19 -85 -39t-81 -36.5t-81 -39.5q-8 -4 -13 -4q-6 0 -6 2z" />
<glyph unicode="&#xfe;" horiz-adv-x="638" d="M-406 -770q0 21 23 49q7 8 25 27t32 35.5t23 31.5q344 552 489 801q1 7 3.5 22.5t4 23t5.5 17t10 15.5q2 2 14.5 7.5t18.5 12.5q219 391 219 465q0 18 -12.5 28.5t-28.5 10.5q-8 0 -15.5 -1.5t-16.5 -6.5l-13.5 -7.5t-16.5 -10t-14 -9.5q-4 -4 -10 -4q-2 0 -2 4 q0 6 37 31q20 13 50.5 24t51.5 11q27 0 54.5 -15.5t27.5 -46.5q0 -12 -8.5 -33.5t-24 -50t-29.5 -52.5t-32.5 -54t-24.5 -41l-69 -117q126 113 258 113q92 0 92 -88q0 -193 -226 -375q-38 -31 -89 -49t-85 -18q-51 0 -85.5 30.5t-43.5 83.5q-344 -589 -417 -725 q-10 -18 -33.5 -40t-52.5 -44t-35 -28q-40 -35 -47 -35t-7 8zM268 172q0 -52 28 -96.5t79 -44.5q63 0 119 45q77 64 124.5 140.5t47.5 150.5q0 104 -78 104q-63 0 -131.5 -31.5t-116.5 -79.5q-6 -11 -20.5 -37t-20.5 -38.5t-15 -33.5t-12.5 -40t-3.5 -39z" />
<glyph unicode="&#xff;" horiz-adv-x="641" d="M-532 -1014q0 50 26.5 107t62 103t90 100t90 83.5t84 68.5t52.5 42l369 303q83 152 139 244q-57 -41 -139 -41q-52 0 -83.5 28t-31.5 80q0 65 45 150q10 18 34.5 53.5t41 62t16.5 36.5q0 12 -11 20t-20.5 10t-17.5 2q-9 0 -17 -1.5t-18.5 -7t-13.5 -7t-17 -10.5l-14 -9 q-4 -2 -8 -2t-4 5q0 3 37 28t88 25q27 0 52.5 -18.5t25.5 -45.5q0 -15 -15 -42.5t-36.5 -60t-28.5 -48.5q-45 -88 -45 -148q0 -76 61 -76q38 0 79 18t65 48q23 29 68 104t67 121q9 19 17.5 43t12.5 33.5t13.5 17.5t25.5 9q40 4 45 4q7 0 7 -2q0 -3 -3 -6l-86 -134 q-43 -71 -159 -247q-39 -58 -119 -193q58 46 174 128.5t158 113.5q98 73 135 112q22 25 51 64q4 6 8 6t4 -4q0 -2 -2 -6q-33 -46 -53 -66q-4 -4 -13.5 -14t-16.5 -16.5t-22 -19.5t-40.5 -32.5t-61.5 -46.5q-22 -16 -93.5 -68.5t-134 -100t-118.5 -93.5l-336 -569 q-32 -55 -56 -94t-63.5 -96t-72 -92.5t-71 -62t-70.5 -26.5q-58 0 -95.5 35.5t-37.5 97.5zM-467 -1014q0 -41 24.5 -69.5t63.5 -28.5q27 0 70 41t89 105t82 120t66 109l291 487l-278 -237q-5 -4 -52 -42.5t-84 -70t-91.5 -86.5t-90.5 -104t-63 -109.5t-27 -114.5zM434 627 q0 23 20 47t44 24q12 0 21 -10.5t9 -25.5q0 -24 -18 -48t-43 -24q-15 0 -24 10t-9 27zM563 614q0 23 20 47.5t44 24.5q12 0 21 -11t9 -26q0 -24 -18 -47.5t-43 -23.5q-33 0 -33 36z" />
<glyph unicode="&#x152;" horiz-adv-x="1591" d="M160 176q0 137 84 322q118 257 296 415t355 158q65 0 116.5 -53.5t51.5 -151.5q0 -37 -41 -37q-18 0 -34.5 9t-16.5 18q0 4 3 21.5t3 25.5q0 61 -35 96t-94 35q-151 0 -292 -134t-243 -355q-73 -158 -73 -318q0 -119 48.5 -192.5t141.5 -73.5q163 0 327.5 141t262.5 373 q74 173 74 328q0 101 -33 198q0 11 13 39.5t24 28.5q8 0 14 -14q15 -37 128.5 -56.5t186.5 -19.5q54 0 151.5 20.5t158.5 40.5q1 0 8 2t10 2q12 0 12 -8q0 -15 -14 -26q-13 -11 -35 -39q-6 -6 -12 -6q-5 0 -15 2t-14 2h-12q-30 0 -123 -6.5t-119 -6.5q-117 0 -297 33 q13 -73 13 -139q0 -111 -33 -229q169 -11 217 -11q24 0 73.5 3t76.5 3q18 0 18 -4q0 -9 -14 -16.5t-27 -9.5q-16 -2 -66 -2q-44 0 -136.5 3t-117.5 3q-30 0 -34 -2q-16 -52 -39 -103q-132 -280 -314 -444q73 -50 170 -78.5t193 -28.5q132 0 213 46q158 87 231 213 q11 17 11 30q0 7 -3.5 15t-3.5 10q0 8 9 8q11 0 34 -15.5t23 -25.5q0 -2 -2 -4q-18 -19 -54.5 -62t-67.5 -72.5t-73 -60.5q-154 -112 -372 -112q-169 0 -367 88q-146 -111 -283 -111q-115 0 -178 79t-63 216z" />
<glyph unicode="&#x153;" horiz-adv-x="778" d="M63 86q0 85 46 169.5t125 140t165 57.5q2 25 15.5 50t38.5 25q18 0 32 -26q25 -55 25 -109q0 -26 -16 -84q65 85 163 144q43 24 76 24q24 0 38.5 -11.5t14.5 -25.5q0 -22 -67 -84q-108 -99 -199 -106q-33 -75 -33 -135q0 -105 95 -105q54 0 129.5 40.5t138.5 94.5 q67 59 100 109q4 6 8 6q5 0 5 -4q0 -2 -2 -6q-115 -148 -275 -230q-74 -36 -154 -36q-58 0 -97.5 23.5t-39.5 78.5q0 26 13 55q-4 -5 -12.5 -16t-12.5 -16q-98 -127 -207 -127q-49 0 -81 26.5t-32 77.5zM139 80q0 -28 14.5 -51t45.5 -23q38 0 88 34.5t98 98.5q47 62 76 137 q-55 52 -62 152q-79 0 -139 -65t-90 -148q-31 -91 -31 -135zM455 412q0 -57 18 -105q6 15 14 47q7 31 7 52q0 14 -7.5 47.5t-15.5 33.5t-12 -16t-4 -29q6 -2 12 -8t6 -12q0 -4 -5 -8t-7 -4q-1 0 -3 1t-3 1zM526 262q61 0 164 103q58 58 58 86q0 12 -13 12q-12 0 -28 -8 q-54 -22 -101.5 -75.5t-79.5 -117.5z" />
<glyph unicode="&#x178;" horiz-adv-x="1144" d="M-92 -850q0 56 22.5 111t66.5 104.5t89.5 90.5t111 84.5t109 69.5t105.5 62q11 6 16 9l346 202l66 129q9 19 54.5 103.5t49.5 93.5q-49 -54 -85 -91.5t-94.5 -88t-109.5 -82t-116 -54t-127 -22.5t-104 32.5t-42 94.5q0 30 7 63.5t23.5 74.5t26.5 63.5t34 69.5t28 55 q12 24 43.5 88.5t50 103.5t47.5 101t47 104.5t36.5 89.5t27 81.5t8.5 55.5q0 42 -21 66t-55 24q-22 0 -41 -8q-34 -14 -55 -27.5t-30 -22.5t-13 -11q-7 -2 -12.5 -7.5t-7.5 -5.5q-4 0 -4 5q0 3 6 12q29 37 89.5 68.5t116.5 31.5q52 0 81.5 -33t29.5 -82q0 -22 -6 -43 q-19 -82 -163 -359t-165 -329q-2 -6 -14.5 -36.5t-18.5 -46.5t-12 -43t-6 -48q0 -56 38 -90.5t97 -34.5q60 0 135 39t144 98t127 122t96 118l168 350q20 39 42.5 85t32.5 66.5t23 43t25 39.5q16 21 21.5 28t21.5 14.5t39 8.5q8 0 8 -10q-1 -44 -107.5 -228t-152.5 -249 q-14 -27 -81.5 -167t-107.5 -208l-86 -164q99 58 170 94q150 77 220 137q67 59 100 109q4 6 8 6t4 -4q0 -2 -2 -6q-58 -76 -122 -130t-165 -110l-227 -129q-130 -255 -270 -493q-37 -61 -82 -119t-106.5 -120t-135 -100t-145.5 -38q-83 0 -124.5 37.5t-41.5 101.5zM4 -858 q0 -100 94 -100q208 0 391 337q72 128 148.5 260.5t120.5 213.5l-303 -183q-55 -34 -108.5 -72t-118 -94t-112 -111.5t-80 -122.5t-32.5 -128zM995 1180q0 23 20 47t44 24q12 0 21.5 -11t9.5 -26q0 -24 -18.5 -47.5t-43.5 -23.5q-15 0 -24 10t-9 27zM1124 1167q0 23 20 47.5 t44 24.5q12 0 21.5 -11t9.5 -26q0 -24 -18.5 -48t-43.5 -24q-15 0 -24 10t-9 27z" />
<glyph unicode="&#x2c6;" horiz-adv-x="471" d="M94 582q0 1 1.5 2t3.5 2t3 2q43 36 115 108q12 12 32.5 31.5t38.5 37.5t36 38q12 12 26 12q4 0 4 -2q2 -15 6 -81.5t7 -98.5q0 -4 1 -14.5t1 -14.5q0 -9 -3 -15t-10 -13t-10 -11q-1 -1 -4 -5t-6 -7.5t-4 -3.5q-8 0 -8 20q0 29 -1.5 77.5t-3 85t-2.5 36.5q-6 0 -18 -12 q-80 -73 -166 -168q-8 -8 -37 -8z" />
<glyph unicode="&#x2dc;" horiz-adv-x="471" d="M23 618q0 6 12 21q2 2 23 29t30.5 36.5t29.5 28t38.5 26t38.5 7.5q21 0 39 -21t30 -45.5t34.5 -45.5t51.5 -21q27 0 53 33q23 31 23 61v14q0 17 8 17t8 -33q0 -39 -33 -79t-77 -40q-40 0 -60.5 15.5t-44.5 52.5q-14 22 -19.5 29.5t-16 16.5t-21.5 9q-19 0 -38.5 -11.5 t-29.5 -21t-31.5 -35.5t-25.5 -30q-17 -21 -18 -21q-4 0 -4 8z" />
<glyph unicode="&#x2000;" horiz-adv-x="786" />
<glyph unicode="&#x2001;" horiz-adv-x="1573" />
<glyph unicode="&#x2002;" horiz-adv-x="786" />
<glyph unicode="&#x2003;" horiz-adv-x="1573" />
<glyph unicode="&#x2004;" horiz-adv-x="524" />
<glyph unicode="&#x2005;" horiz-adv-x="393" />
<glyph unicode="&#x2006;" horiz-adv-x="262" />
<glyph unicode="&#x2007;" horiz-adv-x="262" />
<glyph unicode="&#x2008;" horiz-adv-x="196" />
<glyph unicode="&#x2009;" horiz-adv-x="314" />
<glyph unicode="&#x200a;" horiz-adv-x="87" />
<glyph unicode="&#x2010;" horiz-adv-x="606" d="M231 330q0 11 9 24t14 13h57q21 0 74 -2.5t84 -2.5q18 0 62.5 1.5t60.5 1.5q18 0 18 -23q0 -13 -5.5 -21t-19.5 -11.5t-25.5 -4t-35.5 -0.5q-12 0 -70 2t-104 2h-88q-31 0 -31 21z" />
<glyph unicode="&#x2011;" horiz-adv-x="606" d="M231 330q0 11 9 24t14 13h57q21 0 74 -2.5t84 -2.5q18 0 62.5 1.5t60.5 1.5q18 0 18 -23q0 -13 -5.5 -21t-19.5 -11.5t-25.5 -4t-35.5 -0.5q-12 0 -70 2t-104 2h-88q-31 0 -31 21z" />
<glyph unicode="&#x2012;" horiz-adv-x="606" d="M231 330q0 11 9 24t14 13h57q21 0 74 -2.5t84 -2.5q18 0 62.5 1.5t60.5 1.5q18 0 18 -23q0 -13 -5.5 -21t-19.5 -11.5t-25.5 -4t-35.5 -0.5q-12 0 -70 2t-104 2h-88q-31 0 -31 21z" />
<glyph unicode="&#x2013;" horiz-adv-x="1024" d="M76 264q0 7 27 18t49 11q44 0 134.5 -1t139.5 -1q81 0 314 1t397 1q16 0 16 -10q0 -39 -149 -39q-45 0 -220.5 6t-349.5 6h-330q-28 0 -28 8z" />
<glyph unicode="&#x2014;" horiz-adv-x="2048" d="M379 463q0 8 21.5 17t48.5 9q166 0 611.5 3.5t780.5 3.5q13 0 23 -5.5t10 -11.5q0 -22 -70 -22h-139q-78 0 -281.5 2t-353.5 2q-116 0 -263 -1.5t-249.5 -3t-109.5 -1.5q-29 0 -29 8z" />
<glyph unicode="&#x2018;" horiz-adv-x="419" d="M354 539q0 79 52 172q32 59 68.5 105.5t100.5 117.5q10 10 13 10q6 0 6 -16q0 -6 -2 -8q-94 -102 -125 -154q-29 -50 -39 -86t-10 -86q0 -23 10 -41t19.5 -27.5t9.5 -11.5q0 -7 -9 -18.5t-20 -22.5l-12 -12q-6 -6 -13 -6q-22 0 -35.5 27t-13.5 57z" />
<glyph unicode="&#x2019;" horiz-adv-x="448" d="M365 528q0 7 6 13q34 34 64 75t47.5 71t45.5 83q15 27 33 68.5t30.5 68t20.5 33.5q32 27 66 27q27 0 27 -19q0 -27 -150 -229q-39 -53 -101 -126t-81 -73q-8 0 -8 8z" />
<glyph unicode="&#x201a;" horiz-adv-x="387" d="M109 -190q0 6 2 8q96 104 125 153q29 50 39 86t10 86q0 23 -9.5 41t-19.5 27.5t-10 11.5q0 7 9 18.5t20 22.5l12 12q7 7 12 7q22 0 35.5 -27t13.5 -57q0 -81 -51 -172q-32 -59 -68.5 -105.5t-101.5 -118.5q-10 -10 -12 -10q-6 0 -6 17z" />
<glyph unicode="&#x201c;" horiz-adv-x="530" d="M295 539q0 81 51 172q22 41 51 80.5t51.5 66t67.5 76.5q10 10 12 10t4.5 -5t2.5 -11q0 -5 -3 -8q-91 -99 -124 -154q-29 -51 -39.5 -86.5t-10.5 -85.5q0 -23 10 -41t19.5 -27.5t9.5 -11.5q0 -7 -9 -18.5t-20 -22.5l-12 -12q-6 -6 -12 -6q-22 0 -35.5 27t-13.5 57z M463 539q0 81 51 172q22 41 51 80.5t51.5 66t67.5 76.5q10 10 12 10q6 0 6 -16q0 -6 -2 -8q-94 -102 -125 -154q-29 -50 -39 -86t-10 -86q0 -23 10 -41t19.5 -27.5t9.5 -11.5q0 -7 -9 -18.5t-20 -22.5l-12 -12q-6 -6 -12 -6q-22 0 -35.5 27t-13.5 57z" />
<glyph unicode="&#x201d;" horiz-adv-x="530" d="M281 471q0 6 2 8q94 102 125 154q29 50 39 86t10 86q0 23 -9.5 41t-19.5 27.5t-10 11.5q0 7 9 18.5t20 22.5l12 12q6 6 12 6q22 0 35.5 -27t13.5 -57q0 -81 -51 -172q-22 -41 -51 -80.5t-51.5 -66t-67.5 -76.5q-10 -10 -12 -10q-6 0 -6 16zM449 471q0 6 2 8 q91 99 124 154q29 51 39.5 86.5t10.5 85.5q0 23 -9.5 41t-19.5 27.5t-10 11.5q0 7 9 18.5t20 22.5l12 12q6 6 12 6q22 0 35.5 -27t13.5 -57q0 -81 -51 -172q-22 -41 -51 -80.5t-51.5 -66t-67.5 -76.5q-10 -10 -12 -10q-6 0 -6 16z" />
<glyph unicode="&#x201e;" horiz-adv-x="524" d="M70 -190q0 6 2 8q96 104 125 153q29 50 39 86t10 86q0 23 -10 41t-19.5 27.5t-9.5 11.5q0 7 9 18.5t20 22.5l12 12q7 7 12 7q22 0 35.5 -27t13.5 -57q0 -81 -51 -172q-32 -59 -68.5 -105.5t-101.5 -118.5q-10 -10 -12 -10q-6 0 -6 17zM240 -190q0 6 2 8q96 104 125 153 q29 50 39 86t10 86q0 23 -10 41t-19.5 27.5t-9.5 11.5q0 7 9 18.5t20 22.5l12 12q7 7 12 7q22 0 35.5 -27t13.5 -57q0 -81 -51 -172q-32 -59 -68.5 -105.5t-101.5 -118.5q-10 -10 -12 -10q-6 0 -6 17z" />
<glyph unicode="&#x2022;" horiz-adv-x="1024" d="M489 709q0 143 103.5 244.5t249.5 101.5t249 -101.5t103 -244.5t-103 -245t-249 -102t-249.5 102t-103.5 245z" />
<glyph unicode="&#x2026;" horiz-adv-x="1165" d="M164 29q0 33 29 64.5t63 31.5q39 0 39 -41q0 -33 -28 -64.5t-62 -31.5q-19 0 -30 11t-11 30zM516 29q0 33 29 64.5t63 31.5q39 0 39 -41q0 -33 -28 -64.5t-62 -31.5q-19 0 -30 11t-11 30zM883 29q0 33 29 64.5t63 31.5q39 0 39 -41q0 -33 -28 -64.5t-62 -31.5 q-19 0 -30 11t-11 30z" />
<glyph unicode="&#x202f;" horiz-adv-x="314" />
<glyph unicode="&#x2039;" horiz-adv-x="563" d="M252 199q0 12 6 18q39 26 167.5 129t168.5 133q1 1 4.5 3.5t7 4.5t6.5 2q2 0 2 -8q0 -13 -6 -16q-40 -29 -90 -68.5t-112.5 -89.5l-92.5 -74q-4 -2 -4 -16q0 -12 4 -24q6 -18 26.5 -75t37 -104t16.5 -51q0 -2 -3.5 -2.5t-9 -0.5t-7.5 -1q-33 -14 -39 -14q-10 0 -12 4 q-9 18 -18.5 51t-22 79.5t-21.5 76.5q-8 24 -8 43z" />
<glyph unicode="&#x203a;" horiz-adv-x="565" d="M184 -53q0 11 11 18q130 87 288 225q6 3 6 21q0 10 -4 22q-18 36 -51 90t-56.5 91t-23.5 39q0 7 21 14q12 5 26 8q2 0 8.5 2t8.5 2q4 0 12 -16q7 -15 37.5 -72t56 -106t25.5 -54q0 -17 -14 -28q-33 -24 -158 -123t-172 -133q-16 -8 -17 -8q-4 0 -4 8z" />
<glyph unicode="&#x205f;" horiz-adv-x="393" />
<glyph unicode="&#x20ac;" horiz-adv-x="755" d="M98 375q0 24 11 24q36 -2 145 -6q22 63 37 99q-25 0 -62.5 -1.5t-46.5 -1.5q-6 0 -6 9q0 12 10 28.5t17 16.5q25 2 116 2q102 187 213 266q112 78 216 78q51 0 87.5 -21t36.5 -41q0 -11 -17.5 -32t-25.5 -21q-4 0 -4 6q0 38 -32.5 63t-77.5 25q-89 0 -189 -100 q-31 -32 -60.5 -73t-43.5 -63.5t-51 -84.5h268h43q92 0 92 -25q0 -9 -6 -16.5t-14 -7.5h-33q-12 0 -57.5 -1t-79.5 -1q-14 0 -45.5 1t-49.5 1q-35 0 -145 -4q-22 -50 -39 -101q35 -2 101 -2q13 0 108.5 2t130.5 2q26 0 34.5 -3t8.5 -13q0 -22 -23.5 -27.5t-101.5 -5.5h-76 q-128 0 -196 2q-10 -52 -10 -108q0 -46 7.5 -85.5t25 -75.5t51 -56.5t79.5 -20.5q149 0 267 188q31 48 34 89q0 12 9 12q12 0 26.5 -17.5t14.5 -31.5q0 -22 -61.5 -95t-119.5 -118q-102 -82 -202 -82q-199 0 -199 221q0 84 27 180q-20 0 -62.5 1t-64.5 1q-15 0 -15 25z" />
<glyph unicode="&#x2122;" horiz-adv-x="837" d="M272 481q0 2 19 30t46.5 71t43.5 73q51 101 70 162q-7 -1 -32.5 -3t-42.5 -4t-40 -6t-39 -9q-2 0 -2 2q0 21 160 34q2 8 2 27q0 37 -45 37q-22 0 -50 -14q0 -9 -18 -9q-2 0 -5 3t-3 6q0 12 30.5 18t47.5 6q33 0 54 -16t21 -41v-14q68 10 117 10q3 0 12.5 -1t16.5 -1h8 q4 0 4 -4q0 -6 -1.5 -11t-3.5 -7l-1 -1l-13 1q-12 0 -33 0.5t-44 0.5q-52 0 -64 -2q-29 -89 -71 -164q-4 -8 -19.5 -37.5t-27.5 -51t-27.5 -46.5t-29 -39t-23.5 -14q-17 0 -17 14zM496 489q0 5 2 7q11 18 38.5 57t45.5 72q2 4 20.5 38t27.5 57.5t9 43.5q0 8 -4 24 q0 4 11.5 10.5t15.5 6.5q8 0 8 -37q0 -11 -4 -23q62 82 104 82q18 0 31.5 -11t13.5 -30q0 -10 -2 -14q14 23 52 46.5t63 23.5q47 0 47 -39q0 -28 -27 -58q-108 -121 -108 -237q0 -38 20.5 -59t50.5 -21q16 0 30.5 7t22 15.5t13.5 15.5t8 7q4 0 4 -4q0 -2 -2 -6l-3 -3 q-2 -4 -6 -8.5t-9.5 -10t-12.5 -11t-15.5 -10t-19.5 -7.5t-22 -3q-36 0 -60 22.5t-24 61.5q0 46 31.5 111t62.5 119.5t31 74.5q0 10 -8 18t-19 8q-23 0 -55 -27.5t-51 -58.5q-1 -1 -5.5 -10t-9 -16t-8.5 -8q-9 0 -14.5 4t-5.5 8q29 16 29 61q0 12 -8.5 22.5t-24.5 10.5 q-21 0 -52.5 -30t-45.5 -56q-8 -13 -42.5 -79.5t-64.5 -123.5t-33 -57q-2 0 -7.5 2t-12 8t-6.5 14z" />
<glyph unicode="&#x25fc;" horiz-adv-x="471" d="M0 0v471h471v-471h-471z" />
<glyph unicode="&#xfb01;" horiz-adv-x="796" d="M-674 -711q0 71 45 154.5t112 159t168 163.5t187.5 153.5t196.5 143.5q9 6 31.5 23t33.5 25l72 143q253 504 455 813q32 49 74 99.5t97 104t118.5 87t119.5 33.5q62 0 93.5 -42t33.5 -112v-2q0 -67 -66 -193.5t-126 -169.5q-21 -16 -43 -16q-12 0 -20.5 9t-8.5 22 q0 23 19 46t43 23q16 0 26 -10q6 -6 8 -6q3 0 9 6q114 141 114 254q0 54 -32 91.5t-87 37.5q-49 0 -96 -22.5t-82 -54t-72 -81.5t-59 -87.5t-51 -90.5l-360 -700l-54 -96q286 200 348 237q37 25 86 25q33 0 49.5 -13t16.5 -45q0 -29 -34.5 -90t-69.5 -126t-35 -105 q0 -53 71 -53q38 0 98 36.5t113 81.5q69 61 101 109q4 6 8 6t4 -4q0 -2 -2 -6q-56 -73 -111 -122t-127 -91q-77 -45 -143 -45q-43 0 -68.5 20.5t-25.5 55.5q0 37 20 78.5t62 107.5q78 115 78 152q0 13 -12.5 22.5t-26.5 9.5q-11 0 -22.5 -4t-17 -7t-19 -12.5t-17.5 -11.5 q-77 -47 -340 -239q-174 -322 -311.5 -556.5t-186.5 -297.5q-61 -79 -128.5 -117.5t-127.5 -38.5q-57 0 -93 37.5t-36 97.5zM-604 -713q0 -37 23 -65.5t63 -28.5q57 0 138 65.5t153 202.5q49 90 142.5 281t162.5 326q-289 -211 -410 -338q-34 -35 -47 -49t-48.5 -53.5 t-53.5 -64t-45.5 -64.5t-41.5 -71t-25 -69t-11 -72z" />
<glyph unicode="&#xfb02;" horiz-adv-x="813" d="M-885 -870q0 59 34.5 129.5t82.5 134t133 144t150 136.5t172 137t161.5 120t152.5 108q23 16 34 24q9 6 31.5 23t33.5 25q21 36 52 95t57.5 111t32.5 62q14 25 59 108.5t65 120t61.5 111.5t70.5 124t69 114.5t78 123.5q188 292 352 353q35 12 64 12q52 0 90 -35 q33 -33 39 -86q83 86 196 129q19 8 39 8q48 0 48 -63q0 -226 -410 -574q-28 -24 -66.5 -54t-65.5 -50t-77.5 -57.5t-69.5 -51.5l-159 -258q-127 -219 -127 -284q0 -26 16 -45t43 -19q102 0 266 139q69 61 101 109q4 6 8 6t4 -4q0 -2 -2 -6q-56 -73 -111 -122t-127 -91 q-105 -60 -182 -60q-45 0 -69.5 25t-24.5 74q0 12 2 24.5t7 26.5t9.5 24.5t13.5 27t13.5 24.5t15.5 26.5t15 24.5l174 276l-461 -366q-497 -923 -635 -1094q-77 -94 -129 -122.5t-123 -28.5q-95 0 -151 56t-56 155zM-805 -836v-14q0 -86 38 -142.5t124 -56.5q45 0 91 32.5 t70 61.5t69 92q9 13 14 19q51 71 132.5 225.5t192 380t152.5 306.5q-262 -192 -418 -326q-175 -151 -226 -199q-229 -221 -239 -379zM225 197l467 368q24 41 115 185.5t121 195.5q121 203 188 295q8 21 8 47q0 42 -28 65t-74 23q-47 0 -93 -22t-77 -51q-42 -39 -77 -88.5 t-113 -182.5q-164 -276 -437 -835zM799 639q104 79 245 201q71 64 146.5 153t140 204t64.5 196q0 32 -21 32q-95 0 -422 -540z" />
<glyph unicode="&#xfb03;" horiz-adv-x="1191" d="M-922 -913q0 65 35.5 141.5t82 142t135 151t149.5 139.5t174.5 139.5t160 119t152.5 107.5q35 25 51 36q25 15 86 62l68 129q18 34 64 128t73 144q-171 -121 -174 -123q-4 -2 -8 -2t-4 5q0 3 37 28q19 12 168 125q11 17 44 79.5t73.5 138.5t94 168.5t113 177.5t121 156 t127.5 114t125 43q24 0 37.5 -18.5t13.5 -49.5q0 -105 -100 -250q-85 -126 -287 -293q-78 -67 -268 -217l-221 -411l391 276l143 105q195 366 301 532q3 4 25.5 39.5t30 46.5t32 46t37 50.5t38 45.5t43 45t43.5 36t48 31t48.5 17.5t52.5 7.5q46 0 68 -37t22 -84 q0 -40 -13 -77.5t-40.5 -75.5t-49 -62.5t-59.5 -63.5q-139 -143 -535 -450l-227 -441q101 72 221 152.5t148 97.5q42 25 86 25q33 0 49 -13t16 -45q0 -24 -21.5 -67.5t-48 -84.5t-48 -89t-21.5 -80q0 -53 72 -53q38 0 98 36.5t113 81.5q67 59 100 109q4 6 8 6t4 -4 q0 -2 -2 -6q-56 -74 -110.5 -122.5t-126.5 -90.5q-77 -45 -144 -45q-43 0 -68.5 20.5t-25.5 55.5q0 37 20 78.5t62 107.5q78 115 78 152q0 13 -12.5 22.5t-26.5 9.5q-21 0 -76 -35l-366 -260q-42 -78 -135 -252t-153.5 -286t-134.5 -247t-122 -218q-83 -142 -205 -239 t-234 -97q-123 0 -174 104q-65 -41 -145 -41q-93 0 -145 62.5t-52 157.5zM-854 -918q0 -77 44.5 -126.5t98.5 -49.5t117 39q-16 56 -16 119q0 226 463 590l231 432q-215 -158 -350 -272q-87 -71 -144.5 -119.5t-134 -118t-125 -126t-94.5 -121t-68 -126.5t-22 -121z M-569 -932q0 -51 14 -92q74 61 139 180l232 428q-385 -311 -385 -516zM-537 -1063q50 -88 154 -88q54 0 117 29.5t136 102t128 175.5l479 914q-380 -271 -411 -295q-20 -16 -75 -56t-81 -59l-289 -518q-77 -138 -158 -205zM-53 -274q107 80 288 203t197 134q1 1 12.5 9 t25 18.5t26.5 20.5q25 44 73 143l148 287l-115 -84l-424 -303zM438 643l234 197q6 5 37.5 33t38 34t33 30t34 32t29.5 30t30.5 33t26 31t28 35.5t23.5 35.5t25 40q53 92 53 147q0 53 -51 53q-50 0 -102.5 -37.5t-110.5 -119t-86.5 -128t-84.5 -145.5q-10 -18 -15 -26 q-79 -138 -142 -275zM844 659q336 253 499 424q57 60 88 130t31 114q0 78 -78 78q-149 0 -331 -344zM1192 684q0 23 19.5 47.5t43.5 24.5q12 0 21.5 -11t9.5 -26q0 -24 -18 -48t-43 -24q-15 0 -24 10t-9 27z" />
<glyph unicode="&#xfb04;" horiz-adv-x="1187" d="M-942 -913q0 65 35.5 141.5t82 142t135 151t149.5 139.5t174.5 139.5t160 119t152.5 107.5q35 25 51 36q25 15 86 62l68 129q18 34 64 128t73 144q-171 -121 -174 -123q-4 -2 -9 -2q-4 0 -4 5q0 3 37 28q19 12 168 125q12 18 55 99t92 173.5t119.5 203t138.5 197 t147 145.5t147 59q24 0 37.5 -18.5t13.5 -49.5q0 -103 -101 -250q-87 -128 -286 -293q-68 -59 -269 -217l-221 -411l391 276l144 105q195 366 301 532q4 6 25.5 39.5t30 46.5t32 46.5t37 50t38 45.5t42.5 44.5t43.5 36t47.5 31t48.5 18t52.5 7.5q46 0 68 -37t22 -84 q0 -40 -13 -77.5t-40.5 -75.5t-49 -62.5t-59.5 -63.5q-142 -146 -534 -450l-227 -441q69 50 144.5 101.5t119.5 80.5t57 37q91 57 219 150q25 41 119.5 191.5t124.5 201.5q58 98 96 158t84.5 123.5t86.5 102.5t88.5 71.5t103.5 52.5q19 8 39 8q47 0 47 -63q0 -226 -410 -574 q-57 -48 -278 -213l-160 -258q-127 -219 -127 -284q0 -26 16 -45t43 -19q103 0 267 139q67 59 100 109q4 6 8 6t4 -4q0 -2 -2 -6q-56 -74 -110.5 -122.5t-126.5 -90.5q-105 -60 -183 -60q-45 0 -69.5 25t-24.5 74q0 12 2 24.5t7 26.5t9.5 24.5t13.5 27t13.5 24.5t15.5 26.5 t15 24.5l174 276q-141 -100 -195 -135q-35 -22 -354 -252q-42 -78 -135 -252t-153.5 -286t-134.5 -247t-122 -218q-83 -142 -204.5 -239t-233.5 -97q-123 0 -174 104q-65 -41 -145 -41q-93 0 -145 62.5t-52 157.5zM-874 -918q0 -77 44.5 -126.5t98.5 -49.5t117 39 q-17 60 -17 119q0 226 463 590l231 432q-215 -158 -350 -272q-74 -60 -124 -102t-117 -101.5t-111.5 -106t-92.5 -104.5t-76.5 -107.5t-47 -104.5t-18.5 -106zM-590 -932q0 -48 15 -92q74 61 139 180l231 428q-385 -311 -385 -516zM-557 -1063q50 -88 154 -88 q54 0 116.5 29.5t135.5 102t128 175.5l480 914q-390 -277 -412 -295q-20 -16 -75 -56t-81 -59l-288 -518q-77 -138 -158 -205zM-74 -274q107 80 287 202t199 135q46 34 63 48q33 60 74 143l147 287l-114 -84l-424 -303zM418 643l233 197q6 5 37.5 33t38 34t33 30t34 32 t29.5 30t30.5 33t26 31t28 35.5t23.5 35.5t25 40q54 93 54 147q0 53 -52 53q-50 0 -102.5 -37.5t-110.5 -119t-86.5 -128t-84.5 -145.5q-10 -18 -15 -26q-75 -130 -141 -275zM823 659q340 256 500 424q57 60 88 130t31 114q0 78 -78 78q-150 0 -332 -344zM1235 639 q112 85 246 201q51 46 107.5 110t113 141t93 158.5t36.5 143.5q0 32 -21 32q-94 0 -421 -540z" />
</font>
</defs>
</svg>
